G04 #@! TF.GenerationSoftware,KiCad,Pcbnew,5.0.2-bee76a0~70~ubuntu18.04.1*
G04 #@! TF.CreationDate,2019-10-10T22:37:19-05:00*
G04 #@! TF.ProjectId,nvmeter,6e766d65-7465-4722-9e6b-696361645f70,rev?*
G04 #@! TF.SameCoordinates,Original*
G04 #@! TF.FileFunction,Legend,Bot*
G04 #@! TF.FilePolarity,Positive*
%FSLAX46Y46*%
G04 Gerber Fmt 4.6, Leading zero omitted, Abs format (unit mm)*
G04 Created by KiCad (PCBNEW 5.0.2-bee76a0~70~ubuntu18.04.1) date Thu 10 Oct 2019 10:37:19 PM CDT*
%MOMM*%
%LPD*%
G01*
G04 APERTURE LIST*
%ADD10C,0.120000*%
%ADD11C,0.150000*%
G04 APERTURE END LIST*
D10*
G04 #@! TO.C,C31*
X50921043Y-39078271D02*
X51263577Y-39078271D01*
X50921043Y-38058271D02*
X51263577Y-38058271D01*
G04 #@! TO.C,C27*
X61407275Y-48591415D02*
X61749809Y-48591415D01*
X61407275Y-47571415D02*
X61749809Y-47571415D01*
G04 #@! TO.C,C28*
X68686852Y-48644786D02*
X69029386Y-48644786D01*
X68686852Y-47624786D02*
X69029386Y-47624786D01*
G04 #@! TO.C,C13*
X68921043Y-40578271D02*
X69263577Y-40578271D01*
X68921043Y-39558271D02*
X69263577Y-39558271D01*
G04 #@! TO.C,C54*
X50914847Y-48179990D02*
X50914847Y-48522524D01*
X49894847Y-48179990D02*
X49894847Y-48522524D01*
G04 #@! TO.C,C15*
X56935339Y-40578271D02*
X57277873Y-40578271D01*
X56935339Y-39558271D02*
X57277873Y-39558271D01*
G04 #@! TO.C,C16*
X53528459Y-33489538D02*
X53528459Y-33147004D01*
X54548459Y-33489538D02*
X54548459Y-33147004D01*
G04 #@! TO.C,C17*
X68921043Y-39078271D02*
X69263577Y-39078271D01*
X68921043Y-38058271D02*
X69263577Y-38058271D01*
G04 #@! TO.C,C18*
X63786308Y-33489538D02*
X63786308Y-33147004D01*
X64806308Y-33489538D02*
X64806308Y-33147004D01*
G04 #@! TO.C,C19*
X56935339Y-39078271D02*
X57277873Y-39078271D01*
X56935339Y-38058271D02*
X57277873Y-38058271D01*
G04 #@! TO.C,C20*
X51832310Y-33489538D02*
X51832310Y-33147004D01*
X52852310Y-33489538D02*
X52852310Y-33147004D01*
G04 #@! TO.C,C33*
X36265794Y-56390197D02*
X35923260Y-56390197D01*
X36265794Y-57410197D02*
X35923260Y-57410197D01*
G04 #@! TO.C,C14*
X66556308Y-33489538D02*
X66556308Y-33147004D01*
X65536308Y-33489538D02*
X65536308Y-33147004D01*
G04 #@! TO.C,C55*
X45826114Y-46191257D02*
X45483580Y-46191257D01*
X45826114Y-47211257D02*
X45483580Y-47211257D01*
G04 #@! TO.C,C29*
X62921043Y-39078271D02*
X63263577Y-39078271D01*
X62921043Y-38058271D02*
X63263577Y-38058271D01*
G04 #@! TO.C,C49*
X37414834Y-51262317D02*
X37072300Y-51262317D01*
X37414834Y-50242317D02*
X37072300Y-50242317D01*
G04 #@! TO.C,C32*
X45832310Y-33489538D02*
X45832310Y-33147004D01*
X46852310Y-33489538D02*
X46852310Y-33147004D01*
G04 #@! TO.C,C36*
X62921043Y-39558271D02*
X63263577Y-39558271D01*
X62921043Y-40578271D02*
X63263577Y-40578271D01*
G04 #@! TO.C,C37*
X60602310Y-33579618D02*
X60602310Y-33237084D01*
X59582310Y-33579618D02*
X59582310Y-33237084D01*
G04 #@! TO.C,C38*
X50921043Y-39558271D02*
X51263577Y-39558271D01*
X50921043Y-40578271D02*
X51263577Y-40578271D01*
G04 #@! TO.C,C39*
X48602310Y-33489538D02*
X48602310Y-33147004D01*
X47582310Y-33489538D02*
X47582310Y-33147004D01*
G04 #@! TO.C,C30*
X57800884Y-33579618D02*
X57800884Y-33237084D01*
X58820884Y-33579618D02*
X58820884Y-33237084D01*
G04 #@! TO.C,C34*
X36355779Y-54440197D02*
X35833275Y-54440197D01*
X36355779Y-55860197D02*
X35833275Y-55860197D01*
G04 #@! TO.C,C24*
X68846867Y-49260752D02*
X69369371Y-49260752D01*
X68846867Y-50680752D02*
X69369371Y-50680752D01*
G04 #@! TO.C,C23*
X61567290Y-50791415D02*
X62089794Y-50791415D01*
X61567290Y-49371415D02*
X62089794Y-49371415D01*
G04 #@! TO.C,C50*
X37651179Y-49712317D02*
X37128675Y-49712317D01*
X37651179Y-48292317D02*
X37128675Y-48292317D01*
G04 #@! TO.C,C44*
X51002310Y-33420335D02*
X51002310Y-32216207D01*
X49182310Y-33420335D02*
X49182310Y-32216207D01*
G04 #@! TO.C,C7*
X69240246Y-41158271D02*
X70444374Y-41158271D01*
X69240246Y-42978271D02*
X70444374Y-42978271D01*
G04 #@! TO.C,C10*
X55128459Y-33420335D02*
X55128459Y-32216207D01*
X56948459Y-33420335D02*
X56948459Y-32216207D01*
G04 #@! TO.C,C8*
X69002310Y-33420335D02*
X69002310Y-32216207D01*
X67182310Y-33420335D02*
X67182310Y-32216207D01*
G04 #@! TO.C,C43*
X51240246Y-41158271D02*
X52444374Y-41158271D01*
X51240246Y-42978271D02*
X52444374Y-42978271D01*
G04 #@! TO.C,C42*
X63002310Y-33420335D02*
X63002310Y-32216207D01*
X61182310Y-33420335D02*
X61182310Y-32216207D01*
G04 #@! TO.C,C41*
X63240246Y-41158271D02*
X64444374Y-41158271D01*
X63240246Y-42978271D02*
X64444374Y-42978271D01*
G04 #@! TO.C,C9*
X57240246Y-42978271D02*
X58444374Y-42978271D01*
X57240246Y-41158271D02*
X58444374Y-41158271D01*
G04 #@! TO.C,C31*
D11*
X54735167Y-38925413D02*
X54782786Y-38973032D01*
X54925643Y-39020651D01*
X55020881Y-39020651D01*
X55163738Y-38973032D01*
X55258976Y-38877794D01*
X55306595Y-38782556D01*
X55354214Y-38592080D01*
X55354214Y-38449223D01*
X55306595Y-38258747D01*
X55258976Y-38163509D01*
X55163738Y-38068271D01*
X55020881Y-38020651D01*
X54925643Y-38020651D01*
X54782786Y-38068271D01*
X54735167Y-38115890D01*
X54401833Y-38020651D02*
X53782786Y-38020651D01*
X54116119Y-38401604D01*
X53973262Y-38401604D01*
X53878024Y-38449223D01*
X53830405Y-38496842D01*
X53782786Y-38592080D01*
X53782786Y-38830175D01*
X53830405Y-38925413D01*
X53878024Y-38973032D01*
X53973262Y-39020651D01*
X54258976Y-39020651D01*
X54354214Y-38973032D01*
X54401833Y-38925413D01*
X52830405Y-39020651D02*
X53401833Y-39020651D01*
X53116119Y-39020651D02*
X53116119Y-38020651D01*
X53211357Y-38163509D01*
X53306595Y-38258747D01*
X53401833Y-38306366D01*
G04 #@! TO.C,C27*
X58971399Y-48438557D02*
X59019018Y-48486176D01*
X59161875Y-48533795D01*
X59257113Y-48533795D01*
X59399970Y-48486176D01*
X59495208Y-48390938D01*
X59542827Y-48295700D01*
X59590446Y-48105224D01*
X59590446Y-47962367D01*
X59542827Y-47771891D01*
X59495208Y-47676653D01*
X59399970Y-47581415D01*
X59257113Y-47533795D01*
X59161875Y-47533795D01*
X59019018Y-47581415D01*
X58971399Y-47629034D01*
X58590446Y-47629034D02*
X58542827Y-47581415D01*
X58447589Y-47533795D01*
X58209494Y-47533795D01*
X58114256Y-47581415D01*
X58066637Y-47629034D01*
X58019018Y-47724272D01*
X58019018Y-47819510D01*
X58066637Y-47962367D01*
X58638065Y-48533795D01*
X58019018Y-48533795D01*
X57685684Y-47533795D02*
X57019018Y-47533795D01*
X57447589Y-48533795D01*
G04 #@! TO.C,C28*
X66250976Y-48491928D02*
X66298595Y-48539547D01*
X66441452Y-48587166D01*
X66536690Y-48587166D01*
X66679547Y-48539547D01*
X66774785Y-48444309D01*
X66822404Y-48349071D01*
X66870023Y-48158595D01*
X66870023Y-48015738D01*
X66822404Y-47825262D01*
X66774785Y-47730024D01*
X66679547Y-47634786D01*
X66536690Y-47587166D01*
X66441452Y-47587166D01*
X66298595Y-47634786D01*
X66250976Y-47682405D01*
X65870023Y-47682405D02*
X65822404Y-47634786D01*
X65727166Y-47587166D01*
X65489071Y-47587166D01*
X65393833Y-47634786D01*
X65346214Y-47682405D01*
X65298595Y-47777643D01*
X65298595Y-47872881D01*
X65346214Y-48015738D01*
X65917642Y-48587166D01*
X65298595Y-48587166D01*
X64727166Y-48015738D02*
X64822404Y-47968119D01*
X64870023Y-47920500D01*
X64917642Y-47825262D01*
X64917642Y-47777643D01*
X64870023Y-47682405D01*
X64822404Y-47634786D01*
X64727166Y-47587166D01*
X64536690Y-47587166D01*
X64441452Y-47634786D01*
X64393833Y-47682405D01*
X64346214Y-47777643D01*
X64346214Y-47825262D01*
X64393833Y-47920500D01*
X64441452Y-47968119D01*
X64536690Y-48015738D01*
X64727166Y-48015738D01*
X64822404Y-48063357D01*
X64870023Y-48110976D01*
X64917642Y-48206214D01*
X64917642Y-48396690D01*
X64870023Y-48491928D01*
X64822404Y-48539547D01*
X64727166Y-48587166D01*
X64536690Y-48587166D01*
X64441452Y-48539547D01*
X64393833Y-48491928D01*
X64346214Y-48396690D01*
X64346214Y-48206214D01*
X64393833Y-48110976D01*
X64441452Y-48063357D01*
X64536690Y-48015738D01*
G04 #@! TO.C,C13*
X73235167Y-40425413D02*
X73282786Y-40473032D01*
X73425643Y-40520651D01*
X73520881Y-40520651D01*
X73663738Y-40473032D01*
X73758976Y-40377794D01*
X73806595Y-40282556D01*
X73854214Y-40092080D01*
X73854214Y-39949223D01*
X73806595Y-39758747D01*
X73758976Y-39663509D01*
X73663738Y-39568271D01*
X73520881Y-39520651D01*
X73425643Y-39520651D01*
X73282786Y-39568271D01*
X73235167Y-39615890D01*
X72282786Y-40520651D02*
X72854214Y-40520651D01*
X72568500Y-40520651D02*
X72568500Y-39520651D01*
X72663738Y-39663509D01*
X72758976Y-39758747D01*
X72854214Y-39806366D01*
X71949452Y-39520651D02*
X71330405Y-39520651D01*
X71663738Y-39901604D01*
X71520881Y-39901604D01*
X71425643Y-39949223D01*
X71378024Y-39996842D01*
X71330405Y-40092080D01*
X71330405Y-40330175D01*
X71378024Y-40425413D01*
X71425643Y-40473032D01*
X71520881Y-40520651D01*
X71806595Y-40520651D01*
X71901833Y-40473032D01*
X71949452Y-40425413D01*
G04 #@! TO.C,C54*
X52011989Y-47708399D02*
X52059608Y-47660780D01*
X52107227Y-47517923D01*
X52107227Y-47422685D01*
X52059608Y-47279828D01*
X51964370Y-47184590D01*
X51869132Y-47136971D01*
X51678656Y-47089352D01*
X51535799Y-47089352D01*
X51345323Y-47136971D01*
X51250085Y-47184590D01*
X51154847Y-47279828D01*
X51107227Y-47422685D01*
X51107227Y-47517923D01*
X51154847Y-47660780D01*
X51202466Y-47708399D01*
X51107227Y-48613161D02*
X51107227Y-48136971D01*
X51583418Y-48089352D01*
X51535799Y-48136971D01*
X51488180Y-48232209D01*
X51488180Y-48470304D01*
X51535799Y-48565542D01*
X51583418Y-48613161D01*
X51678656Y-48660780D01*
X51916751Y-48660780D01*
X52011989Y-48613161D01*
X52059608Y-48565542D01*
X52107227Y-48470304D01*
X52107227Y-48232209D01*
X52059608Y-48136971D01*
X52011989Y-48089352D01*
X51440561Y-49517923D02*
X52107227Y-49517923D01*
X51059608Y-49279828D02*
X51773894Y-49041733D01*
X51773894Y-49660780D01*
G04 #@! TO.C,C15*
X60999463Y-40425413D02*
X61047082Y-40473032D01*
X61189939Y-40520651D01*
X61285177Y-40520651D01*
X61428034Y-40473032D01*
X61523272Y-40377794D01*
X61570891Y-40282556D01*
X61618510Y-40092080D01*
X61618510Y-39949223D01*
X61570891Y-39758747D01*
X61523272Y-39663509D01*
X61428034Y-39568271D01*
X61285177Y-39520651D01*
X61189939Y-39520651D01*
X61047082Y-39568271D01*
X60999463Y-39615890D01*
X60047082Y-40520651D02*
X60618510Y-40520651D01*
X60332796Y-40520651D02*
X60332796Y-39520651D01*
X60428034Y-39663509D01*
X60523272Y-39758747D01*
X60618510Y-39806366D01*
X59142320Y-39520651D02*
X59618510Y-39520651D01*
X59666129Y-39996842D01*
X59618510Y-39949223D01*
X59523272Y-39901604D01*
X59285177Y-39901604D01*
X59189939Y-39949223D01*
X59142320Y-39996842D01*
X59094701Y-40092080D01*
X59094701Y-40330175D01*
X59142320Y-40425413D01*
X59189939Y-40473032D01*
X59285177Y-40520651D01*
X59523272Y-40520651D01*
X59618510Y-40473032D01*
X59666129Y-40425413D01*
G04 #@! TO.C,C16*
X54199452Y-35675413D02*
X54247071Y-35627794D01*
X54294690Y-35484937D01*
X54294690Y-35389699D01*
X54247071Y-35246842D01*
X54151833Y-35151604D01*
X54056595Y-35103985D01*
X53866119Y-35056366D01*
X53723262Y-35056366D01*
X53532786Y-35103985D01*
X53437548Y-35151604D01*
X53342310Y-35246842D01*
X53294690Y-35389699D01*
X53294690Y-35484937D01*
X53342310Y-35627794D01*
X53389929Y-35675413D01*
X54294690Y-36627794D02*
X54294690Y-36056366D01*
X54294690Y-36342080D02*
X53294690Y-36342080D01*
X53437548Y-36246842D01*
X53532786Y-36151604D01*
X53580405Y-36056366D01*
X53294690Y-37484937D02*
X53294690Y-37294461D01*
X53342310Y-37199223D01*
X53389929Y-37151604D01*
X53532786Y-37056366D01*
X53723262Y-37008747D01*
X54104214Y-37008747D01*
X54199452Y-37056366D01*
X54247071Y-37103985D01*
X54294690Y-37199223D01*
X54294690Y-37389699D01*
X54247071Y-37484937D01*
X54199452Y-37532556D01*
X54104214Y-37580175D01*
X53866119Y-37580175D01*
X53770881Y-37532556D01*
X53723262Y-37484937D01*
X53675643Y-37389699D01*
X53675643Y-37199223D01*
X53723262Y-37103985D01*
X53770881Y-37056366D01*
X53866119Y-37008747D01*
G04 #@! TO.C,C17*
X73235167Y-38925413D02*
X73282786Y-38973032D01*
X73425643Y-39020651D01*
X73520881Y-39020651D01*
X73663738Y-38973032D01*
X73758976Y-38877794D01*
X73806595Y-38782556D01*
X73854214Y-38592080D01*
X73854214Y-38449223D01*
X73806595Y-38258747D01*
X73758976Y-38163509D01*
X73663738Y-38068271D01*
X73520881Y-38020651D01*
X73425643Y-38020651D01*
X73282786Y-38068271D01*
X73235167Y-38115890D01*
X72282786Y-39020651D02*
X72854214Y-39020651D01*
X72568500Y-39020651D02*
X72568500Y-38020651D01*
X72663738Y-38163509D01*
X72758976Y-38258747D01*
X72854214Y-38306366D01*
X71949452Y-38020651D02*
X71282786Y-38020651D01*
X71711357Y-39020651D01*
G04 #@! TO.C,C18*
X64699452Y-35675413D02*
X64747071Y-35627794D01*
X64794690Y-35484937D01*
X64794690Y-35389699D01*
X64747071Y-35246842D01*
X64651833Y-35151604D01*
X64556595Y-35103985D01*
X64366119Y-35056366D01*
X64223262Y-35056366D01*
X64032786Y-35103985D01*
X63937548Y-35151604D01*
X63842310Y-35246842D01*
X63794690Y-35389699D01*
X63794690Y-35484937D01*
X63842310Y-35627794D01*
X63889929Y-35675413D01*
X64794690Y-36627794D02*
X64794690Y-36056366D01*
X64794690Y-36342080D02*
X63794690Y-36342080D01*
X63937548Y-36246842D01*
X64032786Y-36151604D01*
X64080405Y-36056366D01*
X64223262Y-37199223D02*
X64175643Y-37103985D01*
X64128024Y-37056366D01*
X64032786Y-37008747D01*
X63985167Y-37008747D01*
X63889929Y-37056366D01*
X63842310Y-37103985D01*
X63794690Y-37199223D01*
X63794690Y-37389699D01*
X63842310Y-37484937D01*
X63889929Y-37532556D01*
X63985167Y-37580175D01*
X64032786Y-37580175D01*
X64128024Y-37532556D01*
X64175643Y-37484937D01*
X64223262Y-37389699D01*
X64223262Y-37199223D01*
X64270881Y-37103985D01*
X64318500Y-37056366D01*
X64413738Y-37008747D01*
X64604214Y-37008747D01*
X64699452Y-37056366D01*
X64747071Y-37103985D01*
X64794690Y-37199223D01*
X64794690Y-37389699D01*
X64747071Y-37484937D01*
X64699452Y-37532556D01*
X64604214Y-37580175D01*
X64413738Y-37580175D01*
X64318500Y-37532556D01*
X64270881Y-37484937D01*
X64223262Y-37389699D01*
G04 #@! TO.C,C19*
X60999463Y-38925413D02*
X61047082Y-38973032D01*
X61189939Y-39020651D01*
X61285177Y-39020651D01*
X61428034Y-38973032D01*
X61523272Y-38877794D01*
X61570891Y-38782556D01*
X61618510Y-38592080D01*
X61618510Y-38449223D01*
X61570891Y-38258747D01*
X61523272Y-38163509D01*
X61428034Y-38068271D01*
X61285177Y-38020651D01*
X61189939Y-38020651D01*
X61047082Y-38068271D01*
X60999463Y-38115890D01*
X60047082Y-39020651D02*
X60618510Y-39020651D01*
X60332796Y-39020651D02*
X60332796Y-38020651D01*
X60428034Y-38163509D01*
X60523272Y-38258747D01*
X60618510Y-38306366D01*
X59570891Y-39020651D02*
X59380415Y-39020651D01*
X59285177Y-38973032D01*
X59237558Y-38925413D01*
X59142320Y-38782556D01*
X59094701Y-38592080D01*
X59094701Y-38211128D01*
X59142320Y-38115890D01*
X59189939Y-38068271D01*
X59285177Y-38020651D01*
X59475653Y-38020651D01*
X59570891Y-38068271D01*
X59618510Y-38115890D01*
X59666129Y-38211128D01*
X59666129Y-38449223D01*
X59618510Y-38544461D01*
X59570891Y-38592080D01*
X59475653Y-38639699D01*
X59285177Y-38639699D01*
X59189939Y-38592080D01*
X59142320Y-38544461D01*
X59094701Y-38449223D01*
G04 #@! TO.C,C20*
X52699452Y-35675413D02*
X52747071Y-35627794D01*
X52794690Y-35484937D01*
X52794690Y-35389699D01*
X52747071Y-35246842D01*
X52651833Y-35151604D01*
X52556595Y-35103985D01*
X52366119Y-35056366D01*
X52223262Y-35056366D01*
X52032786Y-35103985D01*
X51937548Y-35151604D01*
X51842310Y-35246842D01*
X51794690Y-35389699D01*
X51794690Y-35484937D01*
X51842310Y-35627794D01*
X51889929Y-35675413D01*
X51889929Y-36056366D02*
X51842310Y-36103985D01*
X51794690Y-36199223D01*
X51794690Y-36437318D01*
X51842310Y-36532556D01*
X51889929Y-36580175D01*
X51985167Y-36627794D01*
X52080405Y-36627794D01*
X52223262Y-36580175D01*
X52794690Y-36008747D01*
X52794690Y-36627794D01*
X51794690Y-37246842D02*
X51794690Y-37342080D01*
X51842310Y-37437318D01*
X51889929Y-37484937D01*
X51985167Y-37532556D01*
X52175643Y-37580175D01*
X52413738Y-37580175D01*
X52604214Y-37532556D01*
X52699452Y-37484937D01*
X52747071Y-37437318D01*
X52794690Y-37342080D01*
X52794690Y-37246842D01*
X52747071Y-37151604D01*
X52699452Y-37103985D01*
X52604214Y-37056366D01*
X52413738Y-37008747D01*
X52175643Y-37008747D01*
X51985167Y-37056366D01*
X51889929Y-37103985D01*
X51842310Y-37151604D01*
X51794690Y-37246842D01*
G04 #@! TO.C,C33*
X39737384Y-57257339D02*
X39785003Y-57304958D01*
X39927860Y-57352577D01*
X40023098Y-57352577D01*
X40165955Y-57304958D01*
X40261193Y-57209720D01*
X40308812Y-57114482D01*
X40356431Y-56924006D01*
X40356431Y-56781149D01*
X40308812Y-56590673D01*
X40261193Y-56495435D01*
X40165955Y-56400197D01*
X40023098Y-56352577D01*
X39927860Y-56352577D01*
X39785003Y-56400197D01*
X39737384Y-56447816D01*
X39404050Y-56352577D02*
X38785003Y-56352577D01*
X39118336Y-56733530D01*
X38975479Y-56733530D01*
X38880241Y-56781149D01*
X38832622Y-56828768D01*
X38785003Y-56924006D01*
X38785003Y-57162101D01*
X38832622Y-57257339D01*
X38880241Y-57304958D01*
X38975479Y-57352577D01*
X39261193Y-57352577D01*
X39356431Y-57304958D01*
X39404050Y-57257339D01*
X38451669Y-56352577D02*
X37832622Y-56352577D01*
X38165955Y-56733530D01*
X38023098Y-56733530D01*
X37927860Y-56781149D01*
X37880241Y-56828768D01*
X37832622Y-56924006D01*
X37832622Y-57162101D01*
X37880241Y-57257339D01*
X37927860Y-57304958D01*
X38023098Y-57352577D01*
X38308812Y-57352577D01*
X38404050Y-57304958D01*
X38451669Y-57257339D01*
G04 #@! TO.C,C14*
X66199452Y-35675413D02*
X66247071Y-35627794D01*
X66294690Y-35484937D01*
X66294690Y-35389699D01*
X66247071Y-35246842D01*
X66151833Y-35151604D01*
X66056595Y-35103985D01*
X65866119Y-35056366D01*
X65723262Y-35056366D01*
X65532786Y-35103985D01*
X65437548Y-35151604D01*
X65342310Y-35246842D01*
X65294690Y-35389699D01*
X65294690Y-35484937D01*
X65342310Y-35627794D01*
X65389929Y-35675413D01*
X66294690Y-36627794D02*
X66294690Y-36056366D01*
X66294690Y-36342080D02*
X65294690Y-36342080D01*
X65437548Y-36246842D01*
X65532786Y-36151604D01*
X65580405Y-36056366D01*
X65628024Y-37484937D02*
X66294690Y-37484937D01*
X65247071Y-37246842D02*
X65961357Y-37008747D01*
X65961357Y-37627794D01*
G04 #@! TO.C,C55*
X46297704Y-45808399D02*
X46345323Y-45856018D01*
X46488180Y-45903637D01*
X46583418Y-45903637D01*
X46726275Y-45856018D01*
X46821513Y-45760780D01*
X46869132Y-45665542D01*
X46916751Y-45475066D01*
X46916751Y-45332209D01*
X46869132Y-45141733D01*
X46821513Y-45046495D01*
X46726275Y-44951257D01*
X46583418Y-44903637D01*
X46488180Y-44903637D01*
X46345323Y-44951257D01*
X46297704Y-44998876D01*
X45392942Y-44903637D02*
X45869132Y-44903637D01*
X45916751Y-45379828D01*
X45869132Y-45332209D01*
X45773894Y-45284590D01*
X45535799Y-45284590D01*
X45440561Y-45332209D01*
X45392942Y-45379828D01*
X45345323Y-45475066D01*
X45345323Y-45713161D01*
X45392942Y-45808399D01*
X45440561Y-45856018D01*
X45535799Y-45903637D01*
X45773894Y-45903637D01*
X45869132Y-45856018D01*
X45916751Y-45808399D01*
X44440561Y-44903637D02*
X44916751Y-44903637D01*
X44964370Y-45379828D01*
X44916751Y-45332209D01*
X44821513Y-45284590D01*
X44583418Y-45284590D01*
X44488180Y-45332209D01*
X44440561Y-45379828D01*
X44392942Y-45475066D01*
X44392942Y-45713161D01*
X44440561Y-45808399D01*
X44488180Y-45856018D01*
X44583418Y-45903637D01*
X44821513Y-45903637D01*
X44916751Y-45856018D01*
X44964370Y-45808399D01*
G04 #@! TO.C,C29*
X66735167Y-39175413D02*
X66782786Y-39223032D01*
X66925643Y-39270651D01*
X67020881Y-39270651D01*
X67163738Y-39223032D01*
X67258976Y-39127794D01*
X67306595Y-39032556D01*
X67354214Y-38842080D01*
X67354214Y-38699223D01*
X67306595Y-38508747D01*
X67258976Y-38413509D01*
X67163738Y-38318271D01*
X67020881Y-38270651D01*
X66925643Y-38270651D01*
X66782786Y-38318271D01*
X66735167Y-38365890D01*
X66354214Y-38365890D02*
X66306595Y-38318271D01*
X66211357Y-38270651D01*
X65973262Y-38270651D01*
X65878024Y-38318271D01*
X65830405Y-38365890D01*
X65782786Y-38461128D01*
X65782786Y-38556366D01*
X65830405Y-38699223D01*
X66401833Y-39270651D01*
X65782786Y-39270651D01*
X65306595Y-39270651D02*
X65116119Y-39270651D01*
X65020881Y-39223032D01*
X64973262Y-39175413D01*
X64878024Y-39032556D01*
X64830405Y-38842080D01*
X64830405Y-38461128D01*
X64878024Y-38365890D01*
X64925643Y-38318271D01*
X65020881Y-38270651D01*
X65211357Y-38270651D01*
X65306595Y-38318271D01*
X65354214Y-38365890D01*
X65401833Y-38461128D01*
X65401833Y-38699223D01*
X65354214Y-38794461D01*
X65306595Y-38842080D01*
X65211357Y-38889699D01*
X65020881Y-38889699D01*
X64925643Y-38842080D01*
X64878024Y-38794461D01*
X64830405Y-38699223D01*
G04 #@! TO.C,C49*
X40782784Y-51109459D02*
X40830403Y-51157078D01*
X40973260Y-51204697D01*
X41068498Y-51204697D01*
X41211355Y-51157078D01*
X41306593Y-51061840D01*
X41354212Y-50966602D01*
X41401831Y-50776126D01*
X41401831Y-50633269D01*
X41354212Y-50442793D01*
X41306593Y-50347555D01*
X41211355Y-50252317D01*
X41068498Y-50204697D01*
X40973260Y-50204697D01*
X40830403Y-50252317D01*
X40782784Y-50299936D01*
X39925641Y-50538031D02*
X39925641Y-51204697D01*
X40163736Y-50157078D02*
X40401831Y-50871364D01*
X39782784Y-50871364D01*
X39354212Y-51204697D02*
X39163736Y-51204697D01*
X39068498Y-51157078D01*
X39020879Y-51109459D01*
X38925641Y-50966602D01*
X38878022Y-50776126D01*
X38878022Y-50395174D01*
X38925641Y-50299936D01*
X38973260Y-50252317D01*
X39068498Y-50204697D01*
X39258974Y-50204697D01*
X39354212Y-50252317D01*
X39401831Y-50299936D01*
X39449450Y-50395174D01*
X39449450Y-50633269D01*
X39401831Y-50728507D01*
X39354212Y-50776126D01*
X39258974Y-50823745D01*
X39068498Y-50823745D01*
X38973260Y-50776126D01*
X38925641Y-50728507D01*
X38878022Y-50633269D01*
G04 #@! TO.C,C32*
X46699452Y-35675413D02*
X46747071Y-35627794D01*
X46794690Y-35484937D01*
X46794690Y-35389699D01*
X46747071Y-35246842D01*
X46651833Y-35151604D01*
X46556595Y-35103985D01*
X46366119Y-35056366D01*
X46223262Y-35056366D01*
X46032786Y-35103985D01*
X45937548Y-35151604D01*
X45842310Y-35246842D01*
X45794690Y-35389699D01*
X45794690Y-35484937D01*
X45842310Y-35627794D01*
X45889929Y-35675413D01*
X45794690Y-36008747D02*
X45794690Y-36627794D01*
X46175643Y-36294461D01*
X46175643Y-36437318D01*
X46223262Y-36532556D01*
X46270881Y-36580175D01*
X46366119Y-36627794D01*
X46604214Y-36627794D01*
X46699452Y-36580175D01*
X46747071Y-36532556D01*
X46794690Y-36437318D01*
X46794690Y-36151604D01*
X46747071Y-36056366D01*
X46699452Y-36008747D01*
X45889929Y-37008747D02*
X45842310Y-37056366D01*
X45794690Y-37151604D01*
X45794690Y-37389699D01*
X45842310Y-37484937D01*
X45889929Y-37532556D01*
X45985167Y-37580175D01*
X46080405Y-37580175D01*
X46223262Y-37532556D01*
X46794690Y-36961128D01*
X46794690Y-37580175D01*
G04 #@! TO.C,C36*
X66735167Y-40425413D02*
X66782786Y-40473032D01*
X66925643Y-40520651D01*
X67020881Y-40520651D01*
X67163738Y-40473032D01*
X67258976Y-40377794D01*
X67306595Y-40282556D01*
X67354214Y-40092080D01*
X67354214Y-39949223D01*
X67306595Y-39758747D01*
X67258976Y-39663509D01*
X67163738Y-39568271D01*
X67020881Y-39520651D01*
X66925643Y-39520651D01*
X66782786Y-39568271D01*
X66735167Y-39615890D01*
X66401833Y-39520651D02*
X65782786Y-39520651D01*
X66116119Y-39901604D01*
X65973262Y-39901604D01*
X65878024Y-39949223D01*
X65830405Y-39996842D01*
X65782786Y-40092080D01*
X65782786Y-40330175D01*
X65830405Y-40425413D01*
X65878024Y-40473032D01*
X65973262Y-40520651D01*
X66258976Y-40520651D01*
X66354214Y-40473032D01*
X66401833Y-40425413D01*
X64925643Y-39520651D02*
X65116119Y-39520651D01*
X65211357Y-39568271D01*
X65258976Y-39615890D01*
X65354214Y-39758747D01*
X65401833Y-39949223D01*
X65401833Y-40330175D01*
X65354214Y-40425413D01*
X65306595Y-40473032D01*
X65211357Y-40520651D01*
X65020881Y-40520651D01*
X64925643Y-40473032D01*
X64878024Y-40425413D01*
X64830405Y-40330175D01*
X64830405Y-40092080D01*
X64878024Y-39996842D01*
X64925643Y-39949223D01*
X65020881Y-39901604D01*
X65211357Y-39901604D01*
X65306595Y-39949223D01*
X65354214Y-39996842D01*
X65401833Y-40092080D01*
G04 #@! TO.C,C37*
X60449452Y-35675413D02*
X60497071Y-35627794D01*
X60544690Y-35484937D01*
X60544690Y-35389699D01*
X60497071Y-35246842D01*
X60401833Y-35151604D01*
X60306595Y-35103985D01*
X60116119Y-35056366D01*
X59973262Y-35056366D01*
X59782786Y-35103985D01*
X59687548Y-35151604D01*
X59592310Y-35246842D01*
X59544690Y-35389699D01*
X59544690Y-35484937D01*
X59592310Y-35627794D01*
X59639929Y-35675413D01*
X59544690Y-36008747D02*
X59544690Y-36627794D01*
X59925643Y-36294461D01*
X59925643Y-36437318D01*
X59973262Y-36532556D01*
X60020881Y-36580175D01*
X60116119Y-36627794D01*
X60354214Y-36627794D01*
X60449452Y-36580175D01*
X60497071Y-36532556D01*
X60544690Y-36437318D01*
X60544690Y-36151604D01*
X60497071Y-36056366D01*
X60449452Y-36008747D01*
X59544690Y-36961128D02*
X59544690Y-37627794D01*
X60544690Y-37199223D01*
G04 #@! TO.C,C38*
X54735167Y-40425413D02*
X54782786Y-40473032D01*
X54925643Y-40520651D01*
X55020881Y-40520651D01*
X55163738Y-40473032D01*
X55258976Y-40377794D01*
X55306595Y-40282556D01*
X55354214Y-40092080D01*
X55354214Y-39949223D01*
X55306595Y-39758747D01*
X55258976Y-39663509D01*
X55163738Y-39568271D01*
X55020881Y-39520651D01*
X54925643Y-39520651D01*
X54782786Y-39568271D01*
X54735167Y-39615890D01*
X54401833Y-39520651D02*
X53782786Y-39520651D01*
X54116119Y-39901604D01*
X53973262Y-39901604D01*
X53878024Y-39949223D01*
X53830405Y-39996842D01*
X53782786Y-40092080D01*
X53782786Y-40330175D01*
X53830405Y-40425413D01*
X53878024Y-40473032D01*
X53973262Y-40520651D01*
X54258976Y-40520651D01*
X54354214Y-40473032D01*
X54401833Y-40425413D01*
X53211357Y-39949223D02*
X53306595Y-39901604D01*
X53354214Y-39853985D01*
X53401833Y-39758747D01*
X53401833Y-39711128D01*
X53354214Y-39615890D01*
X53306595Y-39568271D01*
X53211357Y-39520651D01*
X53020881Y-39520651D01*
X52925643Y-39568271D01*
X52878024Y-39615890D01*
X52830405Y-39711128D01*
X52830405Y-39758747D01*
X52878024Y-39853985D01*
X52925643Y-39901604D01*
X53020881Y-39949223D01*
X53211357Y-39949223D01*
X53306595Y-39996842D01*
X53354214Y-40044461D01*
X53401833Y-40139699D01*
X53401833Y-40330175D01*
X53354214Y-40425413D01*
X53306595Y-40473032D01*
X53211357Y-40520651D01*
X53020881Y-40520651D01*
X52925643Y-40473032D01*
X52878024Y-40425413D01*
X52830405Y-40330175D01*
X52830405Y-40139699D01*
X52878024Y-40044461D01*
X52925643Y-39996842D01*
X53020881Y-39949223D01*
G04 #@! TO.C,C39*
X48449452Y-35675413D02*
X48497071Y-35627794D01*
X48544690Y-35484937D01*
X48544690Y-35389699D01*
X48497071Y-35246842D01*
X48401833Y-35151604D01*
X48306595Y-35103985D01*
X48116119Y-35056366D01*
X47973262Y-35056366D01*
X47782786Y-35103985D01*
X47687548Y-35151604D01*
X47592310Y-35246842D01*
X47544690Y-35389699D01*
X47544690Y-35484937D01*
X47592310Y-35627794D01*
X47639929Y-35675413D01*
X47544690Y-36008747D02*
X47544690Y-36627794D01*
X47925643Y-36294461D01*
X47925643Y-36437318D01*
X47973262Y-36532556D01*
X48020881Y-36580175D01*
X48116119Y-36627794D01*
X48354214Y-36627794D01*
X48449452Y-36580175D01*
X48497071Y-36532556D01*
X48544690Y-36437318D01*
X48544690Y-36151604D01*
X48497071Y-36056366D01*
X48449452Y-36008747D01*
X48544690Y-37103985D02*
X48544690Y-37294461D01*
X48497071Y-37389699D01*
X48449452Y-37437318D01*
X48306595Y-37532556D01*
X48116119Y-37580175D01*
X47735167Y-37580175D01*
X47639929Y-37532556D01*
X47592310Y-37484937D01*
X47544690Y-37389699D01*
X47544690Y-37199223D01*
X47592310Y-37103985D01*
X47639929Y-37056366D01*
X47735167Y-37008747D01*
X47973262Y-37008747D01*
X48068500Y-37056366D01*
X48116119Y-37103985D01*
X48163738Y-37199223D01*
X48163738Y-37389699D01*
X48116119Y-37484937D01*
X48068500Y-37532556D01*
X47973262Y-37580175D01*
G04 #@! TO.C,C30*
X58668026Y-35675413D02*
X58715645Y-35627794D01*
X58763264Y-35484937D01*
X58763264Y-35389699D01*
X58715645Y-35246842D01*
X58620407Y-35151604D01*
X58525169Y-35103985D01*
X58334693Y-35056366D01*
X58191836Y-35056366D01*
X58001360Y-35103985D01*
X57906122Y-35151604D01*
X57810884Y-35246842D01*
X57763264Y-35389699D01*
X57763264Y-35484937D01*
X57810884Y-35627794D01*
X57858503Y-35675413D01*
X57763264Y-36008747D02*
X57763264Y-36627794D01*
X58144217Y-36294461D01*
X58144217Y-36437318D01*
X58191836Y-36532556D01*
X58239455Y-36580175D01*
X58334693Y-36627794D01*
X58572788Y-36627794D01*
X58668026Y-36580175D01*
X58715645Y-36532556D01*
X58763264Y-36437318D01*
X58763264Y-36151604D01*
X58715645Y-36056366D01*
X58668026Y-36008747D01*
X57763264Y-37246842D02*
X57763264Y-37342080D01*
X57810884Y-37437318D01*
X57858503Y-37484937D01*
X57953741Y-37532556D01*
X58144217Y-37580175D01*
X58382312Y-37580175D01*
X58572788Y-37532556D01*
X58668026Y-37484937D01*
X58715645Y-37437318D01*
X58763264Y-37342080D01*
X58763264Y-37246842D01*
X58715645Y-37151604D01*
X58668026Y-37103985D01*
X58572788Y-37056366D01*
X58382312Y-37008747D01*
X58144217Y-37008747D01*
X57953741Y-37056366D01*
X57858503Y-37103985D01*
X57810884Y-37151604D01*
X57763264Y-37246842D01*
G04 #@! TO.C,C34*
X39987384Y-55507339D02*
X40035003Y-55554958D01*
X40177860Y-55602577D01*
X40273098Y-55602577D01*
X40415955Y-55554958D01*
X40511193Y-55459720D01*
X40558812Y-55364482D01*
X40606431Y-55174006D01*
X40606431Y-55031149D01*
X40558812Y-54840673D01*
X40511193Y-54745435D01*
X40415955Y-54650197D01*
X40273098Y-54602577D01*
X40177860Y-54602577D01*
X40035003Y-54650197D01*
X39987384Y-54697816D01*
X39654050Y-54602577D02*
X39035003Y-54602577D01*
X39368336Y-54983530D01*
X39225479Y-54983530D01*
X39130241Y-55031149D01*
X39082622Y-55078768D01*
X39035003Y-55174006D01*
X39035003Y-55412101D01*
X39082622Y-55507339D01*
X39130241Y-55554958D01*
X39225479Y-55602577D01*
X39511193Y-55602577D01*
X39606431Y-55554958D01*
X39654050Y-55507339D01*
X38177860Y-54935911D02*
X38177860Y-55602577D01*
X38415955Y-54554958D02*
X38654050Y-55269244D01*
X38035003Y-55269244D01*
G04 #@! TO.C,C24*
X66250976Y-50327894D02*
X66298595Y-50375513D01*
X66441452Y-50423132D01*
X66536690Y-50423132D01*
X66679547Y-50375513D01*
X66774785Y-50280275D01*
X66822404Y-50185037D01*
X66870023Y-49994561D01*
X66870023Y-49851704D01*
X66822404Y-49661228D01*
X66774785Y-49565990D01*
X66679547Y-49470752D01*
X66536690Y-49423132D01*
X66441452Y-49423132D01*
X66298595Y-49470752D01*
X66250976Y-49518371D01*
X65870023Y-49518371D02*
X65822404Y-49470752D01*
X65727166Y-49423132D01*
X65489071Y-49423132D01*
X65393833Y-49470752D01*
X65346214Y-49518371D01*
X65298595Y-49613609D01*
X65298595Y-49708847D01*
X65346214Y-49851704D01*
X65917642Y-50423132D01*
X65298595Y-50423132D01*
X64441452Y-49756466D02*
X64441452Y-50423132D01*
X64679547Y-49375513D02*
X64917642Y-50089799D01*
X64298595Y-50089799D01*
G04 #@! TO.C,C23*
X58971399Y-50188557D02*
X59019018Y-50236176D01*
X59161875Y-50283795D01*
X59257113Y-50283795D01*
X59399970Y-50236176D01*
X59495208Y-50140938D01*
X59542827Y-50045700D01*
X59590446Y-49855224D01*
X59590446Y-49712367D01*
X59542827Y-49521891D01*
X59495208Y-49426653D01*
X59399970Y-49331415D01*
X59257113Y-49283795D01*
X59161875Y-49283795D01*
X59019018Y-49331415D01*
X58971399Y-49379034D01*
X58590446Y-49379034D02*
X58542827Y-49331415D01*
X58447589Y-49283795D01*
X58209494Y-49283795D01*
X58114256Y-49331415D01*
X58066637Y-49379034D01*
X58019018Y-49474272D01*
X58019018Y-49569510D01*
X58066637Y-49712367D01*
X58638065Y-50283795D01*
X58019018Y-50283795D01*
X57685684Y-49283795D02*
X57066637Y-49283795D01*
X57399970Y-49664748D01*
X57257113Y-49664748D01*
X57161875Y-49712367D01*
X57114256Y-49759986D01*
X57066637Y-49855224D01*
X57066637Y-50093319D01*
X57114256Y-50188557D01*
X57161875Y-50236176D01*
X57257113Y-50283795D01*
X57542827Y-50283795D01*
X57638065Y-50236176D01*
X57685684Y-50188557D01*
G04 #@! TO.C,C50*
X38032784Y-47709459D02*
X38080403Y-47757078D01*
X38223260Y-47804697D01*
X38318498Y-47804697D01*
X38461355Y-47757078D01*
X38556593Y-47661840D01*
X38604212Y-47566602D01*
X38651831Y-47376126D01*
X38651831Y-47233269D01*
X38604212Y-47042793D01*
X38556593Y-46947555D01*
X38461355Y-46852317D01*
X38318498Y-46804697D01*
X38223260Y-46804697D01*
X38080403Y-46852317D01*
X38032784Y-46899936D01*
X37128022Y-46804697D02*
X37604212Y-46804697D01*
X37651831Y-47280888D01*
X37604212Y-47233269D01*
X37508974Y-47185650D01*
X37270879Y-47185650D01*
X37175641Y-47233269D01*
X37128022Y-47280888D01*
X37080403Y-47376126D01*
X37080403Y-47614221D01*
X37128022Y-47709459D01*
X37175641Y-47757078D01*
X37270879Y-47804697D01*
X37508974Y-47804697D01*
X37604212Y-47757078D01*
X37651831Y-47709459D01*
X36461355Y-46804697D02*
X36366117Y-46804697D01*
X36270879Y-46852317D01*
X36223260Y-46899936D01*
X36175641Y-46995174D01*
X36128022Y-47185650D01*
X36128022Y-47423745D01*
X36175641Y-47614221D01*
X36223260Y-47709459D01*
X36270879Y-47757078D01*
X36366117Y-47804697D01*
X36461355Y-47804697D01*
X36556593Y-47757078D01*
X36604212Y-47709459D01*
X36651831Y-47614221D01*
X36699450Y-47423745D01*
X36699450Y-47185650D01*
X36651831Y-46995174D01*
X36604212Y-46899936D01*
X36556593Y-46852317D01*
X36461355Y-46804697D01*
G04 #@! TO.C,C44*
X50985167Y-36425413D02*
X51032786Y-36473032D01*
X51175643Y-36520651D01*
X51270881Y-36520651D01*
X51413738Y-36473032D01*
X51508976Y-36377794D01*
X51556595Y-36282556D01*
X51604214Y-36092080D01*
X51604214Y-35949223D01*
X51556595Y-35758747D01*
X51508976Y-35663509D01*
X51413738Y-35568271D01*
X51270881Y-35520651D01*
X51175643Y-35520651D01*
X51032786Y-35568271D01*
X50985167Y-35615890D01*
X50128024Y-35853985D02*
X50128024Y-36520651D01*
X50366119Y-35473032D02*
X50604214Y-36187318D01*
X49985167Y-36187318D01*
X49175643Y-35853985D02*
X49175643Y-36520651D01*
X49413738Y-35473032D02*
X49651833Y-36187318D01*
X49032786Y-36187318D01*
G04 #@! TO.C,C7*
X73199452Y-41901604D02*
X73247071Y-41853985D01*
X73294690Y-41711128D01*
X73294690Y-41615890D01*
X73247071Y-41473032D01*
X73151833Y-41377794D01*
X73056595Y-41330175D01*
X72866119Y-41282556D01*
X72723262Y-41282556D01*
X72532786Y-41330175D01*
X72437548Y-41377794D01*
X72342310Y-41473032D01*
X72294690Y-41615890D01*
X72294690Y-41711128D01*
X72342310Y-41853985D01*
X72389929Y-41901604D01*
X72294690Y-42234937D02*
X72294690Y-42901604D01*
X73294690Y-42473032D01*
G04 #@! TO.C,C10*
X56735167Y-36425413D02*
X56782786Y-36473032D01*
X56925643Y-36520651D01*
X57020881Y-36520651D01*
X57163738Y-36473032D01*
X57258976Y-36377794D01*
X57306595Y-36282556D01*
X57354214Y-36092080D01*
X57354214Y-35949223D01*
X57306595Y-35758747D01*
X57258976Y-35663509D01*
X57163738Y-35568271D01*
X57020881Y-35520651D01*
X56925643Y-35520651D01*
X56782786Y-35568271D01*
X56735167Y-35615890D01*
X55782786Y-36520651D02*
X56354214Y-36520651D01*
X56068500Y-36520651D02*
X56068500Y-35520651D01*
X56163738Y-35663509D01*
X56258976Y-35758747D01*
X56354214Y-35806366D01*
X55163738Y-35520651D02*
X55068500Y-35520651D01*
X54973262Y-35568271D01*
X54925643Y-35615890D01*
X54878024Y-35711128D01*
X54830405Y-35901604D01*
X54830405Y-36139699D01*
X54878024Y-36330175D01*
X54925643Y-36425413D01*
X54973262Y-36473032D01*
X55068500Y-36520651D01*
X55163738Y-36520651D01*
X55258976Y-36473032D01*
X55306595Y-36425413D01*
X55354214Y-36330175D01*
X55401833Y-36139699D01*
X55401833Y-35901604D01*
X55354214Y-35711128D01*
X55306595Y-35615890D01*
X55258976Y-35568271D01*
X55163738Y-35520651D01*
G04 #@! TO.C,C8*
X68258976Y-36425413D02*
X68306595Y-36473032D01*
X68449452Y-36520651D01*
X68544690Y-36520651D01*
X68687548Y-36473032D01*
X68782786Y-36377794D01*
X68830405Y-36282556D01*
X68878024Y-36092080D01*
X68878024Y-35949223D01*
X68830405Y-35758747D01*
X68782786Y-35663509D01*
X68687548Y-35568271D01*
X68544690Y-35520651D01*
X68449452Y-35520651D01*
X68306595Y-35568271D01*
X68258976Y-35615890D01*
X67687548Y-35949223D02*
X67782786Y-35901604D01*
X67830405Y-35853985D01*
X67878024Y-35758747D01*
X67878024Y-35711128D01*
X67830405Y-35615890D01*
X67782786Y-35568271D01*
X67687548Y-35520651D01*
X67497071Y-35520651D01*
X67401833Y-35568271D01*
X67354214Y-35615890D01*
X67306595Y-35711128D01*
X67306595Y-35758747D01*
X67354214Y-35853985D01*
X67401833Y-35901604D01*
X67497071Y-35949223D01*
X67687548Y-35949223D01*
X67782786Y-35996842D01*
X67830405Y-36044461D01*
X67878024Y-36139699D01*
X67878024Y-36330175D01*
X67830405Y-36425413D01*
X67782786Y-36473032D01*
X67687548Y-36520651D01*
X67497071Y-36520651D01*
X67401833Y-36473032D01*
X67354214Y-36425413D01*
X67306595Y-36330175D01*
X67306595Y-36139699D01*
X67354214Y-36044461D01*
X67401833Y-35996842D01*
X67497071Y-35949223D01*
G04 #@! TO.C,C43*
X55199452Y-41425413D02*
X55247071Y-41377794D01*
X55294690Y-41234937D01*
X55294690Y-41139699D01*
X55247071Y-40996842D01*
X55151833Y-40901604D01*
X55056595Y-40853985D01*
X54866119Y-40806366D01*
X54723262Y-40806366D01*
X54532786Y-40853985D01*
X54437548Y-40901604D01*
X54342310Y-40996842D01*
X54294690Y-41139699D01*
X54294690Y-41234937D01*
X54342310Y-41377794D01*
X54389929Y-41425413D01*
X54628024Y-42282556D02*
X55294690Y-42282556D01*
X54247071Y-42044461D02*
X54961357Y-41806366D01*
X54961357Y-42425413D01*
X54294690Y-42711128D02*
X54294690Y-43330175D01*
X54675643Y-42996842D01*
X54675643Y-43139699D01*
X54723262Y-43234937D01*
X54770881Y-43282556D01*
X54866119Y-43330175D01*
X55104214Y-43330175D01*
X55199452Y-43282556D01*
X55247071Y-43234937D01*
X55294690Y-43139699D01*
X55294690Y-42853985D01*
X55247071Y-42758747D01*
X55199452Y-42711128D01*
G04 #@! TO.C,C42*
X62735167Y-36425413D02*
X62782786Y-36473032D01*
X62925643Y-36520651D01*
X63020881Y-36520651D01*
X63163738Y-36473032D01*
X63258976Y-36377794D01*
X63306595Y-36282556D01*
X63354214Y-36092080D01*
X63354214Y-35949223D01*
X63306595Y-35758747D01*
X63258976Y-35663509D01*
X63163738Y-35568271D01*
X63020881Y-35520651D01*
X62925643Y-35520651D01*
X62782786Y-35568271D01*
X62735167Y-35615890D01*
X61878024Y-35853985D02*
X61878024Y-36520651D01*
X62116119Y-35473032D02*
X62354214Y-36187318D01*
X61735167Y-36187318D01*
X61401833Y-35615890D02*
X61354214Y-35568271D01*
X61258976Y-35520651D01*
X61020881Y-35520651D01*
X60925643Y-35568271D01*
X60878024Y-35615890D01*
X60830405Y-35711128D01*
X60830405Y-35806366D01*
X60878024Y-35949223D01*
X61449452Y-36520651D01*
X60830405Y-36520651D01*
G04 #@! TO.C,C41*
X67199452Y-41675413D02*
X67247071Y-41627794D01*
X67294690Y-41484937D01*
X67294690Y-41389699D01*
X67247071Y-41246842D01*
X67151833Y-41151604D01*
X67056595Y-41103985D01*
X66866119Y-41056366D01*
X66723262Y-41056366D01*
X66532786Y-41103985D01*
X66437548Y-41151604D01*
X66342310Y-41246842D01*
X66294690Y-41389699D01*
X66294690Y-41484937D01*
X66342310Y-41627794D01*
X66389929Y-41675413D01*
X66628024Y-42532556D02*
X67294690Y-42532556D01*
X66247071Y-42294461D02*
X66961357Y-42056366D01*
X66961357Y-42675413D01*
X67294690Y-43580175D02*
X67294690Y-43008747D01*
X67294690Y-43294461D02*
X66294690Y-43294461D01*
X66437548Y-43199223D01*
X66532786Y-43103985D01*
X66580405Y-43008747D01*
G04 #@! TO.C,C9*
X60485167Y-42234937D02*
X60437548Y-42282556D01*
X60389929Y-42425413D01*
X60389929Y-42520651D01*
X60437548Y-42663509D01*
X60532786Y-42758747D01*
X60628024Y-42806366D01*
X60818500Y-42853985D01*
X60961357Y-42853985D01*
X61151833Y-42806366D01*
X61247071Y-42758747D01*
X61342310Y-42663509D01*
X61389929Y-42520651D01*
X61389929Y-42425413D01*
X61342310Y-42282556D01*
X61294690Y-42234937D01*
X60389929Y-41758747D02*
X60389929Y-41568271D01*
X60437548Y-41473032D01*
X60485167Y-41425413D01*
X60628024Y-41330175D01*
X60818500Y-41282556D01*
X61199452Y-41282556D01*
X61294690Y-41330175D01*
X61342310Y-41377794D01*
X61389929Y-41473032D01*
X61389929Y-41663509D01*
X61342310Y-41758747D01*
X61294690Y-41806366D01*
X61199452Y-41853985D01*
X60961357Y-41853985D01*
X60866119Y-41806366D01*
X60818500Y-41758747D01*
X60770881Y-41663509D01*
X60770881Y-41473032D01*
X60818500Y-41377794D01*
X60866119Y-41330175D01*
X60961357Y-41282556D01*
G04 #@! TD*
M02*
