M48
;DRILL file {KiCad 5.0.2-bee76a0~70~ubuntu18.04.1} date Thu 10 Oct 2019 10:37:45 PM CDT
;FORMAT={-:-/ absolute / inch / decimal}
FMAT,2
INCH,TZ
T1C0.0157
T2C0.0197
T3C0.0394
T4C0.0906
%
G90
G05
T1
X0.8903Y-1.1083
X0.8903Y-1.3051
X0.8903Y-1.502
X0.8903Y-1.6988
X0.8903Y-1.8957
X0.8903Y-2.4862
X0.8903Y-2.8799
X0.8903Y-3.0768
X0.8903Y-3.2736
X0.8903Y-3.4705
X1.0482Y-2.2085
X1.0872Y-0.9114
X1.0872Y-1.1083
X1.0872Y-1.3051
X1.0872Y-1.502
X1.0872Y-1.6988
X1.0872Y-2.8799
X1.0872Y-3.0768
X1.0872Y-3.2736
X1.0872Y-3.4705
X1.0872Y-3.6673
X1.2399Y-2.0965
X1.284Y-0.9114
X1.284Y-1.1083
X1.284Y-1.3051
X1.284Y-1.502
X1.284Y-1.6988
X1.284Y-2.4862
X1.284Y-2.8799
X1.284Y-3.0768
X1.284Y-3.2736
X1.284Y-3.4705
X1.284Y-3.6673
X1.3817Y-2.2795
X1.408Y-2.3839
X1.4327Y-2.0395
X1.4809Y-0.9114
X1.4809Y-1.1083
X1.4809Y-1.3051
X1.4809Y-1.502
X1.4809Y-1.6988
X1.4809Y-2.8799
X1.4809Y-3.0768
X1.4809Y-3.2736
X1.4809Y-3.4705
X1.4809Y-3.6673
X1.6777Y-0.9114
X1.6777Y-1.1083
X1.6777Y-1.3051
X1.6777Y-2.8799
X1.6777Y-3.0768
X1.6777Y-3.2736
X1.6777Y-3.4705
X1.6777Y-3.6673
X1.7172Y-1.421
X1.7645Y-1.8878
X1.7723Y-1.4584
X1.795Y-1.42
X1.8245Y-1.0106
X1.8395Y-1.8878
X1.8645Y-1.6693
X1.8745Y-1.0499
X1.8746Y-0.9114
X1.8746Y-2.4862
X1.8746Y-2.6831
X1.8746Y-2.8799
X1.8746Y-3.0768
X1.8746Y-3.2736
X1.8746Y-3.4705
X1.8746Y-3.6673
X1.8895Y-1.7914
X1.9245Y-1.0893
X1.9245Y-1.4988
X1.944Y-1.9371
X1.9745Y-1.1287
X1.9745Y-1.4767
X2.019Y-1.4673
X2.0277Y-2.8616
X2.0312Y-1.42
X2.0607Y-1.0106
X2.0714Y-1.8957
X2.0857Y-1.1287
X2.1107Y-1.0499
X2.1607Y-1.0893
X2.2107Y-1.1287
X2.2107Y-1.4767
X2.2552Y-1.4673
X2.2654Y-1.42
X2.2683Y-1.8957
X2.2683Y-2.8799
X2.2969Y-1.0106
X2.3469Y-1.0499
X2.385Y-1.8557
X2.3969Y-1.0893
X2.4293Y-1.8412
X2.4469Y-1.1287
X2.4469Y-1.4767
X2.4651Y-2.4862
X2.4651Y-2.6831
X2.4651Y-2.8799
X2.4651Y-3.4705
X2.4651Y-3.6673
X2.4908Y-1.4682
X2.5036Y-1.42
X2.5332Y-1.0106
X2.5591Y-1.1287
X2.5832Y-1.0499
X2.6332Y-1.0893
X2.646Y-1.7415
X2.662Y-0.9114
X2.662Y-2.6831
X2.662Y-2.8799
X2.662Y-3.4705
X2.662Y-3.6673
X2.6716Y-1.8557
X2.6832Y-1.1287
X2.6832Y-1.4767
X2.6972Y-1.7415
X2.7159Y-1.8432
X2.7546Y-1.3073
X2.8588Y-0.9114
X2.8588Y-1.1083
X2.8588Y-1.3051
X2.8588Y-1.502
X2.8588Y-1.8957
X2.8588Y-2.0925
X2.8588Y-2.2894
X2.8588Y-2.6831
X2.8588Y-2.8799
X2.8588Y-3.0768
X2.8588Y-3.4705
X2.8588Y-3.6673
T2
X2.1788Y-0.8137
X2.1788Y-0.8531
T3
X0.8212Y-2.1297
X0.9212Y-2.1297
X0.8212Y-2.2872
X0.9212Y-2.2872
X0.9399Y-2.6516
X1.0399Y-2.6516
X1.1399Y-2.6516
X1.2399Y-2.6516
X1.3399Y-2.6516
X1.4399Y-2.6516
X1.5399Y-2.6516
X1.6399Y-2.6516
X1.7399Y-2.6516
T4
X2.7624Y-2.1944
X2.7624Y-2.4944
X2.7624Y-2.9385
X2.7624Y-3.2385
T0
M30
