G04 #@! TF.GenerationSoftware,KiCad,Pcbnew,5.0.2-bee76a0~70~ubuntu18.04.1*
G04 #@! TF.CreationDate,2019-10-10T22:37:19-05:00*
G04 #@! TF.ProjectId,nvmeter,6e766d65-7465-4722-9e6b-696361645f70,rev?*
G04 #@! TF.SameCoordinates,Original*
G04 #@! TF.FileFunction,Paste,Bot*
G04 #@! TF.FilePolarity,Positive*
%FSLAX46Y46*%
G04 Gerber Fmt 4.6, Leading zero omitted, Abs format (unit mm)*
G04 Created by KiCad (PCBNEW 5.0.2-bee76a0~70~ubuntu18.04.1) date Thu 10 Oct 2019 10:37:19 PM CDT*
%MOMM*%
%LPD*%
G01*
G04 APERTURE LIST*
%ADD10C,0.100000*%
%ADD11C,0.950000*%
%ADD12C,1.150000*%
%ADD13C,1.425000*%
G04 APERTURE END LIST*
D10*
G04 #@! TO.C,C31*
G36*
X50528089Y-38094415D02*
X50551144Y-38097834D01*
X50573753Y-38103498D01*
X50595697Y-38111350D01*
X50616767Y-38121315D01*
X50636758Y-38133297D01*
X50655478Y-38147181D01*
X50672748Y-38162833D01*
X50688400Y-38180103D01*
X50702284Y-38198823D01*
X50714266Y-38218814D01*
X50724231Y-38239884D01*
X50732083Y-38261828D01*
X50737747Y-38284437D01*
X50741166Y-38307492D01*
X50742310Y-38330771D01*
X50742310Y-38805771D01*
X50741166Y-38829050D01*
X50737747Y-38852105D01*
X50732083Y-38874714D01*
X50724231Y-38896658D01*
X50714266Y-38917728D01*
X50702284Y-38937719D01*
X50688400Y-38956439D01*
X50672748Y-38973709D01*
X50655478Y-38989361D01*
X50636758Y-39003245D01*
X50616767Y-39015227D01*
X50595697Y-39025192D01*
X50573753Y-39033044D01*
X50551144Y-39038708D01*
X50528089Y-39042127D01*
X50504810Y-39043271D01*
X49929810Y-39043271D01*
X49906531Y-39042127D01*
X49883476Y-39038708D01*
X49860867Y-39033044D01*
X49838923Y-39025192D01*
X49817853Y-39015227D01*
X49797862Y-39003245D01*
X49779142Y-38989361D01*
X49761872Y-38973709D01*
X49746220Y-38956439D01*
X49732336Y-38937719D01*
X49720354Y-38917728D01*
X49710389Y-38896658D01*
X49702537Y-38874714D01*
X49696873Y-38852105D01*
X49693454Y-38829050D01*
X49692310Y-38805771D01*
X49692310Y-38330771D01*
X49693454Y-38307492D01*
X49696873Y-38284437D01*
X49702537Y-38261828D01*
X49710389Y-38239884D01*
X49720354Y-38218814D01*
X49732336Y-38198823D01*
X49746220Y-38180103D01*
X49761872Y-38162833D01*
X49779142Y-38147181D01*
X49797862Y-38133297D01*
X49817853Y-38121315D01*
X49838923Y-38111350D01*
X49860867Y-38103498D01*
X49883476Y-38097834D01*
X49906531Y-38094415D01*
X49929810Y-38093271D01*
X50504810Y-38093271D01*
X50528089Y-38094415D01*
X50528089Y-38094415D01*
G37*
D11*
X50217310Y-38568271D03*
D10*
G36*
X52278089Y-38094415D02*
X52301144Y-38097834D01*
X52323753Y-38103498D01*
X52345697Y-38111350D01*
X52366767Y-38121315D01*
X52386758Y-38133297D01*
X52405478Y-38147181D01*
X52422748Y-38162833D01*
X52438400Y-38180103D01*
X52452284Y-38198823D01*
X52464266Y-38218814D01*
X52474231Y-38239884D01*
X52482083Y-38261828D01*
X52487747Y-38284437D01*
X52491166Y-38307492D01*
X52492310Y-38330771D01*
X52492310Y-38805771D01*
X52491166Y-38829050D01*
X52487747Y-38852105D01*
X52482083Y-38874714D01*
X52474231Y-38896658D01*
X52464266Y-38917728D01*
X52452284Y-38937719D01*
X52438400Y-38956439D01*
X52422748Y-38973709D01*
X52405478Y-38989361D01*
X52386758Y-39003245D01*
X52366767Y-39015227D01*
X52345697Y-39025192D01*
X52323753Y-39033044D01*
X52301144Y-39038708D01*
X52278089Y-39042127D01*
X52254810Y-39043271D01*
X51679810Y-39043271D01*
X51656531Y-39042127D01*
X51633476Y-39038708D01*
X51610867Y-39033044D01*
X51588923Y-39025192D01*
X51567853Y-39015227D01*
X51547862Y-39003245D01*
X51529142Y-38989361D01*
X51511872Y-38973709D01*
X51496220Y-38956439D01*
X51482336Y-38937719D01*
X51470354Y-38917728D01*
X51460389Y-38896658D01*
X51452537Y-38874714D01*
X51446873Y-38852105D01*
X51443454Y-38829050D01*
X51442310Y-38805771D01*
X51442310Y-38330771D01*
X51443454Y-38307492D01*
X51446873Y-38284437D01*
X51452537Y-38261828D01*
X51460389Y-38239884D01*
X51470354Y-38218814D01*
X51482336Y-38198823D01*
X51496220Y-38180103D01*
X51511872Y-38162833D01*
X51529142Y-38147181D01*
X51547862Y-38133297D01*
X51567853Y-38121315D01*
X51588923Y-38111350D01*
X51610867Y-38103498D01*
X51633476Y-38097834D01*
X51656531Y-38094415D01*
X51679810Y-38093271D01*
X52254810Y-38093271D01*
X52278089Y-38094415D01*
X52278089Y-38094415D01*
G37*
D11*
X51967310Y-38568271D03*
G04 #@! TD*
D10*
G04 #@! TO.C,C27*
G36*
X61014321Y-47607559D02*
X61037376Y-47610978D01*
X61059985Y-47616642D01*
X61081929Y-47624494D01*
X61102999Y-47634459D01*
X61122990Y-47646441D01*
X61141710Y-47660325D01*
X61158980Y-47675977D01*
X61174632Y-47693247D01*
X61188516Y-47711967D01*
X61200498Y-47731958D01*
X61210463Y-47753028D01*
X61218315Y-47774972D01*
X61223979Y-47797581D01*
X61227398Y-47820636D01*
X61228542Y-47843915D01*
X61228542Y-48318915D01*
X61227398Y-48342194D01*
X61223979Y-48365249D01*
X61218315Y-48387858D01*
X61210463Y-48409802D01*
X61200498Y-48430872D01*
X61188516Y-48450863D01*
X61174632Y-48469583D01*
X61158980Y-48486853D01*
X61141710Y-48502505D01*
X61122990Y-48516389D01*
X61102999Y-48528371D01*
X61081929Y-48538336D01*
X61059985Y-48546188D01*
X61037376Y-48551852D01*
X61014321Y-48555271D01*
X60991042Y-48556415D01*
X60416042Y-48556415D01*
X60392763Y-48555271D01*
X60369708Y-48551852D01*
X60347099Y-48546188D01*
X60325155Y-48538336D01*
X60304085Y-48528371D01*
X60284094Y-48516389D01*
X60265374Y-48502505D01*
X60248104Y-48486853D01*
X60232452Y-48469583D01*
X60218568Y-48450863D01*
X60206586Y-48430872D01*
X60196621Y-48409802D01*
X60188769Y-48387858D01*
X60183105Y-48365249D01*
X60179686Y-48342194D01*
X60178542Y-48318915D01*
X60178542Y-47843915D01*
X60179686Y-47820636D01*
X60183105Y-47797581D01*
X60188769Y-47774972D01*
X60196621Y-47753028D01*
X60206586Y-47731958D01*
X60218568Y-47711967D01*
X60232452Y-47693247D01*
X60248104Y-47675977D01*
X60265374Y-47660325D01*
X60284094Y-47646441D01*
X60304085Y-47634459D01*
X60325155Y-47624494D01*
X60347099Y-47616642D01*
X60369708Y-47610978D01*
X60392763Y-47607559D01*
X60416042Y-47606415D01*
X60991042Y-47606415D01*
X61014321Y-47607559D01*
X61014321Y-47607559D01*
G37*
D11*
X60703542Y-48081415D03*
D10*
G36*
X62764321Y-47607559D02*
X62787376Y-47610978D01*
X62809985Y-47616642D01*
X62831929Y-47624494D01*
X62852999Y-47634459D01*
X62872990Y-47646441D01*
X62891710Y-47660325D01*
X62908980Y-47675977D01*
X62924632Y-47693247D01*
X62938516Y-47711967D01*
X62950498Y-47731958D01*
X62960463Y-47753028D01*
X62968315Y-47774972D01*
X62973979Y-47797581D01*
X62977398Y-47820636D01*
X62978542Y-47843915D01*
X62978542Y-48318915D01*
X62977398Y-48342194D01*
X62973979Y-48365249D01*
X62968315Y-48387858D01*
X62960463Y-48409802D01*
X62950498Y-48430872D01*
X62938516Y-48450863D01*
X62924632Y-48469583D01*
X62908980Y-48486853D01*
X62891710Y-48502505D01*
X62872990Y-48516389D01*
X62852999Y-48528371D01*
X62831929Y-48538336D01*
X62809985Y-48546188D01*
X62787376Y-48551852D01*
X62764321Y-48555271D01*
X62741042Y-48556415D01*
X62166042Y-48556415D01*
X62142763Y-48555271D01*
X62119708Y-48551852D01*
X62097099Y-48546188D01*
X62075155Y-48538336D01*
X62054085Y-48528371D01*
X62034094Y-48516389D01*
X62015374Y-48502505D01*
X61998104Y-48486853D01*
X61982452Y-48469583D01*
X61968568Y-48450863D01*
X61956586Y-48430872D01*
X61946621Y-48409802D01*
X61938769Y-48387858D01*
X61933105Y-48365249D01*
X61929686Y-48342194D01*
X61928542Y-48318915D01*
X61928542Y-47843915D01*
X61929686Y-47820636D01*
X61933105Y-47797581D01*
X61938769Y-47774972D01*
X61946621Y-47753028D01*
X61956586Y-47731958D01*
X61968568Y-47711967D01*
X61982452Y-47693247D01*
X61998104Y-47675977D01*
X62015374Y-47660325D01*
X62034094Y-47646441D01*
X62054085Y-47634459D01*
X62075155Y-47624494D01*
X62097099Y-47616642D01*
X62119708Y-47610978D01*
X62142763Y-47607559D01*
X62166042Y-47606415D01*
X62741042Y-47606415D01*
X62764321Y-47607559D01*
X62764321Y-47607559D01*
G37*
D11*
X62453542Y-48081415D03*
G04 #@! TD*
D10*
G04 #@! TO.C,C28*
G36*
X68293898Y-47660930D02*
X68316953Y-47664349D01*
X68339562Y-47670013D01*
X68361506Y-47677865D01*
X68382576Y-47687830D01*
X68402567Y-47699812D01*
X68421287Y-47713696D01*
X68438557Y-47729348D01*
X68454209Y-47746618D01*
X68468093Y-47765338D01*
X68480075Y-47785329D01*
X68490040Y-47806399D01*
X68497892Y-47828343D01*
X68503556Y-47850952D01*
X68506975Y-47874007D01*
X68508119Y-47897286D01*
X68508119Y-48372286D01*
X68506975Y-48395565D01*
X68503556Y-48418620D01*
X68497892Y-48441229D01*
X68490040Y-48463173D01*
X68480075Y-48484243D01*
X68468093Y-48504234D01*
X68454209Y-48522954D01*
X68438557Y-48540224D01*
X68421287Y-48555876D01*
X68402567Y-48569760D01*
X68382576Y-48581742D01*
X68361506Y-48591707D01*
X68339562Y-48599559D01*
X68316953Y-48605223D01*
X68293898Y-48608642D01*
X68270619Y-48609786D01*
X67695619Y-48609786D01*
X67672340Y-48608642D01*
X67649285Y-48605223D01*
X67626676Y-48599559D01*
X67604732Y-48591707D01*
X67583662Y-48581742D01*
X67563671Y-48569760D01*
X67544951Y-48555876D01*
X67527681Y-48540224D01*
X67512029Y-48522954D01*
X67498145Y-48504234D01*
X67486163Y-48484243D01*
X67476198Y-48463173D01*
X67468346Y-48441229D01*
X67462682Y-48418620D01*
X67459263Y-48395565D01*
X67458119Y-48372286D01*
X67458119Y-47897286D01*
X67459263Y-47874007D01*
X67462682Y-47850952D01*
X67468346Y-47828343D01*
X67476198Y-47806399D01*
X67486163Y-47785329D01*
X67498145Y-47765338D01*
X67512029Y-47746618D01*
X67527681Y-47729348D01*
X67544951Y-47713696D01*
X67563671Y-47699812D01*
X67583662Y-47687830D01*
X67604732Y-47677865D01*
X67626676Y-47670013D01*
X67649285Y-47664349D01*
X67672340Y-47660930D01*
X67695619Y-47659786D01*
X68270619Y-47659786D01*
X68293898Y-47660930D01*
X68293898Y-47660930D01*
G37*
D11*
X67983119Y-48134786D03*
D10*
G36*
X70043898Y-47660930D02*
X70066953Y-47664349D01*
X70089562Y-47670013D01*
X70111506Y-47677865D01*
X70132576Y-47687830D01*
X70152567Y-47699812D01*
X70171287Y-47713696D01*
X70188557Y-47729348D01*
X70204209Y-47746618D01*
X70218093Y-47765338D01*
X70230075Y-47785329D01*
X70240040Y-47806399D01*
X70247892Y-47828343D01*
X70253556Y-47850952D01*
X70256975Y-47874007D01*
X70258119Y-47897286D01*
X70258119Y-48372286D01*
X70256975Y-48395565D01*
X70253556Y-48418620D01*
X70247892Y-48441229D01*
X70240040Y-48463173D01*
X70230075Y-48484243D01*
X70218093Y-48504234D01*
X70204209Y-48522954D01*
X70188557Y-48540224D01*
X70171287Y-48555876D01*
X70152567Y-48569760D01*
X70132576Y-48581742D01*
X70111506Y-48591707D01*
X70089562Y-48599559D01*
X70066953Y-48605223D01*
X70043898Y-48608642D01*
X70020619Y-48609786D01*
X69445619Y-48609786D01*
X69422340Y-48608642D01*
X69399285Y-48605223D01*
X69376676Y-48599559D01*
X69354732Y-48591707D01*
X69333662Y-48581742D01*
X69313671Y-48569760D01*
X69294951Y-48555876D01*
X69277681Y-48540224D01*
X69262029Y-48522954D01*
X69248145Y-48504234D01*
X69236163Y-48484243D01*
X69226198Y-48463173D01*
X69218346Y-48441229D01*
X69212682Y-48418620D01*
X69209263Y-48395565D01*
X69208119Y-48372286D01*
X69208119Y-47897286D01*
X69209263Y-47874007D01*
X69212682Y-47850952D01*
X69218346Y-47828343D01*
X69226198Y-47806399D01*
X69236163Y-47785329D01*
X69248145Y-47765338D01*
X69262029Y-47746618D01*
X69277681Y-47729348D01*
X69294951Y-47713696D01*
X69313671Y-47699812D01*
X69333662Y-47687830D01*
X69354732Y-47677865D01*
X69376676Y-47670013D01*
X69399285Y-47664349D01*
X69422340Y-47660930D01*
X69445619Y-47659786D01*
X70020619Y-47659786D01*
X70043898Y-47660930D01*
X70043898Y-47660930D01*
G37*
D11*
X69733119Y-48134786D03*
G04 #@! TD*
D10*
G04 #@! TO.C,C13*
G36*
X68528089Y-39594415D02*
X68551144Y-39597834D01*
X68573753Y-39603498D01*
X68595697Y-39611350D01*
X68616767Y-39621315D01*
X68636758Y-39633297D01*
X68655478Y-39647181D01*
X68672748Y-39662833D01*
X68688400Y-39680103D01*
X68702284Y-39698823D01*
X68714266Y-39718814D01*
X68724231Y-39739884D01*
X68732083Y-39761828D01*
X68737747Y-39784437D01*
X68741166Y-39807492D01*
X68742310Y-39830771D01*
X68742310Y-40305771D01*
X68741166Y-40329050D01*
X68737747Y-40352105D01*
X68732083Y-40374714D01*
X68724231Y-40396658D01*
X68714266Y-40417728D01*
X68702284Y-40437719D01*
X68688400Y-40456439D01*
X68672748Y-40473709D01*
X68655478Y-40489361D01*
X68636758Y-40503245D01*
X68616767Y-40515227D01*
X68595697Y-40525192D01*
X68573753Y-40533044D01*
X68551144Y-40538708D01*
X68528089Y-40542127D01*
X68504810Y-40543271D01*
X67929810Y-40543271D01*
X67906531Y-40542127D01*
X67883476Y-40538708D01*
X67860867Y-40533044D01*
X67838923Y-40525192D01*
X67817853Y-40515227D01*
X67797862Y-40503245D01*
X67779142Y-40489361D01*
X67761872Y-40473709D01*
X67746220Y-40456439D01*
X67732336Y-40437719D01*
X67720354Y-40417728D01*
X67710389Y-40396658D01*
X67702537Y-40374714D01*
X67696873Y-40352105D01*
X67693454Y-40329050D01*
X67692310Y-40305771D01*
X67692310Y-39830771D01*
X67693454Y-39807492D01*
X67696873Y-39784437D01*
X67702537Y-39761828D01*
X67710389Y-39739884D01*
X67720354Y-39718814D01*
X67732336Y-39698823D01*
X67746220Y-39680103D01*
X67761872Y-39662833D01*
X67779142Y-39647181D01*
X67797862Y-39633297D01*
X67817853Y-39621315D01*
X67838923Y-39611350D01*
X67860867Y-39603498D01*
X67883476Y-39597834D01*
X67906531Y-39594415D01*
X67929810Y-39593271D01*
X68504810Y-39593271D01*
X68528089Y-39594415D01*
X68528089Y-39594415D01*
G37*
D11*
X68217310Y-40068271D03*
D10*
G36*
X70278089Y-39594415D02*
X70301144Y-39597834D01*
X70323753Y-39603498D01*
X70345697Y-39611350D01*
X70366767Y-39621315D01*
X70386758Y-39633297D01*
X70405478Y-39647181D01*
X70422748Y-39662833D01*
X70438400Y-39680103D01*
X70452284Y-39698823D01*
X70464266Y-39718814D01*
X70474231Y-39739884D01*
X70482083Y-39761828D01*
X70487747Y-39784437D01*
X70491166Y-39807492D01*
X70492310Y-39830771D01*
X70492310Y-40305771D01*
X70491166Y-40329050D01*
X70487747Y-40352105D01*
X70482083Y-40374714D01*
X70474231Y-40396658D01*
X70464266Y-40417728D01*
X70452284Y-40437719D01*
X70438400Y-40456439D01*
X70422748Y-40473709D01*
X70405478Y-40489361D01*
X70386758Y-40503245D01*
X70366767Y-40515227D01*
X70345697Y-40525192D01*
X70323753Y-40533044D01*
X70301144Y-40538708D01*
X70278089Y-40542127D01*
X70254810Y-40543271D01*
X69679810Y-40543271D01*
X69656531Y-40542127D01*
X69633476Y-40538708D01*
X69610867Y-40533044D01*
X69588923Y-40525192D01*
X69567853Y-40515227D01*
X69547862Y-40503245D01*
X69529142Y-40489361D01*
X69511872Y-40473709D01*
X69496220Y-40456439D01*
X69482336Y-40437719D01*
X69470354Y-40417728D01*
X69460389Y-40396658D01*
X69452537Y-40374714D01*
X69446873Y-40352105D01*
X69443454Y-40329050D01*
X69442310Y-40305771D01*
X69442310Y-39830771D01*
X69443454Y-39807492D01*
X69446873Y-39784437D01*
X69452537Y-39761828D01*
X69460389Y-39739884D01*
X69470354Y-39718814D01*
X69482336Y-39698823D01*
X69496220Y-39680103D01*
X69511872Y-39662833D01*
X69529142Y-39647181D01*
X69547862Y-39633297D01*
X69567853Y-39621315D01*
X69588923Y-39611350D01*
X69610867Y-39603498D01*
X69633476Y-39597834D01*
X69656531Y-39594415D01*
X69679810Y-39593271D01*
X70254810Y-39593271D01*
X70278089Y-39594415D01*
X70278089Y-39594415D01*
G37*
D11*
X69967310Y-40068271D03*
G04 #@! TD*
D10*
G04 #@! TO.C,C54*
G36*
X50665626Y-48702401D02*
X50688681Y-48705820D01*
X50711290Y-48711484D01*
X50733234Y-48719336D01*
X50754304Y-48729301D01*
X50774295Y-48741283D01*
X50793015Y-48755167D01*
X50810285Y-48770819D01*
X50825937Y-48788089D01*
X50839821Y-48806809D01*
X50851803Y-48826800D01*
X50861768Y-48847870D01*
X50869620Y-48869814D01*
X50875284Y-48892423D01*
X50878703Y-48915478D01*
X50879847Y-48938757D01*
X50879847Y-49513757D01*
X50878703Y-49537036D01*
X50875284Y-49560091D01*
X50869620Y-49582700D01*
X50861768Y-49604644D01*
X50851803Y-49625714D01*
X50839821Y-49645705D01*
X50825937Y-49664425D01*
X50810285Y-49681695D01*
X50793015Y-49697347D01*
X50774295Y-49711231D01*
X50754304Y-49723213D01*
X50733234Y-49733178D01*
X50711290Y-49741030D01*
X50688681Y-49746694D01*
X50665626Y-49750113D01*
X50642347Y-49751257D01*
X50167347Y-49751257D01*
X50144068Y-49750113D01*
X50121013Y-49746694D01*
X50098404Y-49741030D01*
X50076460Y-49733178D01*
X50055390Y-49723213D01*
X50035399Y-49711231D01*
X50016679Y-49697347D01*
X49999409Y-49681695D01*
X49983757Y-49664425D01*
X49969873Y-49645705D01*
X49957891Y-49625714D01*
X49947926Y-49604644D01*
X49940074Y-49582700D01*
X49934410Y-49560091D01*
X49930991Y-49537036D01*
X49929847Y-49513757D01*
X49929847Y-48938757D01*
X49930991Y-48915478D01*
X49934410Y-48892423D01*
X49940074Y-48869814D01*
X49947926Y-48847870D01*
X49957891Y-48826800D01*
X49969873Y-48806809D01*
X49983757Y-48788089D01*
X49999409Y-48770819D01*
X50016679Y-48755167D01*
X50035399Y-48741283D01*
X50055390Y-48729301D01*
X50076460Y-48719336D01*
X50098404Y-48711484D01*
X50121013Y-48705820D01*
X50144068Y-48702401D01*
X50167347Y-48701257D01*
X50642347Y-48701257D01*
X50665626Y-48702401D01*
X50665626Y-48702401D01*
G37*
D11*
X50404847Y-49226257D03*
D10*
G36*
X50665626Y-46952401D02*
X50688681Y-46955820D01*
X50711290Y-46961484D01*
X50733234Y-46969336D01*
X50754304Y-46979301D01*
X50774295Y-46991283D01*
X50793015Y-47005167D01*
X50810285Y-47020819D01*
X50825937Y-47038089D01*
X50839821Y-47056809D01*
X50851803Y-47076800D01*
X50861768Y-47097870D01*
X50869620Y-47119814D01*
X50875284Y-47142423D01*
X50878703Y-47165478D01*
X50879847Y-47188757D01*
X50879847Y-47763757D01*
X50878703Y-47787036D01*
X50875284Y-47810091D01*
X50869620Y-47832700D01*
X50861768Y-47854644D01*
X50851803Y-47875714D01*
X50839821Y-47895705D01*
X50825937Y-47914425D01*
X50810285Y-47931695D01*
X50793015Y-47947347D01*
X50774295Y-47961231D01*
X50754304Y-47973213D01*
X50733234Y-47983178D01*
X50711290Y-47991030D01*
X50688681Y-47996694D01*
X50665626Y-48000113D01*
X50642347Y-48001257D01*
X50167347Y-48001257D01*
X50144068Y-48000113D01*
X50121013Y-47996694D01*
X50098404Y-47991030D01*
X50076460Y-47983178D01*
X50055390Y-47973213D01*
X50035399Y-47961231D01*
X50016679Y-47947347D01*
X49999409Y-47931695D01*
X49983757Y-47914425D01*
X49969873Y-47895705D01*
X49957891Y-47875714D01*
X49947926Y-47854644D01*
X49940074Y-47832700D01*
X49934410Y-47810091D01*
X49930991Y-47787036D01*
X49929847Y-47763757D01*
X49929847Y-47188757D01*
X49930991Y-47165478D01*
X49934410Y-47142423D01*
X49940074Y-47119814D01*
X49947926Y-47097870D01*
X49957891Y-47076800D01*
X49969873Y-47056809D01*
X49983757Y-47038089D01*
X49999409Y-47020819D01*
X50016679Y-47005167D01*
X50035399Y-46991283D01*
X50055390Y-46979301D01*
X50076460Y-46969336D01*
X50098404Y-46961484D01*
X50121013Y-46955820D01*
X50144068Y-46952401D01*
X50167347Y-46951257D01*
X50642347Y-46951257D01*
X50665626Y-46952401D01*
X50665626Y-46952401D01*
G37*
D11*
X50404847Y-47476257D03*
G04 #@! TD*
D10*
G04 #@! TO.C,C15*
G36*
X56542385Y-39594415D02*
X56565440Y-39597834D01*
X56588049Y-39603498D01*
X56609993Y-39611350D01*
X56631063Y-39621315D01*
X56651054Y-39633297D01*
X56669774Y-39647181D01*
X56687044Y-39662833D01*
X56702696Y-39680103D01*
X56716580Y-39698823D01*
X56728562Y-39718814D01*
X56738527Y-39739884D01*
X56746379Y-39761828D01*
X56752043Y-39784437D01*
X56755462Y-39807492D01*
X56756606Y-39830771D01*
X56756606Y-40305771D01*
X56755462Y-40329050D01*
X56752043Y-40352105D01*
X56746379Y-40374714D01*
X56738527Y-40396658D01*
X56728562Y-40417728D01*
X56716580Y-40437719D01*
X56702696Y-40456439D01*
X56687044Y-40473709D01*
X56669774Y-40489361D01*
X56651054Y-40503245D01*
X56631063Y-40515227D01*
X56609993Y-40525192D01*
X56588049Y-40533044D01*
X56565440Y-40538708D01*
X56542385Y-40542127D01*
X56519106Y-40543271D01*
X55944106Y-40543271D01*
X55920827Y-40542127D01*
X55897772Y-40538708D01*
X55875163Y-40533044D01*
X55853219Y-40525192D01*
X55832149Y-40515227D01*
X55812158Y-40503245D01*
X55793438Y-40489361D01*
X55776168Y-40473709D01*
X55760516Y-40456439D01*
X55746632Y-40437719D01*
X55734650Y-40417728D01*
X55724685Y-40396658D01*
X55716833Y-40374714D01*
X55711169Y-40352105D01*
X55707750Y-40329050D01*
X55706606Y-40305771D01*
X55706606Y-39830771D01*
X55707750Y-39807492D01*
X55711169Y-39784437D01*
X55716833Y-39761828D01*
X55724685Y-39739884D01*
X55734650Y-39718814D01*
X55746632Y-39698823D01*
X55760516Y-39680103D01*
X55776168Y-39662833D01*
X55793438Y-39647181D01*
X55812158Y-39633297D01*
X55832149Y-39621315D01*
X55853219Y-39611350D01*
X55875163Y-39603498D01*
X55897772Y-39597834D01*
X55920827Y-39594415D01*
X55944106Y-39593271D01*
X56519106Y-39593271D01*
X56542385Y-39594415D01*
X56542385Y-39594415D01*
G37*
D11*
X56231606Y-40068271D03*
D10*
G36*
X58292385Y-39594415D02*
X58315440Y-39597834D01*
X58338049Y-39603498D01*
X58359993Y-39611350D01*
X58381063Y-39621315D01*
X58401054Y-39633297D01*
X58419774Y-39647181D01*
X58437044Y-39662833D01*
X58452696Y-39680103D01*
X58466580Y-39698823D01*
X58478562Y-39718814D01*
X58488527Y-39739884D01*
X58496379Y-39761828D01*
X58502043Y-39784437D01*
X58505462Y-39807492D01*
X58506606Y-39830771D01*
X58506606Y-40305771D01*
X58505462Y-40329050D01*
X58502043Y-40352105D01*
X58496379Y-40374714D01*
X58488527Y-40396658D01*
X58478562Y-40417728D01*
X58466580Y-40437719D01*
X58452696Y-40456439D01*
X58437044Y-40473709D01*
X58419774Y-40489361D01*
X58401054Y-40503245D01*
X58381063Y-40515227D01*
X58359993Y-40525192D01*
X58338049Y-40533044D01*
X58315440Y-40538708D01*
X58292385Y-40542127D01*
X58269106Y-40543271D01*
X57694106Y-40543271D01*
X57670827Y-40542127D01*
X57647772Y-40538708D01*
X57625163Y-40533044D01*
X57603219Y-40525192D01*
X57582149Y-40515227D01*
X57562158Y-40503245D01*
X57543438Y-40489361D01*
X57526168Y-40473709D01*
X57510516Y-40456439D01*
X57496632Y-40437719D01*
X57484650Y-40417728D01*
X57474685Y-40396658D01*
X57466833Y-40374714D01*
X57461169Y-40352105D01*
X57457750Y-40329050D01*
X57456606Y-40305771D01*
X57456606Y-39830771D01*
X57457750Y-39807492D01*
X57461169Y-39784437D01*
X57466833Y-39761828D01*
X57474685Y-39739884D01*
X57484650Y-39718814D01*
X57496632Y-39698823D01*
X57510516Y-39680103D01*
X57526168Y-39662833D01*
X57543438Y-39647181D01*
X57562158Y-39633297D01*
X57582149Y-39621315D01*
X57603219Y-39611350D01*
X57625163Y-39603498D01*
X57647772Y-39597834D01*
X57670827Y-39594415D01*
X57694106Y-39593271D01*
X58269106Y-39593271D01*
X58292385Y-39594415D01*
X58292385Y-39594415D01*
G37*
D11*
X57981606Y-40068271D03*
G04 #@! TD*
D10*
G04 #@! TO.C,C16*
G36*
X54299238Y-31919415D02*
X54322293Y-31922834D01*
X54344902Y-31928498D01*
X54366846Y-31936350D01*
X54387916Y-31946315D01*
X54407907Y-31958297D01*
X54426627Y-31972181D01*
X54443897Y-31987833D01*
X54459549Y-32005103D01*
X54473433Y-32023823D01*
X54485415Y-32043814D01*
X54495380Y-32064884D01*
X54503232Y-32086828D01*
X54508896Y-32109437D01*
X54512315Y-32132492D01*
X54513459Y-32155771D01*
X54513459Y-32730771D01*
X54512315Y-32754050D01*
X54508896Y-32777105D01*
X54503232Y-32799714D01*
X54495380Y-32821658D01*
X54485415Y-32842728D01*
X54473433Y-32862719D01*
X54459549Y-32881439D01*
X54443897Y-32898709D01*
X54426627Y-32914361D01*
X54407907Y-32928245D01*
X54387916Y-32940227D01*
X54366846Y-32950192D01*
X54344902Y-32958044D01*
X54322293Y-32963708D01*
X54299238Y-32967127D01*
X54275959Y-32968271D01*
X53800959Y-32968271D01*
X53777680Y-32967127D01*
X53754625Y-32963708D01*
X53732016Y-32958044D01*
X53710072Y-32950192D01*
X53689002Y-32940227D01*
X53669011Y-32928245D01*
X53650291Y-32914361D01*
X53633021Y-32898709D01*
X53617369Y-32881439D01*
X53603485Y-32862719D01*
X53591503Y-32842728D01*
X53581538Y-32821658D01*
X53573686Y-32799714D01*
X53568022Y-32777105D01*
X53564603Y-32754050D01*
X53563459Y-32730771D01*
X53563459Y-32155771D01*
X53564603Y-32132492D01*
X53568022Y-32109437D01*
X53573686Y-32086828D01*
X53581538Y-32064884D01*
X53591503Y-32043814D01*
X53603485Y-32023823D01*
X53617369Y-32005103D01*
X53633021Y-31987833D01*
X53650291Y-31972181D01*
X53669011Y-31958297D01*
X53689002Y-31946315D01*
X53710072Y-31936350D01*
X53732016Y-31928498D01*
X53754625Y-31922834D01*
X53777680Y-31919415D01*
X53800959Y-31918271D01*
X54275959Y-31918271D01*
X54299238Y-31919415D01*
X54299238Y-31919415D01*
G37*
D11*
X54038459Y-32443271D03*
D10*
G36*
X54299238Y-33669415D02*
X54322293Y-33672834D01*
X54344902Y-33678498D01*
X54366846Y-33686350D01*
X54387916Y-33696315D01*
X54407907Y-33708297D01*
X54426627Y-33722181D01*
X54443897Y-33737833D01*
X54459549Y-33755103D01*
X54473433Y-33773823D01*
X54485415Y-33793814D01*
X54495380Y-33814884D01*
X54503232Y-33836828D01*
X54508896Y-33859437D01*
X54512315Y-33882492D01*
X54513459Y-33905771D01*
X54513459Y-34480771D01*
X54512315Y-34504050D01*
X54508896Y-34527105D01*
X54503232Y-34549714D01*
X54495380Y-34571658D01*
X54485415Y-34592728D01*
X54473433Y-34612719D01*
X54459549Y-34631439D01*
X54443897Y-34648709D01*
X54426627Y-34664361D01*
X54407907Y-34678245D01*
X54387916Y-34690227D01*
X54366846Y-34700192D01*
X54344902Y-34708044D01*
X54322293Y-34713708D01*
X54299238Y-34717127D01*
X54275959Y-34718271D01*
X53800959Y-34718271D01*
X53777680Y-34717127D01*
X53754625Y-34713708D01*
X53732016Y-34708044D01*
X53710072Y-34700192D01*
X53689002Y-34690227D01*
X53669011Y-34678245D01*
X53650291Y-34664361D01*
X53633021Y-34648709D01*
X53617369Y-34631439D01*
X53603485Y-34612719D01*
X53591503Y-34592728D01*
X53581538Y-34571658D01*
X53573686Y-34549714D01*
X53568022Y-34527105D01*
X53564603Y-34504050D01*
X53563459Y-34480771D01*
X53563459Y-33905771D01*
X53564603Y-33882492D01*
X53568022Y-33859437D01*
X53573686Y-33836828D01*
X53581538Y-33814884D01*
X53591503Y-33793814D01*
X53603485Y-33773823D01*
X53617369Y-33755103D01*
X53633021Y-33737833D01*
X53650291Y-33722181D01*
X53669011Y-33708297D01*
X53689002Y-33696315D01*
X53710072Y-33686350D01*
X53732016Y-33678498D01*
X53754625Y-33672834D01*
X53777680Y-33669415D01*
X53800959Y-33668271D01*
X54275959Y-33668271D01*
X54299238Y-33669415D01*
X54299238Y-33669415D01*
G37*
D11*
X54038459Y-34193271D03*
G04 #@! TD*
D10*
G04 #@! TO.C,C17*
G36*
X68528089Y-38094415D02*
X68551144Y-38097834D01*
X68573753Y-38103498D01*
X68595697Y-38111350D01*
X68616767Y-38121315D01*
X68636758Y-38133297D01*
X68655478Y-38147181D01*
X68672748Y-38162833D01*
X68688400Y-38180103D01*
X68702284Y-38198823D01*
X68714266Y-38218814D01*
X68724231Y-38239884D01*
X68732083Y-38261828D01*
X68737747Y-38284437D01*
X68741166Y-38307492D01*
X68742310Y-38330771D01*
X68742310Y-38805771D01*
X68741166Y-38829050D01*
X68737747Y-38852105D01*
X68732083Y-38874714D01*
X68724231Y-38896658D01*
X68714266Y-38917728D01*
X68702284Y-38937719D01*
X68688400Y-38956439D01*
X68672748Y-38973709D01*
X68655478Y-38989361D01*
X68636758Y-39003245D01*
X68616767Y-39015227D01*
X68595697Y-39025192D01*
X68573753Y-39033044D01*
X68551144Y-39038708D01*
X68528089Y-39042127D01*
X68504810Y-39043271D01*
X67929810Y-39043271D01*
X67906531Y-39042127D01*
X67883476Y-39038708D01*
X67860867Y-39033044D01*
X67838923Y-39025192D01*
X67817853Y-39015227D01*
X67797862Y-39003245D01*
X67779142Y-38989361D01*
X67761872Y-38973709D01*
X67746220Y-38956439D01*
X67732336Y-38937719D01*
X67720354Y-38917728D01*
X67710389Y-38896658D01*
X67702537Y-38874714D01*
X67696873Y-38852105D01*
X67693454Y-38829050D01*
X67692310Y-38805771D01*
X67692310Y-38330771D01*
X67693454Y-38307492D01*
X67696873Y-38284437D01*
X67702537Y-38261828D01*
X67710389Y-38239884D01*
X67720354Y-38218814D01*
X67732336Y-38198823D01*
X67746220Y-38180103D01*
X67761872Y-38162833D01*
X67779142Y-38147181D01*
X67797862Y-38133297D01*
X67817853Y-38121315D01*
X67838923Y-38111350D01*
X67860867Y-38103498D01*
X67883476Y-38097834D01*
X67906531Y-38094415D01*
X67929810Y-38093271D01*
X68504810Y-38093271D01*
X68528089Y-38094415D01*
X68528089Y-38094415D01*
G37*
D11*
X68217310Y-38568271D03*
D10*
G36*
X70278089Y-38094415D02*
X70301144Y-38097834D01*
X70323753Y-38103498D01*
X70345697Y-38111350D01*
X70366767Y-38121315D01*
X70386758Y-38133297D01*
X70405478Y-38147181D01*
X70422748Y-38162833D01*
X70438400Y-38180103D01*
X70452284Y-38198823D01*
X70464266Y-38218814D01*
X70474231Y-38239884D01*
X70482083Y-38261828D01*
X70487747Y-38284437D01*
X70491166Y-38307492D01*
X70492310Y-38330771D01*
X70492310Y-38805771D01*
X70491166Y-38829050D01*
X70487747Y-38852105D01*
X70482083Y-38874714D01*
X70474231Y-38896658D01*
X70464266Y-38917728D01*
X70452284Y-38937719D01*
X70438400Y-38956439D01*
X70422748Y-38973709D01*
X70405478Y-38989361D01*
X70386758Y-39003245D01*
X70366767Y-39015227D01*
X70345697Y-39025192D01*
X70323753Y-39033044D01*
X70301144Y-39038708D01*
X70278089Y-39042127D01*
X70254810Y-39043271D01*
X69679810Y-39043271D01*
X69656531Y-39042127D01*
X69633476Y-39038708D01*
X69610867Y-39033044D01*
X69588923Y-39025192D01*
X69567853Y-39015227D01*
X69547862Y-39003245D01*
X69529142Y-38989361D01*
X69511872Y-38973709D01*
X69496220Y-38956439D01*
X69482336Y-38937719D01*
X69470354Y-38917728D01*
X69460389Y-38896658D01*
X69452537Y-38874714D01*
X69446873Y-38852105D01*
X69443454Y-38829050D01*
X69442310Y-38805771D01*
X69442310Y-38330771D01*
X69443454Y-38307492D01*
X69446873Y-38284437D01*
X69452537Y-38261828D01*
X69460389Y-38239884D01*
X69470354Y-38218814D01*
X69482336Y-38198823D01*
X69496220Y-38180103D01*
X69511872Y-38162833D01*
X69529142Y-38147181D01*
X69547862Y-38133297D01*
X69567853Y-38121315D01*
X69588923Y-38111350D01*
X69610867Y-38103498D01*
X69633476Y-38097834D01*
X69656531Y-38094415D01*
X69679810Y-38093271D01*
X70254810Y-38093271D01*
X70278089Y-38094415D01*
X70278089Y-38094415D01*
G37*
D11*
X69967310Y-38568271D03*
G04 #@! TD*
D10*
G04 #@! TO.C,C18*
G36*
X64557087Y-31919415D02*
X64580142Y-31922834D01*
X64602751Y-31928498D01*
X64624695Y-31936350D01*
X64645765Y-31946315D01*
X64665756Y-31958297D01*
X64684476Y-31972181D01*
X64701746Y-31987833D01*
X64717398Y-32005103D01*
X64731282Y-32023823D01*
X64743264Y-32043814D01*
X64753229Y-32064884D01*
X64761081Y-32086828D01*
X64766745Y-32109437D01*
X64770164Y-32132492D01*
X64771308Y-32155771D01*
X64771308Y-32730771D01*
X64770164Y-32754050D01*
X64766745Y-32777105D01*
X64761081Y-32799714D01*
X64753229Y-32821658D01*
X64743264Y-32842728D01*
X64731282Y-32862719D01*
X64717398Y-32881439D01*
X64701746Y-32898709D01*
X64684476Y-32914361D01*
X64665756Y-32928245D01*
X64645765Y-32940227D01*
X64624695Y-32950192D01*
X64602751Y-32958044D01*
X64580142Y-32963708D01*
X64557087Y-32967127D01*
X64533808Y-32968271D01*
X64058808Y-32968271D01*
X64035529Y-32967127D01*
X64012474Y-32963708D01*
X63989865Y-32958044D01*
X63967921Y-32950192D01*
X63946851Y-32940227D01*
X63926860Y-32928245D01*
X63908140Y-32914361D01*
X63890870Y-32898709D01*
X63875218Y-32881439D01*
X63861334Y-32862719D01*
X63849352Y-32842728D01*
X63839387Y-32821658D01*
X63831535Y-32799714D01*
X63825871Y-32777105D01*
X63822452Y-32754050D01*
X63821308Y-32730771D01*
X63821308Y-32155771D01*
X63822452Y-32132492D01*
X63825871Y-32109437D01*
X63831535Y-32086828D01*
X63839387Y-32064884D01*
X63849352Y-32043814D01*
X63861334Y-32023823D01*
X63875218Y-32005103D01*
X63890870Y-31987833D01*
X63908140Y-31972181D01*
X63926860Y-31958297D01*
X63946851Y-31946315D01*
X63967921Y-31936350D01*
X63989865Y-31928498D01*
X64012474Y-31922834D01*
X64035529Y-31919415D01*
X64058808Y-31918271D01*
X64533808Y-31918271D01*
X64557087Y-31919415D01*
X64557087Y-31919415D01*
G37*
D11*
X64296308Y-32443271D03*
D10*
G36*
X64557087Y-33669415D02*
X64580142Y-33672834D01*
X64602751Y-33678498D01*
X64624695Y-33686350D01*
X64645765Y-33696315D01*
X64665756Y-33708297D01*
X64684476Y-33722181D01*
X64701746Y-33737833D01*
X64717398Y-33755103D01*
X64731282Y-33773823D01*
X64743264Y-33793814D01*
X64753229Y-33814884D01*
X64761081Y-33836828D01*
X64766745Y-33859437D01*
X64770164Y-33882492D01*
X64771308Y-33905771D01*
X64771308Y-34480771D01*
X64770164Y-34504050D01*
X64766745Y-34527105D01*
X64761081Y-34549714D01*
X64753229Y-34571658D01*
X64743264Y-34592728D01*
X64731282Y-34612719D01*
X64717398Y-34631439D01*
X64701746Y-34648709D01*
X64684476Y-34664361D01*
X64665756Y-34678245D01*
X64645765Y-34690227D01*
X64624695Y-34700192D01*
X64602751Y-34708044D01*
X64580142Y-34713708D01*
X64557087Y-34717127D01*
X64533808Y-34718271D01*
X64058808Y-34718271D01*
X64035529Y-34717127D01*
X64012474Y-34713708D01*
X63989865Y-34708044D01*
X63967921Y-34700192D01*
X63946851Y-34690227D01*
X63926860Y-34678245D01*
X63908140Y-34664361D01*
X63890870Y-34648709D01*
X63875218Y-34631439D01*
X63861334Y-34612719D01*
X63849352Y-34592728D01*
X63839387Y-34571658D01*
X63831535Y-34549714D01*
X63825871Y-34527105D01*
X63822452Y-34504050D01*
X63821308Y-34480771D01*
X63821308Y-33905771D01*
X63822452Y-33882492D01*
X63825871Y-33859437D01*
X63831535Y-33836828D01*
X63839387Y-33814884D01*
X63849352Y-33793814D01*
X63861334Y-33773823D01*
X63875218Y-33755103D01*
X63890870Y-33737833D01*
X63908140Y-33722181D01*
X63926860Y-33708297D01*
X63946851Y-33696315D01*
X63967921Y-33686350D01*
X63989865Y-33678498D01*
X64012474Y-33672834D01*
X64035529Y-33669415D01*
X64058808Y-33668271D01*
X64533808Y-33668271D01*
X64557087Y-33669415D01*
X64557087Y-33669415D01*
G37*
D11*
X64296308Y-34193271D03*
G04 #@! TD*
D10*
G04 #@! TO.C,C19*
G36*
X56542385Y-38094415D02*
X56565440Y-38097834D01*
X56588049Y-38103498D01*
X56609993Y-38111350D01*
X56631063Y-38121315D01*
X56651054Y-38133297D01*
X56669774Y-38147181D01*
X56687044Y-38162833D01*
X56702696Y-38180103D01*
X56716580Y-38198823D01*
X56728562Y-38218814D01*
X56738527Y-38239884D01*
X56746379Y-38261828D01*
X56752043Y-38284437D01*
X56755462Y-38307492D01*
X56756606Y-38330771D01*
X56756606Y-38805771D01*
X56755462Y-38829050D01*
X56752043Y-38852105D01*
X56746379Y-38874714D01*
X56738527Y-38896658D01*
X56728562Y-38917728D01*
X56716580Y-38937719D01*
X56702696Y-38956439D01*
X56687044Y-38973709D01*
X56669774Y-38989361D01*
X56651054Y-39003245D01*
X56631063Y-39015227D01*
X56609993Y-39025192D01*
X56588049Y-39033044D01*
X56565440Y-39038708D01*
X56542385Y-39042127D01*
X56519106Y-39043271D01*
X55944106Y-39043271D01*
X55920827Y-39042127D01*
X55897772Y-39038708D01*
X55875163Y-39033044D01*
X55853219Y-39025192D01*
X55832149Y-39015227D01*
X55812158Y-39003245D01*
X55793438Y-38989361D01*
X55776168Y-38973709D01*
X55760516Y-38956439D01*
X55746632Y-38937719D01*
X55734650Y-38917728D01*
X55724685Y-38896658D01*
X55716833Y-38874714D01*
X55711169Y-38852105D01*
X55707750Y-38829050D01*
X55706606Y-38805771D01*
X55706606Y-38330771D01*
X55707750Y-38307492D01*
X55711169Y-38284437D01*
X55716833Y-38261828D01*
X55724685Y-38239884D01*
X55734650Y-38218814D01*
X55746632Y-38198823D01*
X55760516Y-38180103D01*
X55776168Y-38162833D01*
X55793438Y-38147181D01*
X55812158Y-38133297D01*
X55832149Y-38121315D01*
X55853219Y-38111350D01*
X55875163Y-38103498D01*
X55897772Y-38097834D01*
X55920827Y-38094415D01*
X55944106Y-38093271D01*
X56519106Y-38093271D01*
X56542385Y-38094415D01*
X56542385Y-38094415D01*
G37*
D11*
X56231606Y-38568271D03*
D10*
G36*
X58292385Y-38094415D02*
X58315440Y-38097834D01*
X58338049Y-38103498D01*
X58359993Y-38111350D01*
X58381063Y-38121315D01*
X58401054Y-38133297D01*
X58419774Y-38147181D01*
X58437044Y-38162833D01*
X58452696Y-38180103D01*
X58466580Y-38198823D01*
X58478562Y-38218814D01*
X58488527Y-38239884D01*
X58496379Y-38261828D01*
X58502043Y-38284437D01*
X58505462Y-38307492D01*
X58506606Y-38330771D01*
X58506606Y-38805771D01*
X58505462Y-38829050D01*
X58502043Y-38852105D01*
X58496379Y-38874714D01*
X58488527Y-38896658D01*
X58478562Y-38917728D01*
X58466580Y-38937719D01*
X58452696Y-38956439D01*
X58437044Y-38973709D01*
X58419774Y-38989361D01*
X58401054Y-39003245D01*
X58381063Y-39015227D01*
X58359993Y-39025192D01*
X58338049Y-39033044D01*
X58315440Y-39038708D01*
X58292385Y-39042127D01*
X58269106Y-39043271D01*
X57694106Y-39043271D01*
X57670827Y-39042127D01*
X57647772Y-39038708D01*
X57625163Y-39033044D01*
X57603219Y-39025192D01*
X57582149Y-39015227D01*
X57562158Y-39003245D01*
X57543438Y-38989361D01*
X57526168Y-38973709D01*
X57510516Y-38956439D01*
X57496632Y-38937719D01*
X57484650Y-38917728D01*
X57474685Y-38896658D01*
X57466833Y-38874714D01*
X57461169Y-38852105D01*
X57457750Y-38829050D01*
X57456606Y-38805771D01*
X57456606Y-38330771D01*
X57457750Y-38307492D01*
X57461169Y-38284437D01*
X57466833Y-38261828D01*
X57474685Y-38239884D01*
X57484650Y-38218814D01*
X57496632Y-38198823D01*
X57510516Y-38180103D01*
X57526168Y-38162833D01*
X57543438Y-38147181D01*
X57562158Y-38133297D01*
X57582149Y-38121315D01*
X57603219Y-38111350D01*
X57625163Y-38103498D01*
X57647772Y-38097834D01*
X57670827Y-38094415D01*
X57694106Y-38093271D01*
X58269106Y-38093271D01*
X58292385Y-38094415D01*
X58292385Y-38094415D01*
G37*
D11*
X57981606Y-38568271D03*
G04 #@! TD*
D10*
G04 #@! TO.C,C20*
G36*
X52603089Y-31919415D02*
X52626144Y-31922834D01*
X52648753Y-31928498D01*
X52670697Y-31936350D01*
X52691767Y-31946315D01*
X52711758Y-31958297D01*
X52730478Y-31972181D01*
X52747748Y-31987833D01*
X52763400Y-32005103D01*
X52777284Y-32023823D01*
X52789266Y-32043814D01*
X52799231Y-32064884D01*
X52807083Y-32086828D01*
X52812747Y-32109437D01*
X52816166Y-32132492D01*
X52817310Y-32155771D01*
X52817310Y-32730771D01*
X52816166Y-32754050D01*
X52812747Y-32777105D01*
X52807083Y-32799714D01*
X52799231Y-32821658D01*
X52789266Y-32842728D01*
X52777284Y-32862719D01*
X52763400Y-32881439D01*
X52747748Y-32898709D01*
X52730478Y-32914361D01*
X52711758Y-32928245D01*
X52691767Y-32940227D01*
X52670697Y-32950192D01*
X52648753Y-32958044D01*
X52626144Y-32963708D01*
X52603089Y-32967127D01*
X52579810Y-32968271D01*
X52104810Y-32968271D01*
X52081531Y-32967127D01*
X52058476Y-32963708D01*
X52035867Y-32958044D01*
X52013923Y-32950192D01*
X51992853Y-32940227D01*
X51972862Y-32928245D01*
X51954142Y-32914361D01*
X51936872Y-32898709D01*
X51921220Y-32881439D01*
X51907336Y-32862719D01*
X51895354Y-32842728D01*
X51885389Y-32821658D01*
X51877537Y-32799714D01*
X51871873Y-32777105D01*
X51868454Y-32754050D01*
X51867310Y-32730771D01*
X51867310Y-32155771D01*
X51868454Y-32132492D01*
X51871873Y-32109437D01*
X51877537Y-32086828D01*
X51885389Y-32064884D01*
X51895354Y-32043814D01*
X51907336Y-32023823D01*
X51921220Y-32005103D01*
X51936872Y-31987833D01*
X51954142Y-31972181D01*
X51972862Y-31958297D01*
X51992853Y-31946315D01*
X52013923Y-31936350D01*
X52035867Y-31928498D01*
X52058476Y-31922834D01*
X52081531Y-31919415D01*
X52104810Y-31918271D01*
X52579810Y-31918271D01*
X52603089Y-31919415D01*
X52603089Y-31919415D01*
G37*
D11*
X52342310Y-32443271D03*
D10*
G36*
X52603089Y-33669415D02*
X52626144Y-33672834D01*
X52648753Y-33678498D01*
X52670697Y-33686350D01*
X52691767Y-33696315D01*
X52711758Y-33708297D01*
X52730478Y-33722181D01*
X52747748Y-33737833D01*
X52763400Y-33755103D01*
X52777284Y-33773823D01*
X52789266Y-33793814D01*
X52799231Y-33814884D01*
X52807083Y-33836828D01*
X52812747Y-33859437D01*
X52816166Y-33882492D01*
X52817310Y-33905771D01*
X52817310Y-34480771D01*
X52816166Y-34504050D01*
X52812747Y-34527105D01*
X52807083Y-34549714D01*
X52799231Y-34571658D01*
X52789266Y-34592728D01*
X52777284Y-34612719D01*
X52763400Y-34631439D01*
X52747748Y-34648709D01*
X52730478Y-34664361D01*
X52711758Y-34678245D01*
X52691767Y-34690227D01*
X52670697Y-34700192D01*
X52648753Y-34708044D01*
X52626144Y-34713708D01*
X52603089Y-34717127D01*
X52579810Y-34718271D01*
X52104810Y-34718271D01*
X52081531Y-34717127D01*
X52058476Y-34713708D01*
X52035867Y-34708044D01*
X52013923Y-34700192D01*
X51992853Y-34690227D01*
X51972862Y-34678245D01*
X51954142Y-34664361D01*
X51936872Y-34648709D01*
X51921220Y-34631439D01*
X51907336Y-34612719D01*
X51895354Y-34592728D01*
X51885389Y-34571658D01*
X51877537Y-34549714D01*
X51871873Y-34527105D01*
X51868454Y-34504050D01*
X51867310Y-34480771D01*
X51867310Y-33905771D01*
X51868454Y-33882492D01*
X51871873Y-33859437D01*
X51877537Y-33836828D01*
X51885389Y-33814884D01*
X51895354Y-33793814D01*
X51907336Y-33773823D01*
X51921220Y-33755103D01*
X51936872Y-33737833D01*
X51954142Y-33722181D01*
X51972862Y-33708297D01*
X51992853Y-33696315D01*
X52013923Y-33686350D01*
X52035867Y-33678498D01*
X52058476Y-33672834D01*
X52081531Y-33669415D01*
X52104810Y-33668271D01*
X52579810Y-33668271D01*
X52603089Y-33669415D01*
X52603089Y-33669415D01*
G37*
D11*
X52342310Y-34193271D03*
G04 #@! TD*
D10*
G04 #@! TO.C,C33*
G36*
X37280306Y-56426341D02*
X37303361Y-56429760D01*
X37325970Y-56435424D01*
X37347914Y-56443276D01*
X37368984Y-56453241D01*
X37388975Y-56465223D01*
X37407695Y-56479107D01*
X37424965Y-56494759D01*
X37440617Y-56512029D01*
X37454501Y-56530749D01*
X37466483Y-56550740D01*
X37476448Y-56571810D01*
X37484300Y-56593754D01*
X37489964Y-56616363D01*
X37493383Y-56639418D01*
X37494527Y-56662697D01*
X37494527Y-57137697D01*
X37493383Y-57160976D01*
X37489964Y-57184031D01*
X37484300Y-57206640D01*
X37476448Y-57228584D01*
X37466483Y-57249654D01*
X37454501Y-57269645D01*
X37440617Y-57288365D01*
X37424965Y-57305635D01*
X37407695Y-57321287D01*
X37388975Y-57335171D01*
X37368984Y-57347153D01*
X37347914Y-57357118D01*
X37325970Y-57364970D01*
X37303361Y-57370634D01*
X37280306Y-57374053D01*
X37257027Y-57375197D01*
X36682027Y-57375197D01*
X36658748Y-57374053D01*
X36635693Y-57370634D01*
X36613084Y-57364970D01*
X36591140Y-57357118D01*
X36570070Y-57347153D01*
X36550079Y-57335171D01*
X36531359Y-57321287D01*
X36514089Y-57305635D01*
X36498437Y-57288365D01*
X36484553Y-57269645D01*
X36472571Y-57249654D01*
X36462606Y-57228584D01*
X36454754Y-57206640D01*
X36449090Y-57184031D01*
X36445671Y-57160976D01*
X36444527Y-57137697D01*
X36444527Y-56662697D01*
X36445671Y-56639418D01*
X36449090Y-56616363D01*
X36454754Y-56593754D01*
X36462606Y-56571810D01*
X36472571Y-56550740D01*
X36484553Y-56530749D01*
X36498437Y-56512029D01*
X36514089Y-56494759D01*
X36531359Y-56479107D01*
X36550079Y-56465223D01*
X36570070Y-56453241D01*
X36591140Y-56443276D01*
X36613084Y-56435424D01*
X36635693Y-56429760D01*
X36658748Y-56426341D01*
X36682027Y-56425197D01*
X37257027Y-56425197D01*
X37280306Y-56426341D01*
X37280306Y-56426341D01*
G37*
D11*
X36969527Y-56900197D03*
D10*
G36*
X35530306Y-56426341D02*
X35553361Y-56429760D01*
X35575970Y-56435424D01*
X35597914Y-56443276D01*
X35618984Y-56453241D01*
X35638975Y-56465223D01*
X35657695Y-56479107D01*
X35674965Y-56494759D01*
X35690617Y-56512029D01*
X35704501Y-56530749D01*
X35716483Y-56550740D01*
X35726448Y-56571810D01*
X35734300Y-56593754D01*
X35739964Y-56616363D01*
X35743383Y-56639418D01*
X35744527Y-56662697D01*
X35744527Y-57137697D01*
X35743383Y-57160976D01*
X35739964Y-57184031D01*
X35734300Y-57206640D01*
X35726448Y-57228584D01*
X35716483Y-57249654D01*
X35704501Y-57269645D01*
X35690617Y-57288365D01*
X35674965Y-57305635D01*
X35657695Y-57321287D01*
X35638975Y-57335171D01*
X35618984Y-57347153D01*
X35597914Y-57357118D01*
X35575970Y-57364970D01*
X35553361Y-57370634D01*
X35530306Y-57374053D01*
X35507027Y-57375197D01*
X34932027Y-57375197D01*
X34908748Y-57374053D01*
X34885693Y-57370634D01*
X34863084Y-57364970D01*
X34841140Y-57357118D01*
X34820070Y-57347153D01*
X34800079Y-57335171D01*
X34781359Y-57321287D01*
X34764089Y-57305635D01*
X34748437Y-57288365D01*
X34734553Y-57269645D01*
X34722571Y-57249654D01*
X34712606Y-57228584D01*
X34704754Y-57206640D01*
X34699090Y-57184031D01*
X34695671Y-57160976D01*
X34694527Y-57137697D01*
X34694527Y-56662697D01*
X34695671Y-56639418D01*
X34699090Y-56616363D01*
X34704754Y-56593754D01*
X34712606Y-56571810D01*
X34722571Y-56550740D01*
X34734553Y-56530749D01*
X34748437Y-56512029D01*
X34764089Y-56494759D01*
X34781359Y-56479107D01*
X34800079Y-56465223D01*
X34820070Y-56453241D01*
X34841140Y-56443276D01*
X34863084Y-56435424D01*
X34885693Y-56429760D01*
X34908748Y-56426341D01*
X34932027Y-56425197D01*
X35507027Y-56425197D01*
X35530306Y-56426341D01*
X35530306Y-56426341D01*
G37*
D11*
X35219527Y-56900197D03*
G04 #@! TD*
D10*
G04 #@! TO.C,C14*
G36*
X66307087Y-33669415D02*
X66330142Y-33672834D01*
X66352751Y-33678498D01*
X66374695Y-33686350D01*
X66395765Y-33696315D01*
X66415756Y-33708297D01*
X66434476Y-33722181D01*
X66451746Y-33737833D01*
X66467398Y-33755103D01*
X66481282Y-33773823D01*
X66493264Y-33793814D01*
X66503229Y-33814884D01*
X66511081Y-33836828D01*
X66516745Y-33859437D01*
X66520164Y-33882492D01*
X66521308Y-33905771D01*
X66521308Y-34480771D01*
X66520164Y-34504050D01*
X66516745Y-34527105D01*
X66511081Y-34549714D01*
X66503229Y-34571658D01*
X66493264Y-34592728D01*
X66481282Y-34612719D01*
X66467398Y-34631439D01*
X66451746Y-34648709D01*
X66434476Y-34664361D01*
X66415756Y-34678245D01*
X66395765Y-34690227D01*
X66374695Y-34700192D01*
X66352751Y-34708044D01*
X66330142Y-34713708D01*
X66307087Y-34717127D01*
X66283808Y-34718271D01*
X65808808Y-34718271D01*
X65785529Y-34717127D01*
X65762474Y-34713708D01*
X65739865Y-34708044D01*
X65717921Y-34700192D01*
X65696851Y-34690227D01*
X65676860Y-34678245D01*
X65658140Y-34664361D01*
X65640870Y-34648709D01*
X65625218Y-34631439D01*
X65611334Y-34612719D01*
X65599352Y-34592728D01*
X65589387Y-34571658D01*
X65581535Y-34549714D01*
X65575871Y-34527105D01*
X65572452Y-34504050D01*
X65571308Y-34480771D01*
X65571308Y-33905771D01*
X65572452Y-33882492D01*
X65575871Y-33859437D01*
X65581535Y-33836828D01*
X65589387Y-33814884D01*
X65599352Y-33793814D01*
X65611334Y-33773823D01*
X65625218Y-33755103D01*
X65640870Y-33737833D01*
X65658140Y-33722181D01*
X65676860Y-33708297D01*
X65696851Y-33696315D01*
X65717921Y-33686350D01*
X65739865Y-33678498D01*
X65762474Y-33672834D01*
X65785529Y-33669415D01*
X65808808Y-33668271D01*
X66283808Y-33668271D01*
X66307087Y-33669415D01*
X66307087Y-33669415D01*
G37*
D11*
X66046308Y-34193271D03*
D10*
G36*
X66307087Y-31919415D02*
X66330142Y-31922834D01*
X66352751Y-31928498D01*
X66374695Y-31936350D01*
X66395765Y-31946315D01*
X66415756Y-31958297D01*
X66434476Y-31972181D01*
X66451746Y-31987833D01*
X66467398Y-32005103D01*
X66481282Y-32023823D01*
X66493264Y-32043814D01*
X66503229Y-32064884D01*
X66511081Y-32086828D01*
X66516745Y-32109437D01*
X66520164Y-32132492D01*
X66521308Y-32155771D01*
X66521308Y-32730771D01*
X66520164Y-32754050D01*
X66516745Y-32777105D01*
X66511081Y-32799714D01*
X66503229Y-32821658D01*
X66493264Y-32842728D01*
X66481282Y-32862719D01*
X66467398Y-32881439D01*
X66451746Y-32898709D01*
X66434476Y-32914361D01*
X66415756Y-32928245D01*
X66395765Y-32940227D01*
X66374695Y-32950192D01*
X66352751Y-32958044D01*
X66330142Y-32963708D01*
X66307087Y-32967127D01*
X66283808Y-32968271D01*
X65808808Y-32968271D01*
X65785529Y-32967127D01*
X65762474Y-32963708D01*
X65739865Y-32958044D01*
X65717921Y-32950192D01*
X65696851Y-32940227D01*
X65676860Y-32928245D01*
X65658140Y-32914361D01*
X65640870Y-32898709D01*
X65625218Y-32881439D01*
X65611334Y-32862719D01*
X65599352Y-32842728D01*
X65589387Y-32821658D01*
X65581535Y-32799714D01*
X65575871Y-32777105D01*
X65572452Y-32754050D01*
X65571308Y-32730771D01*
X65571308Y-32155771D01*
X65572452Y-32132492D01*
X65575871Y-32109437D01*
X65581535Y-32086828D01*
X65589387Y-32064884D01*
X65599352Y-32043814D01*
X65611334Y-32023823D01*
X65625218Y-32005103D01*
X65640870Y-31987833D01*
X65658140Y-31972181D01*
X65676860Y-31958297D01*
X65696851Y-31946315D01*
X65717921Y-31936350D01*
X65739865Y-31928498D01*
X65762474Y-31922834D01*
X65785529Y-31919415D01*
X65808808Y-31918271D01*
X66283808Y-31918271D01*
X66307087Y-31919415D01*
X66307087Y-31919415D01*
G37*
D11*
X66046308Y-32443271D03*
G04 #@! TD*
D10*
G04 #@! TO.C,C55*
G36*
X46840626Y-46227401D02*
X46863681Y-46230820D01*
X46886290Y-46236484D01*
X46908234Y-46244336D01*
X46929304Y-46254301D01*
X46949295Y-46266283D01*
X46968015Y-46280167D01*
X46985285Y-46295819D01*
X47000937Y-46313089D01*
X47014821Y-46331809D01*
X47026803Y-46351800D01*
X47036768Y-46372870D01*
X47044620Y-46394814D01*
X47050284Y-46417423D01*
X47053703Y-46440478D01*
X47054847Y-46463757D01*
X47054847Y-46938757D01*
X47053703Y-46962036D01*
X47050284Y-46985091D01*
X47044620Y-47007700D01*
X47036768Y-47029644D01*
X47026803Y-47050714D01*
X47014821Y-47070705D01*
X47000937Y-47089425D01*
X46985285Y-47106695D01*
X46968015Y-47122347D01*
X46949295Y-47136231D01*
X46929304Y-47148213D01*
X46908234Y-47158178D01*
X46886290Y-47166030D01*
X46863681Y-47171694D01*
X46840626Y-47175113D01*
X46817347Y-47176257D01*
X46242347Y-47176257D01*
X46219068Y-47175113D01*
X46196013Y-47171694D01*
X46173404Y-47166030D01*
X46151460Y-47158178D01*
X46130390Y-47148213D01*
X46110399Y-47136231D01*
X46091679Y-47122347D01*
X46074409Y-47106695D01*
X46058757Y-47089425D01*
X46044873Y-47070705D01*
X46032891Y-47050714D01*
X46022926Y-47029644D01*
X46015074Y-47007700D01*
X46009410Y-46985091D01*
X46005991Y-46962036D01*
X46004847Y-46938757D01*
X46004847Y-46463757D01*
X46005991Y-46440478D01*
X46009410Y-46417423D01*
X46015074Y-46394814D01*
X46022926Y-46372870D01*
X46032891Y-46351800D01*
X46044873Y-46331809D01*
X46058757Y-46313089D01*
X46074409Y-46295819D01*
X46091679Y-46280167D01*
X46110399Y-46266283D01*
X46130390Y-46254301D01*
X46151460Y-46244336D01*
X46173404Y-46236484D01*
X46196013Y-46230820D01*
X46219068Y-46227401D01*
X46242347Y-46226257D01*
X46817347Y-46226257D01*
X46840626Y-46227401D01*
X46840626Y-46227401D01*
G37*
D11*
X46529847Y-46701257D03*
D10*
G36*
X45090626Y-46227401D02*
X45113681Y-46230820D01*
X45136290Y-46236484D01*
X45158234Y-46244336D01*
X45179304Y-46254301D01*
X45199295Y-46266283D01*
X45218015Y-46280167D01*
X45235285Y-46295819D01*
X45250937Y-46313089D01*
X45264821Y-46331809D01*
X45276803Y-46351800D01*
X45286768Y-46372870D01*
X45294620Y-46394814D01*
X45300284Y-46417423D01*
X45303703Y-46440478D01*
X45304847Y-46463757D01*
X45304847Y-46938757D01*
X45303703Y-46962036D01*
X45300284Y-46985091D01*
X45294620Y-47007700D01*
X45286768Y-47029644D01*
X45276803Y-47050714D01*
X45264821Y-47070705D01*
X45250937Y-47089425D01*
X45235285Y-47106695D01*
X45218015Y-47122347D01*
X45199295Y-47136231D01*
X45179304Y-47148213D01*
X45158234Y-47158178D01*
X45136290Y-47166030D01*
X45113681Y-47171694D01*
X45090626Y-47175113D01*
X45067347Y-47176257D01*
X44492347Y-47176257D01*
X44469068Y-47175113D01*
X44446013Y-47171694D01*
X44423404Y-47166030D01*
X44401460Y-47158178D01*
X44380390Y-47148213D01*
X44360399Y-47136231D01*
X44341679Y-47122347D01*
X44324409Y-47106695D01*
X44308757Y-47089425D01*
X44294873Y-47070705D01*
X44282891Y-47050714D01*
X44272926Y-47029644D01*
X44265074Y-47007700D01*
X44259410Y-46985091D01*
X44255991Y-46962036D01*
X44254847Y-46938757D01*
X44254847Y-46463757D01*
X44255991Y-46440478D01*
X44259410Y-46417423D01*
X44265074Y-46394814D01*
X44272926Y-46372870D01*
X44282891Y-46351800D01*
X44294873Y-46331809D01*
X44308757Y-46313089D01*
X44324409Y-46295819D01*
X44341679Y-46280167D01*
X44360399Y-46266283D01*
X44380390Y-46254301D01*
X44401460Y-46244336D01*
X44423404Y-46236484D01*
X44446013Y-46230820D01*
X44469068Y-46227401D01*
X44492347Y-46226257D01*
X45067347Y-46226257D01*
X45090626Y-46227401D01*
X45090626Y-46227401D01*
G37*
D11*
X44779847Y-46701257D03*
G04 #@! TD*
D10*
G04 #@! TO.C,C29*
G36*
X62528089Y-38094415D02*
X62551144Y-38097834D01*
X62573753Y-38103498D01*
X62595697Y-38111350D01*
X62616767Y-38121315D01*
X62636758Y-38133297D01*
X62655478Y-38147181D01*
X62672748Y-38162833D01*
X62688400Y-38180103D01*
X62702284Y-38198823D01*
X62714266Y-38218814D01*
X62724231Y-38239884D01*
X62732083Y-38261828D01*
X62737747Y-38284437D01*
X62741166Y-38307492D01*
X62742310Y-38330771D01*
X62742310Y-38805771D01*
X62741166Y-38829050D01*
X62737747Y-38852105D01*
X62732083Y-38874714D01*
X62724231Y-38896658D01*
X62714266Y-38917728D01*
X62702284Y-38937719D01*
X62688400Y-38956439D01*
X62672748Y-38973709D01*
X62655478Y-38989361D01*
X62636758Y-39003245D01*
X62616767Y-39015227D01*
X62595697Y-39025192D01*
X62573753Y-39033044D01*
X62551144Y-39038708D01*
X62528089Y-39042127D01*
X62504810Y-39043271D01*
X61929810Y-39043271D01*
X61906531Y-39042127D01*
X61883476Y-39038708D01*
X61860867Y-39033044D01*
X61838923Y-39025192D01*
X61817853Y-39015227D01*
X61797862Y-39003245D01*
X61779142Y-38989361D01*
X61761872Y-38973709D01*
X61746220Y-38956439D01*
X61732336Y-38937719D01*
X61720354Y-38917728D01*
X61710389Y-38896658D01*
X61702537Y-38874714D01*
X61696873Y-38852105D01*
X61693454Y-38829050D01*
X61692310Y-38805771D01*
X61692310Y-38330771D01*
X61693454Y-38307492D01*
X61696873Y-38284437D01*
X61702537Y-38261828D01*
X61710389Y-38239884D01*
X61720354Y-38218814D01*
X61732336Y-38198823D01*
X61746220Y-38180103D01*
X61761872Y-38162833D01*
X61779142Y-38147181D01*
X61797862Y-38133297D01*
X61817853Y-38121315D01*
X61838923Y-38111350D01*
X61860867Y-38103498D01*
X61883476Y-38097834D01*
X61906531Y-38094415D01*
X61929810Y-38093271D01*
X62504810Y-38093271D01*
X62528089Y-38094415D01*
X62528089Y-38094415D01*
G37*
D11*
X62217310Y-38568271D03*
D10*
G36*
X64278089Y-38094415D02*
X64301144Y-38097834D01*
X64323753Y-38103498D01*
X64345697Y-38111350D01*
X64366767Y-38121315D01*
X64386758Y-38133297D01*
X64405478Y-38147181D01*
X64422748Y-38162833D01*
X64438400Y-38180103D01*
X64452284Y-38198823D01*
X64464266Y-38218814D01*
X64474231Y-38239884D01*
X64482083Y-38261828D01*
X64487747Y-38284437D01*
X64491166Y-38307492D01*
X64492310Y-38330771D01*
X64492310Y-38805771D01*
X64491166Y-38829050D01*
X64487747Y-38852105D01*
X64482083Y-38874714D01*
X64474231Y-38896658D01*
X64464266Y-38917728D01*
X64452284Y-38937719D01*
X64438400Y-38956439D01*
X64422748Y-38973709D01*
X64405478Y-38989361D01*
X64386758Y-39003245D01*
X64366767Y-39015227D01*
X64345697Y-39025192D01*
X64323753Y-39033044D01*
X64301144Y-39038708D01*
X64278089Y-39042127D01*
X64254810Y-39043271D01*
X63679810Y-39043271D01*
X63656531Y-39042127D01*
X63633476Y-39038708D01*
X63610867Y-39033044D01*
X63588923Y-39025192D01*
X63567853Y-39015227D01*
X63547862Y-39003245D01*
X63529142Y-38989361D01*
X63511872Y-38973709D01*
X63496220Y-38956439D01*
X63482336Y-38937719D01*
X63470354Y-38917728D01*
X63460389Y-38896658D01*
X63452537Y-38874714D01*
X63446873Y-38852105D01*
X63443454Y-38829050D01*
X63442310Y-38805771D01*
X63442310Y-38330771D01*
X63443454Y-38307492D01*
X63446873Y-38284437D01*
X63452537Y-38261828D01*
X63460389Y-38239884D01*
X63470354Y-38218814D01*
X63482336Y-38198823D01*
X63496220Y-38180103D01*
X63511872Y-38162833D01*
X63529142Y-38147181D01*
X63547862Y-38133297D01*
X63567853Y-38121315D01*
X63588923Y-38111350D01*
X63610867Y-38103498D01*
X63633476Y-38097834D01*
X63656531Y-38094415D01*
X63679810Y-38093271D01*
X64254810Y-38093271D01*
X64278089Y-38094415D01*
X64278089Y-38094415D01*
G37*
D11*
X63967310Y-38568271D03*
G04 #@! TD*
D10*
G04 #@! TO.C,C49*
G36*
X36679346Y-50278461D02*
X36702401Y-50281880D01*
X36725010Y-50287544D01*
X36746954Y-50295396D01*
X36768024Y-50305361D01*
X36788015Y-50317343D01*
X36806735Y-50331227D01*
X36824005Y-50346879D01*
X36839657Y-50364149D01*
X36853541Y-50382869D01*
X36865523Y-50402860D01*
X36875488Y-50423930D01*
X36883340Y-50445874D01*
X36889004Y-50468483D01*
X36892423Y-50491538D01*
X36893567Y-50514817D01*
X36893567Y-50989817D01*
X36892423Y-51013096D01*
X36889004Y-51036151D01*
X36883340Y-51058760D01*
X36875488Y-51080704D01*
X36865523Y-51101774D01*
X36853541Y-51121765D01*
X36839657Y-51140485D01*
X36824005Y-51157755D01*
X36806735Y-51173407D01*
X36788015Y-51187291D01*
X36768024Y-51199273D01*
X36746954Y-51209238D01*
X36725010Y-51217090D01*
X36702401Y-51222754D01*
X36679346Y-51226173D01*
X36656067Y-51227317D01*
X36081067Y-51227317D01*
X36057788Y-51226173D01*
X36034733Y-51222754D01*
X36012124Y-51217090D01*
X35990180Y-51209238D01*
X35969110Y-51199273D01*
X35949119Y-51187291D01*
X35930399Y-51173407D01*
X35913129Y-51157755D01*
X35897477Y-51140485D01*
X35883593Y-51121765D01*
X35871611Y-51101774D01*
X35861646Y-51080704D01*
X35853794Y-51058760D01*
X35848130Y-51036151D01*
X35844711Y-51013096D01*
X35843567Y-50989817D01*
X35843567Y-50514817D01*
X35844711Y-50491538D01*
X35848130Y-50468483D01*
X35853794Y-50445874D01*
X35861646Y-50423930D01*
X35871611Y-50402860D01*
X35883593Y-50382869D01*
X35897477Y-50364149D01*
X35913129Y-50346879D01*
X35930399Y-50331227D01*
X35949119Y-50317343D01*
X35969110Y-50305361D01*
X35990180Y-50295396D01*
X36012124Y-50287544D01*
X36034733Y-50281880D01*
X36057788Y-50278461D01*
X36081067Y-50277317D01*
X36656067Y-50277317D01*
X36679346Y-50278461D01*
X36679346Y-50278461D01*
G37*
D11*
X36368567Y-50752317D03*
D10*
G36*
X38429346Y-50278461D02*
X38452401Y-50281880D01*
X38475010Y-50287544D01*
X38496954Y-50295396D01*
X38518024Y-50305361D01*
X38538015Y-50317343D01*
X38556735Y-50331227D01*
X38574005Y-50346879D01*
X38589657Y-50364149D01*
X38603541Y-50382869D01*
X38615523Y-50402860D01*
X38625488Y-50423930D01*
X38633340Y-50445874D01*
X38639004Y-50468483D01*
X38642423Y-50491538D01*
X38643567Y-50514817D01*
X38643567Y-50989817D01*
X38642423Y-51013096D01*
X38639004Y-51036151D01*
X38633340Y-51058760D01*
X38625488Y-51080704D01*
X38615523Y-51101774D01*
X38603541Y-51121765D01*
X38589657Y-51140485D01*
X38574005Y-51157755D01*
X38556735Y-51173407D01*
X38538015Y-51187291D01*
X38518024Y-51199273D01*
X38496954Y-51209238D01*
X38475010Y-51217090D01*
X38452401Y-51222754D01*
X38429346Y-51226173D01*
X38406067Y-51227317D01*
X37831067Y-51227317D01*
X37807788Y-51226173D01*
X37784733Y-51222754D01*
X37762124Y-51217090D01*
X37740180Y-51209238D01*
X37719110Y-51199273D01*
X37699119Y-51187291D01*
X37680399Y-51173407D01*
X37663129Y-51157755D01*
X37647477Y-51140485D01*
X37633593Y-51121765D01*
X37621611Y-51101774D01*
X37611646Y-51080704D01*
X37603794Y-51058760D01*
X37598130Y-51036151D01*
X37594711Y-51013096D01*
X37593567Y-50989817D01*
X37593567Y-50514817D01*
X37594711Y-50491538D01*
X37598130Y-50468483D01*
X37603794Y-50445874D01*
X37611646Y-50423930D01*
X37621611Y-50402860D01*
X37633593Y-50382869D01*
X37647477Y-50364149D01*
X37663129Y-50346879D01*
X37680399Y-50331227D01*
X37699119Y-50317343D01*
X37719110Y-50305361D01*
X37740180Y-50295396D01*
X37762124Y-50287544D01*
X37784733Y-50281880D01*
X37807788Y-50278461D01*
X37831067Y-50277317D01*
X38406067Y-50277317D01*
X38429346Y-50278461D01*
X38429346Y-50278461D01*
G37*
D11*
X38118567Y-50752317D03*
G04 #@! TD*
D10*
G04 #@! TO.C,C32*
G36*
X46603089Y-31919415D02*
X46626144Y-31922834D01*
X46648753Y-31928498D01*
X46670697Y-31936350D01*
X46691767Y-31946315D01*
X46711758Y-31958297D01*
X46730478Y-31972181D01*
X46747748Y-31987833D01*
X46763400Y-32005103D01*
X46777284Y-32023823D01*
X46789266Y-32043814D01*
X46799231Y-32064884D01*
X46807083Y-32086828D01*
X46812747Y-32109437D01*
X46816166Y-32132492D01*
X46817310Y-32155771D01*
X46817310Y-32730771D01*
X46816166Y-32754050D01*
X46812747Y-32777105D01*
X46807083Y-32799714D01*
X46799231Y-32821658D01*
X46789266Y-32842728D01*
X46777284Y-32862719D01*
X46763400Y-32881439D01*
X46747748Y-32898709D01*
X46730478Y-32914361D01*
X46711758Y-32928245D01*
X46691767Y-32940227D01*
X46670697Y-32950192D01*
X46648753Y-32958044D01*
X46626144Y-32963708D01*
X46603089Y-32967127D01*
X46579810Y-32968271D01*
X46104810Y-32968271D01*
X46081531Y-32967127D01*
X46058476Y-32963708D01*
X46035867Y-32958044D01*
X46013923Y-32950192D01*
X45992853Y-32940227D01*
X45972862Y-32928245D01*
X45954142Y-32914361D01*
X45936872Y-32898709D01*
X45921220Y-32881439D01*
X45907336Y-32862719D01*
X45895354Y-32842728D01*
X45885389Y-32821658D01*
X45877537Y-32799714D01*
X45871873Y-32777105D01*
X45868454Y-32754050D01*
X45867310Y-32730771D01*
X45867310Y-32155771D01*
X45868454Y-32132492D01*
X45871873Y-32109437D01*
X45877537Y-32086828D01*
X45885389Y-32064884D01*
X45895354Y-32043814D01*
X45907336Y-32023823D01*
X45921220Y-32005103D01*
X45936872Y-31987833D01*
X45954142Y-31972181D01*
X45972862Y-31958297D01*
X45992853Y-31946315D01*
X46013923Y-31936350D01*
X46035867Y-31928498D01*
X46058476Y-31922834D01*
X46081531Y-31919415D01*
X46104810Y-31918271D01*
X46579810Y-31918271D01*
X46603089Y-31919415D01*
X46603089Y-31919415D01*
G37*
D11*
X46342310Y-32443271D03*
D10*
G36*
X46603089Y-33669415D02*
X46626144Y-33672834D01*
X46648753Y-33678498D01*
X46670697Y-33686350D01*
X46691767Y-33696315D01*
X46711758Y-33708297D01*
X46730478Y-33722181D01*
X46747748Y-33737833D01*
X46763400Y-33755103D01*
X46777284Y-33773823D01*
X46789266Y-33793814D01*
X46799231Y-33814884D01*
X46807083Y-33836828D01*
X46812747Y-33859437D01*
X46816166Y-33882492D01*
X46817310Y-33905771D01*
X46817310Y-34480771D01*
X46816166Y-34504050D01*
X46812747Y-34527105D01*
X46807083Y-34549714D01*
X46799231Y-34571658D01*
X46789266Y-34592728D01*
X46777284Y-34612719D01*
X46763400Y-34631439D01*
X46747748Y-34648709D01*
X46730478Y-34664361D01*
X46711758Y-34678245D01*
X46691767Y-34690227D01*
X46670697Y-34700192D01*
X46648753Y-34708044D01*
X46626144Y-34713708D01*
X46603089Y-34717127D01*
X46579810Y-34718271D01*
X46104810Y-34718271D01*
X46081531Y-34717127D01*
X46058476Y-34713708D01*
X46035867Y-34708044D01*
X46013923Y-34700192D01*
X45992853Y-34690227D01*
X45972862Y-34678245D01*
X45954142Y-34664361D01*
X45936872Y-34648709D01*
X45921220Y-34631439D01*
X45907336Y-34612719D01*
X45895354Y-34592728D01*
X45885389Y-34571658D01*
X45877537Y-34549714D01*
X45871873Y-34527105D01*
X45868454Y-34504050D01*
X45867310Y-34480771D01*
X45867310Y-33905771D01*
X45868454Y-33882492D01*
X45871873Y-33859437D01*
X45877537Y-33836828D01*
X45885389Y-33814884D01*
X45895354Y-33793814D01*
X45907336Y-33773823D01*
X45921220Y-33755103D01*
X45936872Y-33737833D01*
X45954142Y-33722181D01*
X45972862Y-33708297D01*
X45992853Y-33696315D01*
X46013923Y-33686350D01*
X46035867Y-33678498D01*
X46058476Y-33672834D01*
X46081531Y-33669415D01*
X46104810Y-33668271D01*
X46579810Y-33668271D01*
X46603089Y-33669415D01*
X46603089Y-33669415D01*
G37*
D11*
X46342310Y-34193271D03*
G04 #@! TD*
D10*
G04 #@! TO.C,C36*
G36*
X64278089Y-39594415D02*
X64301144Y-39597834D01*
X64323753Y-39603498D01*
X64345697Y-39611350D01*
X64366767Y-39621315D01*
X64386758Y-39633297D01*
X64405478Y-39647181D01*
X64422748Y-39662833D01*
X64438400Y-39680103D01*
X64452284Y-39698823D01*
X64464266Y-39718814D01*
X64474231Y-39739884D01*
X64482083Y-39761828D01*
X64487747Y-39784437D01*
X64491166Y-39807492D01*
X64492310Y-39830771D01*
X64492310Y-40305771D01*
X64491166Y-40329050D01*
X64487747Y-40352105D01*
X64482083Y-40374714D01*
X64474231Y-40396658D01*
X64464266Y-40417728D01*
X64452284Y-40437719D01*
X64438400Y-40456439D01*
X64422748Y-40473709D01*
X64405478Y-40489361D01*
X64386758Y-40503245D01*
X64366767Y-40515227D01*
X64345697Y-40525192D01*
X64323753Y-40533044D01*
X64301144Y-40538708D01*
X64278089Y-40542127D01*
X64254810Y-40543271D01*
X63679810Y-40543271D01*
X63656531Y-40542127D01*
X63633476Y-40538708D01*
X63610867Y-40533044D01*
X63588923Y-40525192D01*
X63567853Y-40515227D01*
X63547862Y-40503245D01*
X63529142Y-40489361D01*
X63511872Y-40473709D01*
X63496220Y-40456439D01*
X63482336Y-40437719D01*
X63470354Y-40417728D01*
X63460389Y-40396658D01*
X63452537Y-40374714D01*
X63446873Y-40352105D01*
X63443454Y-40329050D01*
X63442310Y-40305771D01*
X63442310Y-39830771D01*
X63443454Y-39807492D01*
X63446873Y-39784437D01*
X63452537Y-39761828D01*
X63460389Y-39739884D01*
X63470354Y-39718814D01*
X63482336Y-39698823D01*
X63496220Y-39680103D01*
X63511872Y-39662833D01*
X63529142Y-39647181D01*
X63547862Y-39633297D01*
X63567853Y-39621315D01*
X63588923Y-39611350D01*
X63610867Y-39603498D01*
X63633476Y-39597834D01*
X63656531Y-39594415D01*
X63679810Y-39593271D01*
X64254810Y-39593271D01*
X64278089Y-39594415D01*
X64278089Y-39594415D01*
G37*
D11*
X63967310Y-40068271D03*
D10*
G36*
X62528089Y-39594415D02*
X62551144Y-39597834D01*
X62573753Y-39603498D01*
X62595697Y-39611350D01*
X62616767Y-39621315D01*
X62636758Y-39633297D01*
X62655478Y-39647181D01*
X62672748Y-39662833D01*
X62688400Y-39680103D01*
X62702284Y-39698823D01*
X62714266Y-39718814D01*
X62724231Y-39739884D01*
X62732083Y-39761828D01*
X62737747Y-39784437D01*
X62741166Y-39807492D01*
X62742310Y-39830771D01*
X62742310Y-40305771D01*
X62741166Y-40329050D01*
X62737747Y-40352105D01*
X62732083Y-40374714D01*
X62724231Y-40396658D01*
X62714266Y-40417728D01*
X62702284Y-40437719D01*
X62688400Y-40456439D01*
X62672748Y-40473709D01*
X62655478Y-40489361D01*
X62636758Y-40503245D01*
X62616767Y-40515227D01*
X62595697Y-40525192D01*
X62573753Y-40533044D01*
X62551144Y-40538708D01*
X62528089Y-40542127D01*
X62504810Y-40543271D01*
X61929810Y-40543271D01*
X61906531Y-40542127D01*
X61883476Y-40538708D01*
X61860867Y-40533044D01*
X61838923Y-40525192D01*
X61817853Y-40515227D01*
X61797862Y-40503245D01*
X61779142Y-40489361D01*
X61761872Y-40473709D01*
X61746220Y-40456439D01*
X61732336Y-40437719D01*
X61720354Y-40417728D01*
X61710389Y-40396658D01*
X61702537Y-40374714D01*
X61696873Y-40352105D01*
X61693454Y-40329050D01*
X61692310Y-40305771D01*
X61692310Y-39830771D01*
X61693454Y-39807492D01*
X61696873Y-39784437D01*
X61702537Y-39761828D01*
X61710389Y-39739884D01*
X61720354Y-39718814D01*
X61732336Y-39698823D01*
X61746220Y-39680103D01*
X61761872Y-39662833D01*
X61779142Y-39647181D01*
X61797862Y-39633297D01*
X61817853Y-39621315D01*
X61838923Y-39611350D01*
X61860867Y-39603498D01*
X61883476Y-39597834D01*
X61906531Y-39594415D01*
X61929810Y-39593271D01*
X62504810Y-39593271D01*
X62528089Y-39594415D01*
X62528089Y-39594415D01*
G37*
D11*
X62217310Y-40068271D03*
G04 #@! TD*
D10*
G04 #@! TO.C,C37*
G36*
X60353089Y-33759495D02*
X60376144Y-33762914D01*
X60398753Y-33768578D01*
X60420697Y-33776430D01*
X60441767Y-33786395D01*
X60461758Y-33798377D01*
X60480478Y-33812261D01*
X60497748Y-33827913D01*
X60513400Y-33845183D01*
X60527284Y-33863903D01*
X60539266Y-33883894D01*
X60549231Y-33904964D01*
X60557083Y-33926908D01*
X60562747Y-33949517D01*
X60566166Y-33972572D01*
X60567310Y-33995851D01*
X60567310Y-34570851D01*
X60566166Y-34594130D01*
X60562747Y-34617185D01*
X60557083Y-34639794D01*
X60549231Y-34661738D01*
X60539266Y-34682808D01*
X60527284Y-34702799D01*
X60513400Y-34721519D01*
X60497748Y-34738789D01*
X60480478Y-34754441D01*
X60461758Y-34768325D01*
X60441767Y-34780307D01*
X60420697Y-34790272D01*
X60398753Y-34798124D01*
X60376144Y-34803788D01*
X60353089Y-34807207D01*
X60329810Y-34808351D01*
X59854810Y-34808351D01*
X59831531Y-34807207D01*
X59808476Y-34803788D01*
X59785867Y-34798124D01*
X59763923Y-34790272D01*
X59742853Y-34780307D01*
X59722862Y-34768325D01*
X59704142Y-34754441D01*
X59686872Y-34738789D01*
X59671220Y-34721519D01*
X59657336Y-34702799D01*
X59645354Y-34682808D01*
X59635389Y-34661738D01*
X59627537Y-34639794D01*
X59621873Y-34617185D01*
X59618454Y-34594130D01*
X59617310Y-34570851D01*
X59617310Y-33995851D01*
X59618454Y-33972572D01*
X59621873Y-33949517D01*
X59627537Y-33926908D01*
X59635389Y-33904964D01*
X59645354Y-33883894D01*
X59657336Y-33863903D01*
X59671220Y-33845183D01*
X59686872Y-33827913D01*
X59704142Y-33812261D01*
X59722862Y-33798377D01*
X59742853Y-33786395D01*
X59763923Y-33776430D01*
X59785867Y-33768578D01*
X59808476Y-33762914D01*
X59831531Y-33759495D01*
X59854810Y-33758351D01*
X60329810Y-33758351D01*
X60353089Y-33759495D01*
X60353089Y-33759495D01*
G37*
D11*
X60092310Y-34283351D03*
D10*
G36*
X60353089Y-32009495D02*
X60376144Y-32012914D01*
X60398753Y-32018578D01*
X60420697Y-32026430D01*
X60441767Y-32036395D01*
X60461758Y-32048377D01*
X60480478Y-32062261D01*
X60497748Y-32077913D01*
X60513400Y-32095183D01*
X60527284Y-32113903D01*
X60539266Y-32133894D01*
X60549231Y-32154964D01*
X60557083Y-32176908D01*
X60562747Y-32199517D01*
X60566166Y-32222572D01*
X60567310Y-32245851D01*
X60567310Y-32820851D01*
X60566166Y-32844130D01*
X60562747Y-32867185D01*
X60557083Y-32889794D01*
X60549231Y-32911738D01*
X60539266Y-32932808D01*
X60527284Y-32952799D01*
X60513400Y-32971519D01*
X60497748Y-32988789D01*
X60480478Y-33004441D01*
X60461758Y-33018325D01*
X60441767Y-33030307D01*
X60420697Y-33040272D01*
X60398753Y-33048124D01*
X60376144Y-33053788D01*
X60353089Y-33057207D01*
X60329810Y-33058351D01*
X59854810Y-33058351D01*
X59831531Y-33057207D01*
X59808476Y-33053788D01*
X59785867Y-33048124D01*
X59763923Y-33040272D01*
X59742853Y-33030307D01*
X59722862Y-33018325D01*
X59704142Y-33004441D01*
X59686872Y-32988789D01*
X59671220Y-32971519D01*
X59657336Y-32952799D01*
X59645354Y-32932808D01*
X59635389Y-32911738D01*
X59627537Y-32889794D01*
X59621873Y-32867185D01*
X59618454Y-32844130D01*
X59617310Y-32820851D01*
X59617310Y-32245851D01*
X59618454Y-32222572D01*
X59621873Y-32199517D01*
X59627537Y-32176908D01*
X59635389Y-32154964D01*
X59645354Y-32133894D01*
X59657336Y-32113903D01*
X59671220Y-32095183D01*
X59686872Y-32077913D01*
X59704142Y-32062261D01*
X59722862Y-32048377D01*
X59742853Y-32036395D01*
X59763923Y-32026430D01*
X59785867Y-32018578D01*
X59808476Y-32012914D01*
X59831531Y-32009495D01*
X59854810Y-32008351D01*
X60329810Y-32008351D01*
X60353089Y-32009495D01*
X60353089Y-32009495D01*
G37*
D11*
X60092310Y-32533351D03*
G04 #@! TD*
D10*
G04 #@! TO.C,C38*
G36*
X52278089Y-39594415D02*
X52301144Y-39597834D01*
X52323753Y-39603498D01*
X52345697Y-39611350D01*
X52366767Y-39621315D01*
X52386758Y-39633297D01*
X52405478Y-39647181D01*
X52422748Y-39662833D01*
X52438400Y-39680103D01*
X52452284Y-39698823D01*
X52464266Y-39718814D01*
X52474231Y-39739884D01*
X52482083Y-39761828D01*
X52487747Y-39784437D01*
X52491166Y-39807492D01*
X52492310Y-39830771D01*
X52492310Y-40305771D01*
X52491166Y-40329050D01*
X52487747Y-40352105D01*
X52482083Y-40374714D01*
X52474231Y-40396658D01*
X52464266Y-40417728D01*
X52452284Y-40437719D01*
X52438400Y-40456439D01*
X52422748Y-40473709D01*
X52405478Y-40489361D01*
X52386758Y-40503245D01*
X52366767Y-40515227D01*
X52345697Y-40525192D01*
X52323753Y-40533044D01*
X52301144Y-40538708D01*
X52278089Y-40542127D01*
X52254810Y-40543271D01*
X51679810Y-40543271D01*
X51656531Y-40542127D01*
X51633476Y-40538708D01*
X51610867Y-40533044D01*
X51588923Y-40525192D01*
X51567853Y-40515227D01*
X51547862Y-40503245D01*
X51529142Y-40489361D01*
X51511872Y-40473709D01*
X51496220Y-40456439D01*
X51482336Y-40437719D01*
X51470354Y-40417728D01*
X51460389Y-40396658D01*
X51452537Y-40374714D01*
X51446873Y-40352105D01*
X51443454Y-40329050D01*
X51442310Y-40305771D01*
X51442310Y-39830771D01*
X51443454Y-39807492D01*
X51446873Y-39784437D01*
X51452537Y-39761828D01*
X51460389Y-39739884D01*
X51470354Y-39718814D01*
X51482336Y-39698823D01*
X51496220Y-39680103D01*
X51511872Y-39662833D01*
X51529142Y-39647181D01*
X51547862Y-39633297D01*
X51567853Y-39621315D01*
X51588923Y-39611350D01*
X51610867Y-39603498D01*
X51633476Y-39597834D01*
X51656531Y-39594415D01*
X51679810Y-39593271D01*
X52254810Y-39593271D01*
X52278089Y-39594415D01*
X52278089Y-39594415D01*
G37*
D11*
X51967310Y-40068271D03*
D10*
G36*
X50528089Y-39594415D02*
X50551144Y-39597834D01*
X50573753Y-39603498D01*
X50595697Y-39611350D01*
X50616767Y-39621315D01*
X50636758Y-39633297D01*
X50655478Y-39647181D01*
X50672748Y-39662833D01*
X50688400Y-39680103D01*
X50702284Y-39698823D01*
X50714266Y-39718814D01*
X50724231Y-39739884D01*
X50732083Y-39761828D01*
X50737747Y-39784437D01*
X50741166Y-39807492D01*
X50742310Y-39830771D01*
X50742310Y-40305771D01*
X50741166Y-40329050D01*
X50737747Y-40352105D01*
X50732083Y-40374714D01*
X50724231Y-40396658D01*
X50714266Y-40417728D01*
X50702284Y-40437719D01*
X50688400Y-40456439D01*
X50672748Y-40473709D01*
X50655478Y-40489361D01*
X50636758Y-40503245D01*
X50616767Y-40515227D01*
X50595697Y-40525192D01*
X50573753Y-40533044D01*
X50551144Y-40538708D01*
X50528089Y-40542127D01*
X50504810Y-40543271D01*
X49929810Y-40543271D01*
X49906531Y-40542127D01*
X49883476Y-40538708D01*
X49860867Y-40533044D01*
X49838923Y-40525192D01*
X49817853Y-40515227D01*
X49797862Y-40503245D01*
X49779142Y-40489361D01*
X49761872Y-40473709D01*
X49746220Y-40456439D01*
X49732336Y-40437719D01*
X49720354Y-40417728D01*
X49710389Y-40396658D01*
X49702537Y-40374714D01*
X49696873Y-40352105D01*
X49693454Y-40329050D01*
X49692310Y-40305771D01*
X49692310Y-39830771D01*
X49693454Y-39807492D01*
X49696873Y-39784437D01*
X49702537Y-39761828D01*
X49710389Y-39739884D01*
X49720354Y-39718814D01*
X49732336Y-39698823D01*
X49746220Y-39680103D01*
X49761872Y-39662833D01*
X49779142Y-39647181D01*
X49797862Y-39633297D01*
X49817853Y-39621315D01*
X49838923Y-39611350D01*
X49860867Y-39603498D01*
X49883476Y-39597834D01*
X49906531Y-39594415D01*
X49929810Y-39593271D01*
X50504810Y-39593271D01*
X50528089Y-39594415D01*
X50528089Y-39594415D01*
G37*
D11*
X50217310Y-40068271D03*
G04 #@! TD*
D10*
G04 #@! TO.C,C39*
G36*
X48353089Y-33669415D02*
X48376144Y-33672834D01*
X48398753Y-33678498D01*
X48420697Y-33686350D01*
X48441767Y-33696315D01*
X48461758Y-33708297D01*
X48480478Y-33722181D01*
X48497748Y-33737833D01*
X48513400Y-33755103D01*
X48527284Y-33773823D01*
X48539266Y-33793814D01*
X48549231Y-33814884D01*
X48557083Y-33836828D01*
X48562747Y-33859437D01*
X48566166Y-33882492D01*
X48567310Y-33905771D01*
X48567310Y-34480771D01*
X48566166Y-34504050D01*
X48562747Y-34527105D01*
X48557083Y-34549714D01*
X48549231Y-34571658D01*
X48539266Y-34592728D01*
X48527284Y-34612719D01*
X48513400Y-34631439D01*
X48497748Y-34648709D01*
X48480478Y-34664361D01*
X48461758Y-34678245D01*
X48441767Y-34690227D01*
X48420697Y-34700192D01*
X48398753Y-34708044D01*
X48376144Y-34713708D01*
X48353089Y-34717127D01*
X48329810Y-34718271D01*
X47854810Y-34718271D01*
X47831531Y-34717127D01*
X47808476Y-34713708D01*
X47785867Y-34708044D01*
X47763923Y-34700192D01*
X47742853Y-34690227D01*
X47722862Y-34678245D01*
X47704142Y-34664361D01*
X47686872Y-34648709D01*
X47671220Y-34631439D01*
X47657336Y-34612719D01*
X47645354Y-34592728D01*
X47635389Y-34571658D01*
X47627537Y-34549714D01*
X47621873Y-34527105D01*
X47618454Y-34504050D01*
X47617310Y-34480771D01*
X47617310Y-33905771D01*
X47618454Y-33882492D01*
X47621873Y-33859437D01*
X47627537Y-33836828D01*
X47635389Y-33814884D01*
X47645354Y-33793814D01*
X47657336Y-33773823D01*
X47671220Y-33755103D01*
X47686872Y-33737833D01*
X47704142Y-33722181D01*
X47722862Y-33708297D01*
X47742853Y-33696315D01*
X47763923Y-33686350D01*
X47785867Y-33678498D01*
X47808476Y-33672834D01*
X47831531Y-33669415D01*
X47854810Y-33668271D01*
X48329810Y-33668271D01*
X48353089Y-33669415D01*
X48353089Y-33669415D01*
G37*
D11*
X48092310Y-34193271D03*
D10*
G36*
X48353089Y-31919415D02*
X48376144Y-31922834D01*
X48398753Y-31928498D01*
X48420697Y-31936350D01*
X48441767Y-31946315D01*
X48461758Y-31958297D01*
X48480478Y-31972181D01*
X48497748Y-31987833D01*
X48513400Y-32005103D01*
X48527284Y-32023823D01*
X48539266Y-32043814D01*
X48549231Y-32064884D01*
X48557083Y-32086828D01*
X48562747Y-32109437D01*
X48566166Y-32132492D01*
X48567310Y-32155771D01*
X48567310Y-32730771D01*
X48566166Y-32754050D01*
X48562747Y-32777105D01*
X48557083Y-32799714D01*
X48549231Y-32821658D01*
X48539266Y-32842728D01*
X48527284Y-32862719D01*
X48513400Y-32881439D01*
X48497748Y-32898709D01*
X48480478Y-32914361D01*
X48461758Y-32928245D01*
X48441767Y-32940227D01*
X48420697Y-32950192D01*
X48398753Y-32958044D01*
X48376144Y-32963708D01*
X48353089Y-32967127D01*
X48329810Y-32968271D01*
X47854810Y-32968271D01*
X47831531Y-32967127D01*
X47808476Y-32963708D01*
X47785867Y-32958044D01*
X47763923Y-32950192D01*
X47742853Y-32940227D01*
X47722862Y-32928245D01*
X47704142Y-32914361D01*
X47686872Y-32898709D01*
X47671220Y-32881439D01*
X47657336Y-32862719D01*
X47645354Y-32842728D01*
X47635389Y-32821658D01*
X47627537Y-32799714D01*
X47621873Y-32777105D01*
X47618454Y-32754050D01*
X47617310Y-32730771D01*
X47617310Y-32155771D01*
X47618454Y-32132492D01*
X47621873Y-32109437D01*
X47627537Y-32086828D01*
X47635389Y-32064884D01*
X47645354Y-32043814D01*
X47657336Y-32023823D01*
X47671220Y-32005103D01*
X47686872Y-31987833D01*
X47704142Y-31972181D01*
X47722862Y-31958297D01*
X47742853Y-31946315D01*
X47763923Y-31936350D01*
X47785867Y-31928498D01*
X47808476Y-31922834D01*
X47831531Y-31919415D01*
X47854810Y-31918271D01*
X48329810Y-31918271D01*
X48353089Y-31919415D01*
X48353089Y-31919415D01*
G37*
D11*
X48092310Y-32443271D03*
G04 #@! TD*
D10*
G04 #@! TO.C,C30*
G36*
X58571663Y-32009495D02*
X58594718Y-32012914D01*
X58617327Y-32018578D01*
X58639271Y-32026430D01*
X58660341Y-32036395D01*
X58680332Y-32048377D01*
X58699052Y-32062261D01*
X58716322Y-32077913D01*
X58731974Y-32095183D01*
X58745858Y-32113903D01*
X58757840Y-32133894D01*
X58767805Y-32154964D01*
X58775657Y-32176908D01*
X58781321Y-32199517D01*
X58784740Y-32222572D01*
X58785884Y-32245851D01*
X58785884Y-32820851D01*
X58784740Y-32844130D01*
X58781321Y-32867185D01*
X58775657Y-32889794D01*
X58767805Y-32911738D01*
X58757840Y-32932808D01*
X58745858Y-32952799D01*
X58731974Y-32971519D01*
X58716322Y-32988789D01*
X58699052Y-33004441D01*
X58680332Y-33018325D01*
X58660341Y-33030307D01*
X58639271Y-33040272D01*
X58617327Y-33048124D01*
X58594718Y-33053788D01*
X58571663Y-33057207D01*
X58548384Y-33058351D01*
X58073384Y-33058351D01*
X58050105Y-33057207D01*
X58027050Y-33053788D01*
X58004441Y-33048124D01*
X57982497Y-33040272D01*
X57961427Y-33030307D01*
X57941436Y-33018325D01*
X57922716Y-33004441D01*
X57905446Y-32988789D01*
X57889794Y-32971519D01*
X57875910Y-32952799D01*
X57863928Y-32932808D01*
X57853963Y-32911738D01*
X57846111Y-32889794D01*
X57840447Y-32867185D01*
X57837028Y-32844130D01*
X57835884Y-32820851D01*
X57835884Y-32245851D01*
X57837028Y-32222572D01*
X57840447Y-32199517D01*
X57846111Y-32176908D01*
X57853963Y-32154964D01*
X57863928Y-32133894D01*
X57875910Y-32113903D01*
X57889794Y-32095183D01*
X57905446Y-32077913D01*
X57922716Y-32062261D01*
X57941436Y-32048377D01*
X57961427Y-32036395D01*
X57982497Y-32026430D01*
X58004441Y-32018578D01*
X58027050Y-32012914D01*
X58050105Y-32009495D01*
X58073384Y-32008351D01*
X58548384Y-32008351D01*
X58571663Y-32009495D01*
X58571663Y-32009495D01*
G37*
D11*
X58310884Y-32533351D03*
D10*
G36*
X58571663Y-33759495D02*
X58594718Y-33762914D01*
X58617327Y-33768578D01*
X58639271Y-33776430D01*
X58660341Y-33786395D01*
X58680332Y-33798377D01*
X58699052Y-33812261D01*
X58716322Y-33827913D01*
X58731974Y-33845183D01*
X58745858Y-33863903D01*
X58757840Y-33883894D01*
X58767805Y-33904964D01*
X58775657Y-33926908D01*
X58781321Y-33949517D01*
X58784740Y-33972572D01*
X58785884Y-33995851D01*
X58785884Y-34570851D01*
X58784740Y-34594130D01*
X58781321Y-34617185D01*
X58775657Y-34639794D01*
X58767805Y-34661738D01*
X58757840Y-34682808D01*
X58745858Y-34702799D01*
X58731974Y-34721519D01*
X58716322Y-34738789D01*
X58699052Y-34754441D01*
X58680332Y-34768325D01*
X58660341Y-34780307D01*
X58639271Y-34790272D01*
X58617327Y-34798124D01*
X58594718Y-34803788D01*
X58571663Y-34807207D01*
X58548384Y-34808351D01*
X58073384Y-34808351D01*
X58050105Y-34807207D01*
X58027050Y-34803788D01*
X58004441Y-34798124D01*
X57982497Y-34790272D01*
X57961427Y-34780307D01*
X57941436Y-34768325D01*
X57922716Y-34754441D01*
X57905446Y-34738789D01*
X57889794Y-34721519D01*
X57875910Y-34702799D01*
X57863928Y-34682808D01*
X57853963Y-34661738D01*
X57846111Y-34639794D01*
X57840447Y-34617185D01*
X57837028Y-34594130D01*
X57835884Y-34570851D01*
X57835884Y-33995851D01*
X57837028Y-33972572D01*
X57840447Y-33949517D01*
X57846111Y-33926908D01*
X57853963Y-33904964D01*
X57863928Y-33883894D01*
X57875910Y-33863903D01*
X57889794Y-33845183D01*
X57905446Y-33827913D01*
X57922716Y-33812261D01*
X57941436Y-33798377D01*
X57961427Y-33786395D01*
X57982497Y-33776430D01*
X58004441Y-33768578D01*
X58027050Y-33762914D01*
X58050105Y-33759495D01*
X58073384Y-33758351D01*
X58548384Y-33758351D01*
X58571663Y-33759495D01*
X58571663Y-33759495D01*
G37*
D11*
X58310884Y-34283351D03*
G04 #@! TD*
D10*
G04 #@! TO.C,C34*
G36*
X37469032Y-54451401D02*
X37493300Y-54455001D01*
X37517099Y-54460962D01*
X37540198Y-54469227D01*
X37562377Y-54479717D01*
X37583420Y-54492329D01*
X37603126Y-54506944D01*
X37621304Y-54523420D01*
X37637780Y-54541598D01*
X37652395Y-54561304D01*
X37665007Y-54582347D01*
X37675497Y-54604526D01*
X37683762Y-54627625D01*
X37689723Y-54651424D01*
X37693323Y-54675692D01*
X37694527Y-54700196D01*
X37694527Y-55600198D01*
X37693323Y-55624702D01*
X37689723Y-55648970D01*
X37683762Y-55672769D01*
X37675497Y-55695868D01*
X37665007Y-55718047D01*
X37652395Y-55739090D01*
X37637780Y-55758796D01*
X37621304Y-55776974D01*
X37603126Y-55793450D01*
X37583420Y-55808065D01*
X37562377Y-55820677D01*
X37540198Y-55831167D01*
X37517099Y-55839432D01*
X37493300Y-55845393D01*
X37469032Y-55848993D01*
X37444528Y-55850197D01*
X36794526Y-55850197D01*
X36770022Y-55848993D01*
X36745754Y-55845393D01*
X36721955Y-55839432D01*
X36698856Y-55831167D01*
X36676677Y-55820677D01*
X36655634Y-55808065D01*
X36635928Y-55793450D01*
X36617750Y-55776974D01*
X36601274Y-55758796D01*
X36586659Y-55739090D01*
X36574047Y-55718047D01*
X36563557Y-55695868D01*
X36555292Y-55672769D01*
X36549331Y-55648970D01*
X36545731Y-55624702D01*
X36544527Y-55600198D01*
X36544527Y-54700196D01*
X36545731Y-54675692D01*
X36549331Y-54651424D01*
X36555292Y-54627625D01*
X36563557Y-54604526D01*
X36574047Y-54582347D01*
X36586659Y-54561304D01*
X36601274Y-54541598D01*
X36617750Y-54523420D01*
X36635928Y-54506944D01*
X36655634Y-54492329D01*
X36676677Y-54479717D01*
X36698856Y-54469227D01*
X36721955Y-54460962D01*
X36745754Y-54455001D01*
X36770022Y-54451401D01*
X36794526Y-54450197D01*
X37444528Y-54450197D01*
X37469032Y-54451401D01*
X37469032Y-54451401D01*
G37*
D12*
X37119527Y-55150197D03*
D10*
G36*
X35419032Y-54451401D02*
X35443300Y-54455001D01*
X35467099Y-54460962D01*
X35490198Y-54469227D01*
X35512377Y-54479717D01*
X35533420Y-54492329D01*
X35553126Y-54506944D01*
X35571304Y-54523420D01*
X35587780Y-54541598D01*
X35602395Y-54561304D01*
X35615007Y-54582347D01*
X35625497Y-54604526D01*
X35633762Y-54627625D01*
X35639723Y-54651424D01*
X35643323Y-54675692D01*
X35644527Y-54700196D01*
X35644527Y-55600198D01*
X35643323Y-55624702D01*
X35639723Y-55648970D01*
X35633762Y-55672769D01*
X35625497Y-55695868D01*
X35615007Y-55718047D01*
X35602395Y-55739090D01*
X35587780Y-55758796D01*
X35571304Y-55776974D01*
X35553126Y-55793450D01*
X35533420Y-55808065D01*
X35512377Y-55820677D01*
X35490198Y-55831167D01*
X35467099Y-55839432D01*
X35443300Y-55845393D01*
X35419032Y-55848993D01*
X35394528Y-55850197D01*
X34744526Y-55850197D01*
X34720022Y-55848993D01*
X34695754Y-55845393D01*
X34671955Y-55839432D01*
X34648856Y-55831167D01*
X34626677Y-55820677D01*
X34605634Y-55808065D01*
X34585928Y-55793450D01*
X34567750Y-55776974D01*
X34551274Y-55758796D01*
X34536659Y-55739090D01*
X34524047Y-55718047D01*
X34513557Y-55695868D01*
X34505292Y-55672769D01*
X34499331Y-55648970D01*
X34495731Y-55624702D01*
X34494527Y-55600198D01*
X34494527Y-54700196D01*
X34495731Y-54675692D01*
X34499331Y-54651424D01*
X34505292Y-54627625D01*
X34513557Y-54604526D01*
X34524047Y-54582347D01*
X34536659Y-54561304D01*
X34551274Y-54541598D01*
X34567750Y-54523420D01*
X34585928Y-54506944D01*
X34605634Y-54492329D01*
X34626677Y-54479717D01*
X34648856Y-54469227D01*
X34671955Y-54460962D01*
X34695754Y-54455001D01*
X34720022Y-54451401D01*
X34744526Y-54450197D01*
X35394528Y-54450197D01*
X35419032Y-54451401D01*
X35419032Y-54451401D01*
G37*
D12*
X35069527Y-55150197D03*
G04 #@! TD*
D10*
G04 #@! TO.C,C24*
G36*
X70482624Y-49271956D02*
X70506892Y-49275556D01*
X70530691Y-49281517D01*
X70553790Y-49289782D01*
X70575969Y-49300272D01*
X70597012Y-49312884D01*
X70616718Y-49327499D01*
X70634896Y-49343975D01*
X70651372Y-49362153D01*
X70665987Y-49381859D01*
X70678599Y-49402902D01*
X70689089Y-49425081D01*
X70697354Y-49448180D01*
X70703315Y-49471979D01*
X70706915Y-49496247D01*
X70708119Y-49520751D01*
X70708119Y-50420753D01*
X70706915Y-50445257D01*
X70703315Y-50469525D01*
X70697354Y-50493324D01*
X70689089Y-50516423D01*
X70678599Y-50538602D01*
X70665987Y-50559645D01*
X70651372Y-50579351D01*
X70634896Y-50597529D01*
X70616718Y-50614005D01*
X70597012Y-50628620D01*
X70575969Y-50641232D01*
X70553790Y-50651722D01*
X70530691Y-50659987D01*
X70506892Y-50665948D01*
X70482624Y-50669548D01*
X70458120Y-50670752D01*
X69808118Y-50670752D01*
X69783614Y-50669548D01*
X69759346Y-50665948D01*
X69735547Y-50659987D01*
X69712448Y-50651722D01*
X69690269Y-50641232D01*
X69669226Y-50628620D01*
X69649520Y-50614005D01*
X69631342Y-50597529D01*
X69614866Y-50579351D01*
X69600251Y-50559645D01*
X69587639Y-50538602D01*
X69577149Y-50516423D01*
X69568884Y-50493324D01*
X69562923Y-50469525D01*
X69559323Y-50445257D01*
X69558119Y-50420753D01*
X69558119Y-49520751D01*
X69559323Y-49496247D01*
X69562923Y-49471979D01*
X69568884Y-49448180D01*
X69577149Y-49425081D01*
X69587639Y-49402902D01*
X69600251Y-49381859D01*
X69614866Y-49362153D01*
X69631342Y-49343975D01*
X69649520Y-49327499D01*
X69669226Y-49312884D01*
X69690269Y-49300272D01*
X69712448Y-49289782D01*
X69735547Y-49281517D01*
X69759346Y-49275556D01*
X69783614Y-49271956D01*
X69808118Y-49270752D01*
X70458120Y-49270752D01*
X70482624Y-49271956D01*
X70482624Y-49271956D01*
G37*
D12*
X70133119Y-49970752D03*
D10*
G36*
X68432624Y-49271956D02*
X68456892Y-49275556D01*
X68480691Y-49281517D01*
X68503790Y-49289782D01*
X68525969Y-49300272D01*
X68547012Y-49312884D01*
X68566718Y-49327499D01*
X68584896Y-49343975D01*
X68601372Y-49362153D01*
X68615987Y-49381859D01*
X68628599Y-49402902D01*
X68639089Y-49425081D01*
X68647354Y-49448180D01*
X68653315Y-49471979D01*
X68656915Y-49496247D01*
X68658119Y-49520751D01*
X68658119Y-50420753D01*
X68656915Y-50445257D01*
X68653315Y-50469525D01*
X68647354Y-50493324D01*
X68639089Y-50516423D01*
X68628599Y-50538602D01*
X68615987Y-50559645D01*
X68601372Y-50579351D01*
X68584896Y-50597529D01*
X68566718Y-50614005D01*
X68547012Y-50628620D01*
X68525969Y-50641232D01*
X68503790Y-50651722D01*
X68480691Y-50659987D01*
X68456892Y-50665948D01*
X68432624Y-50669548D01*
X68408120Y-50670752D01*
X67758118Y-50670752D01*
X67733614Y-50669548D01*
X67709346Y-50665948D01*
X67685547Y-50659987D01*
X67662448Y-50651722D01*
X67640269Y-50641232D01*
X67619226Y-50628620D01*
X67599520Y-50614005D01*
X67581342Y-50597529D01*
X67564866Y-50579351D01*
X67550251Y-50559645D01*
X67537639Y-50538602D01*
X67527149Y-50516423D01*
X67518884Y-50493324D01*
X67512923Y-50469525D01*
X67509323Y-50445257D01*
X67508119Y-50420753D01*
X67508119Y-49520751D01*
X67509323Y-49496247D01*
X67512923Y-49471979D01*
X67518884Y-49448180D01*
X67527149Y-49425081D01*
X67537639Y-49402902D01*
X67550251Y-49381859D01*
X67564866Y-49362153D01*
X67581342Y-49343975D01*
X67599520Y-49327499D01*
X67619226Y-49312884D01*
X67640269Y-49300272D01*
X67662448Y-49289782D01*
X67685547Y-49281517D01*
X67709346Y-49275556D01*
X67733614Y-49271956D01*
X67758118Y-49270752D01*
X68408120Y-49270752D01*
X68432624Y-49271956D01*
X68432624Y-49271956D01*
G37*
D12*
X68083119Y-49970752D03*
G04 #@! TD*
D10*
G04 #@! TO.C,C23*
G36*
X61153047Y-49382619D02*
X61177315Y-49386219D01*
X61201114Y-49392180D01*
X61224213Y-49400445D01*
X61246392Y-49410935D01*
X61267435Y-49423547D01*
X61287141Y-49438162D01*
X61305319Y-49454638D01*
X61321795Y-49472816D01*
X61336410Y-49492522D01*
X61349022Y-49513565D01*
X61359512Y-49535744D01*
X61367777Y-49558843D01*
X61373738Y-49582642D01*
X61377338Y-49606910D01*
X61378542Y-49631414D01*
X61378542Y-50531416D01*
X61377338Y-50555920D01*
X61373738Y-50580188D01*
X61367777Y-50603987D01*
X61359512Y-50627086D01*
X61349022Y-50649265D01*
X61336410Y-50670308D01*
X61321795Y-50690014D01*
X61305319Y-50708192D01*
X61287141Y-50724668D01*
X61267435Y-50739283D01*
X61246392Y-50751895D01*
X61224213Y-50762385D01*
X61201114Y-50770650D01*
X61177315Y-50776611D01*
X61153047Y-50780211D01*
X61128543Y-50781415D01*
X60478541Y-50781415D01*
X60454037Y-50780211D01*
X60429769Y-50776611D01*
X60405970Y-50770650D01*
X60382871Y-50762385D01*
X60360692Y-50751895D01*
X60339649Y-50739283D01*
X60319943Y-50724668D01*
X60301765Y-50708192D01*
X60285289Y-50690014D01*
X60270674Y-50670308D01*
X60258062Y-50649265D01*
X60247572Y-50627086D01*
X60239307Y-50603987D01*
X60233346Y-50580188D01*
X60229746Y-50555920D01*
X60228542Y-50531416D01*
X60228542Y-49631414D01*
X60229746Y-49606910D01*
X60233346Y-49582642D01*
X60239307Y-49558843D01*
X60247572Y-49535744D01*
X60258062Y-49513565D01*
X60270674Y-49492522D01*
X60285289Y-49472816D01*
X60301765Y-49454638D01*
X60319943Y-49438162D01*
X60339649Y-49423547D01*
X60360692Y-49410935D01*
X60382871Y-49400445D01*
X60405970Y-49392180D01*
X60429769Y-49386219D01*
X60454037Y-49382619D01*
X60478541Y-49381415D01*
X61128543Y-49381415D01*
X61153047Y-49382619D01*
X61153047Y-49382619D01*
G37*
D12*
X60803542Y-50081415D03*
D10*
G36*
X63203047Y-49382619D02*
X63227315Y-49386219D01*
X63251114Y-49392180D01*
X63274213Y-49400445D01*
X63296392Y-49410935D01*
X63317435Y-49423547D01*
X63337141Y-49438162D01*
X63355319Y-49454638D01*
X63371795Y-49472816D01*
X63386410Y-49492522D01*
X63399022Y-49513565D01*
X63409512Y-49535744D01*
X63417777Y-49558843D01*
X63423738Y-49582642D01*
X63427338Y-49606910D01*
X63428542Y-49631414D01*
X63428542Y-50531416D01*
X63427338Y-50555920D01*
X63423738Y-50580188D01*
X63417777Y-50603987D01*
X63409512Y-50627086D01*
X63399022Y-50649265D01*
X63386410Y-50670308D01*
X63371795Y-50690014D01*
X63355319Y-50708192D01*
X63337141Y-50724668D01*
X63317435Y-50739283D01*
X63296392Y-50751895D01*
X63274213Y-50762385D01*
X63251114Y-50770650D01*
X63227315Y-50776611D01*
X63203047Y-50780211D01*
X63178543Y-50781415D01*
X62528541Y-50781415D01*
X62504037Y-50780211D01*
X62479769Y-50776611D01*
X62455970Y-50770650D01*
X62432871Y-50762385D01*
X62410692Y-50751895D01*
X62389649Y-50739283D01*
X62369943Y-50724668D01*
X62351765Y-50708192D01*
X62335289Y-50690014D01*
X62320674Y-50670308D01*
X62308062Y-50649265D01*
X62297572Y-50627086D01*
X62289307Y-50603987D01*
X62283346Y-50580188D01*
X62279746Y-50555920D01*
X62278542Y-50531416D01*
X62278542Y-49631414D01*
X62279746Y-49606910D01*
X62283346Y-49582642D01*
X62289307Y-49558843D01*
X62297572Y-49535744D01*
X62308062Y-49513565D01*
X62320674Y-49492522D01*
X62335289Y-49472816D01*
X62351765Y-49454638D01*
X62369943Y-49438162D01*
X62389649Y-49423547D01*
X62410692Y-49410935D01*
X62432871Y-49400445D01*
X62455970Y-49392180D01*
X62479769Y-49386219D01*
X62504037Y-49382619D01*
X62528541Y-49381415D01*
X63178543Y-49381415D01*
X63203047Y-49382619D01*
X63203047Y-49382619D01*
G37*
D12*
X62853542Y-50081415D03*
G04 #@! TD*
D10*
G04 #@! TO.C,C50*
G36*
X36714432Y-48303521D02*
X36738700Y-48307121D01*
X36762499Y-48313082D01*
X36785598Y-48321347D01*
X36807777Y-48331837D01*
X36828820Y-48344449D01*
X36848526Y-48359064D01*
X36866704Y-48375540D01*
X36883180Y-48393718D01*
X36897795Y-48413424D01*
X36910407Y-48434467D01*
X36920897Y-48456646D01*
X36929162Y-48479745D01*
X36935123Y-48503544D01*
X36938723Y-48527812D01*
X36939927Y-48552316D01*
X36939927Y-49452318D01*
X36938723Y-49476822D01*
X36935123Y-49501090D01*
X36929162Y-49524889D01*
X36920897Y-49547988D01*
X36910407Y-49570167D01*
X36897795Y-49591210D01*
X36883180Y-49610916D01*
X36866704Y-49629094D01*
X36848526Y-49645570D01*
X36828820Y-49660185D01*
X36807777Y-49672797D01*
X36785598Y-49683287D01*
X36762499Y-49691552D01*
X36738700Y-49697513D01*
X36714432Y-49701113D01*
X36689928Y-49702317D01*
X36039926Y-49702317D01*
X36015422Y-49701113D01*
X35991154Y-49697513D01*
X35967355Y-49691552D01*
X35944256Y-49683287D01*
X35922077Y-49672797D01*
X35901034Y-49660185D01*
X35881328Y-49645570D01*
X35863150Y-49629094D01*
X35846674Y-49610916D01*
X35832059Y-49591210D01*
X35819447Y-49570167D01*
X35808957Y-49547988D01*
X35800692Y-49524889D01*
X35794731Y-49501090D01*
X35791131Y-49476822D01*
X35789927Y-49452318D01*
X35789927Y-48552316D01*
X35791131Y-48527812D01*
X35794731Y-48503544D01*
X35800692Y-48479745D01*
X35808957Y-48456646D01*
X35819447Y-48434467D01*
X35832059Y-48413424D01*
X35846674Y-48393718D01*
X35863150Y-48375540D01*
X35881328Y-48359064D01*
X35901034Y-48344449D01*
X35922077Y-48331837D01*
X35944256Y-48321347D01*
X35967355Y-48313082D01*
X35991154Y-48307121D01*
X36015422Y-48303521D01*
X36039926Y-48302317D01*
X36689928Y-48302317D01*
X36714432Y-48303521D01*
X36714432Y-48303521D01*
G37*
D12*
X36364927Y-49002317D03*
D10*
G36*
X38764432Y-48303521D02*
X38788700Y-48307121D01*
X38812499Y-48313082D01*
X38835598Y-48321347D01*
X38857777Y-48331837D01*
X38878820Y-48344449D01*
X38898526Y-48359064D01*
X38916704Y-48375540D01*
X38933180Y-48393718D01*
X38947795Y-48413424D01*
X38960407Y-48434467D01*
X38970897Y-48456646D01*
X38979162Y-48479745D01*
X38985123Y-48503544D01*
X38988723Y-48527812D01*
X38989927Y-48552316D01*
X38989927Y-49452318D01*
X38988723Y-49476822D01*
X38985123Y-49501090D01*
X38979162Y-49524889D01*
X38970897Y-49547988D01*
X38960407Y-49570167D01*
X38947795Y-49591210D01*
X38933180Y-49610916D01*
X38916704Y-49629094D01*
X38898526Y-49645570D01*
X38878820Y-49660185D01*
X38857777Y-49672797D01*
X38835598Y-49683287D01*
X38812499Y-49691552D01*
X38788700Y-49697513D01*
X38764432Y-49701113D01*
X38739928Y-49702317D01*
X38089926Y-49702317D01*
X38065422Y-49701113D01*
X38041154Y-49697513D01*
X38017355Y-49691552D01*
X37994256Y-49683287D01*
X37972077Y-49672797D01*
X37951034Y-49660185D01*
X37931328Y-49645570D01*
X37913150Y-49629094D01*
X37896674Y-49610916D01*
X37882059Y-49591210D01*
X37869447Y-49570167D01*
X37858957Y-49547988D01*
X37850692Y-49524889D01*
X37844731Y-49501090D01*
X37841131Y-49476822D01*
X37839927Y-49452318D01*
X37839927Y-48552316D01*
X37841131Y-48527812D01*
X37844731Y-48503544D01*
X37850692Y-48479745D01*
X37858957Y-48456646D01*
X37869447Y-48434467D01*
X37882059Y-48413424D01*
X37896674Y-48393718D01*
X37913150Y-48375540D01*
X37931328Y-48359064D01*
X37951034Y-48344449D01*
X37972077Y-48331837D01*
X37994256Y-48321347D01*
X38017355Y-48313082D01*
X38041154Y-48307121D01*
X38065422Y-48303521D01*
X38089926Y-48302317D01*
X38739928Y-48302317D01*
X38764432Y-48303521D01*
X38764432Y-48303521D01*
G37*
D12*
X38414927Y-49002317D03*
G04 #@! TD*
D10*
G04 #@! TO.C,C44*
G36*
X50741814Y-33594475D02*
X50766083Y-33598075D01*
X50789881Y-33604036D01*
X50812981Y-33612301D01*
X50835159Y-33622791D01*
X50856203Y-33635404D01*
X50875908Y-33650018D01*
X50894087Y-33666494D01*
X50910563Y-33684673D01*
X50925177Y-33704378D01*
X50937790Y-33725422D01*
X50948280Y-33747600D01*
X50956545Y-33770700D01*
X50962506Y-33794498D01*
X50966106Y-33818767D01*
X50967310Y-33843271D01*
X50967310Y-34768271D01*
X50966106Y-34792775D01*
X50962506Y-34817044D01*
X50956545Y-34840842D01*
X50948280Y-34863942D01*
X50937790Y-34886120D01*
X50925177Y-34907164D01*
X50910563Y-34926869D01*
X50894087Y-34945048D01*
X50875908Y-34961524D01*
X50856203Y-34976138D01*
X50835159Y-34988751D01*
X50812981Y-34999241D01*
X50789881Y-35007506D01*
X50766083Y-35013467D01*
X50741814Y-35017067D01*
X50717310Y-35018271D01*
X49467310Y-35018271D01*
X49442806Y-35017067D01*
X49418537Y-35013467D01*
X49394739Y-35007506D01*
X49371639Y-34999241D01*
X49349461Y-34988751D01*
X49328417Y-34976138D01*
X49308712Y-34961524D01*
X49290533Y-34945048D01*
X49274057Y-34926869D01*
X49259443Y-34907164D01*
X49246830Y-34886120D01*
X49236340Y-34863942D01*
X49228075Y-34840842D01*
X49222114Y-34817044D01*
X49218514Y-34792775D01*
X49217310Y-34768271D01*
X49217310Y-33843271D01*
X49218514Y-33818767D01*
X49222114Y-33794498D01*
X49228075Y-33770700D01*
X49236340Y-33747600D01*
X49246830Y-33725422D01*
X49259443Y-33704378D01*
X49274057Y-33684673D01*
X49290533Y-33666494D01*
X49308712Y-33650018D01*
X49328417Y-33635404D01*
X49349461Y-33622791D01*
X49371639Y-33612301D01*
X49394739Y-33604036D01*
X49418537Y-33598075D01*
X49442806Y-33594475D01*
X49467310Y-33593271D01*
X50717310Y-33593271D01*
X50741814Y-33594475D01*
X50741814Y-33594475D01*
G37*
D13*
X50092310Y-34305771D03*
D10*
G36*
X50741814Y-30619475D02*
X50766083Y-30623075D01*
X50789881Y-30629036D01*
X50812981Y-30637301D01*
X50835159Y-30647791D01*
X50856203Y-30660404D01*
X50875908Y-30675018D01*
X50894087Y-30691494D01*
X50910563Y-30709673D01*
X50925177Y-30729378D01*
X50937790Y-30750422D01*
X50948280Y-30772600D01*
X50956545Y-30795700D01*
X50962506Y-30819498D01*
X50966106Y-30843767D01*
X50967310Y-30868271D01*
X50967310Y-31793271D01*
X50966106Y-31817775D01*
X50962506Y-31842044D01*
X50956545Y-31865842D01*
X50948280Y-31888942D01*
X50937790Y-31911120D01*
X50925177Y-31932164D01*
X50910563Y-31951869D01*
X50894087Y-31970048D01*
X50875908Y-31986524D01*
X50856203Y-32001138D01*
X50835159Y-32013751D01*
X50812981Y-32024241D01*
X50789881Y-32032506D01*
X50766083Y-32038467D01*
X50741814Y-32042067D01*
X50717310Y-32043271D01*
X49467310Y-32043271D01*
X49442806Y-32042067D01*
X49418537Y-32038467D01*
X49394739Y-32032506D01*
X49371639Y-32024241D01*
X49349461Y-32013751D01*
X49328417Y-32001138D01*
X49308712Y-31986524D01*
X49290533Y-31970048D01*
X49274057Y-31951869D01*
X49259443Y-31932164D01*
X49246830Y-31911120D01*
X49236340Y-31888942D01*
X49228075Y-31865842D01*
X49222114Y-31842044D01*
X49218514Y-31817775D01*
X49217310Y-31793271D01*
X49217310Y-30868271D01*
X49218514Y-30843767D01*
X49222114Y-30819498D01*
X49228075Y-30795700D01*
X49236340Y-30772600D01*
X49246830Y-30750422D01*
X49259443Y-30729378D01*
X49274057Y-30709673D01*
X49290533Y-30691494D01*
X49308712Y-30675018D01*
X49328417Y-30660404D01*
X49349461Y-30647791D01*
X49371639Y-30637301D01*
X49394739Y-30629036D01*
X49418537Y-30623075D01*
X49442806Y-30619475D01*
X49467310Y-30618271D01*
X50717310Y-30618271D01*
X50741814Y-30619475D01*
X50741814Y-30619475D01*
G37*
D13*
X50092310Y-31330771D03*
G04 #@! TD*
D10*
G04 #@! TO.C,C7*
G36*
X71816814Y-41194475D02*
X71841083Y-41198075D01*
X71864881Y-41204036D01*
X71887981Y-41212301D01*
X71910159Y-41222791D01*
X71931203Y-41235404D01*
X71950908Y-41250018D01*
X71969087Y-41266494D01*
X71985563Y-41284673D01*
X72000177Y-41304378D01*
X72012790Y-41325422D01*
X72023280Y-41347600D01*
X72031545Y-41370700D01*
X72037506Y-41394498D01*
X72041106Y-41418767D01*
X72042310Y-41443271D01*
X72042310Y-42693271D01*
X72041106Y-42717775D01*
X72037506Y-42742044D01*
X72031545Y-42765842D01*
X72023280Y-42788942D01*
X72012790Y-42811120D01*
X72000177Y-42832164D01*
X71985563Y-42851869D01*
X71969087Y-42870048D01*
X71950908Y-42886524D01*
X71931203Y-42901138D01*
X71910159Y-42913751D01*
X71887981Y-42924241D01*
X71864881Y-42932506D01*
X71841083Y-42938467D01*
X71816814Y-42942067D01*
X71792310Y-42943271D01*
X70867310Y-42943271D01*
X70842806Y-42942067D01*
X70818537Y-42938467D01*
X70794739Y-42932506D01*
X70771639Y-42924241D01*
X70749461Y-42913751D01*
X70728417Y-42901138D01*
X70708712Y-42886524D01*
X70690533Y-42870048D01*
X70674057Y-42851869D01*
X70659443Y-42832164D01*
X70646830Y-42811120D01*
X70636340Y-42788942D01*
X70628075Y-42765842D01*
X70622114Y-42742044D01*
X70618514Y-42717775D01*
X70617310Y-42693271D01*
X70617310Y-41443271D01*
X70618514Y-41418767D01*
X70622114Y-41394498D01*
X70628075Y-41370700D01*
X70636340Y-41347600D01*
X70646830Y-41325422D01*
X70659443Y-41304378D01*
X70674057Y-41284673D01*
X70690533Y-41266494D01*
X70708712Y-41250018D01*
X70728417Y-41235404D01*
X70749461Y-41222791D01*
X70771639Y-41212301D01*
X70794739Y-41204036D01*
X70818537Y-41198075D01*
X70842806Y-41194475D01*
X70867310Y-41193271D01*
X71792310Y-41193271D01*
X71816814Y-41194475D01*
X71816814Y-41194475D01*
G37*
D13*
X71329810Y-42068271D03*
D10*
G36*
X68841814Y-41194475D02*
X68866083Y-41198075D01*
X68889881Y-41204036D01*
X68912981Y-41212301D01*
X68935159Y-41222791D01*
X68956203Y-41235404D01*
X68975908Y-41250018D01*
X68994087Y-41266494D01*
X69010563Y-41284673D01*
X69025177Y-41304378D01*
X69037790Y-41325422D01*
X69048280Y-41347600D01*
X69056545Y-41370700D01*
X69062506Y-41394498D01*
X69066106Y-41418767D01*
X69067310Y-41443271D01*
X69067310Y-42693271D01*
X69066106Y-42717775D01*
X69062506Y-42742044D01*
X69056545Y-42765842D01*
X69048280Y-42788942D01*
X69037790Y-42811120D01*
X69025177Y-42832164D01*
X69010563Y-42851869D01*
X68994087Y-42870048D01*
X68975908Y-42886524D01*
X68956203Y-42901138D01*
X68935159Y-42913751D01*
X68912981Y-42924241D01*
X68889881Y-42932506D01*
X68866083Y-42938467D01*
X68841814Y-42942067D01*
X68817310Y-42943271D01*
X67892310Y-42943271D01*
X67867806Y-42942067D01*
X67843537Y-42938467D01*
X67819739Y-42932506D01*
X67796639Y-42924241D01*
X67774461Y-42913751D01*
X67753417Y-42901138D01*
X67733712Y-42886524D01*
X67715533Y-42870048D01*
X67699057Y-42851869D01*
X67684443Y-42832164D01*
X67671830Y-42811120D01*
X67661340Y-42788942D01*
X67653075Y-42765842D01*
X67647114Y-42742044D01*
X67643514Y-42717775D01*
X67642310Y-42693271D01*
X67642310Y-41443271D01*
X67643514Y-41418767D01*
X67647114Y-41394498D01*
X67653075Y-41370700D01*
X67661340Y-41347600D01*
X67671830Y-41325422D01*
X67684443Y-41304378D01*
X67699057Y-41284673D01*
X67715533Y-41266494D01*
X67733712Y-41250018D01*
X67753417Y-41235404D01*
X67774461Y-41222791D01*
X67796639Y-41212301D01*
X67819739Y-41204036D01*
X67843537Y-41198075D01*
X67867806Y-41194475D01*
X67892310Y-41193271D01*
X68817310Y-41193271D01*
X68841814Y-41194475D01*
X68841814Y-41194475D01*
G37*
D13*
X68354810Y-42068271D03*
G04 #@! TD*
D10*
G04 #@! TO.C,C10*
G36*
X56687963Y-30619475D02*
X56712232Y-30623075D01*
X56736030Y-30629036D01*
X56759130Y-30637301D01*
X56781308Y-30647791D01*
X56802352Y-30660404D01*
X56822057Y-30675018D01*
X56840236Y-30691494D01*
X56856712Y-30709673D01*
X56871326Y-30729378D01*
X56883939Y-30750422D01*
X56894429Y-30772600D01*
X56902694Y-30795700D01*
X56908655Y-30819498D01*
X56912255Y-30843767D01*
X56913459Y-30868271D01*
X56913459Y-31793271D01*
X56912255Y-31817775D01*
X56908655Y-31842044D01*
X56902694Y-31865842D01*
X56894429Y-31888942D01*
X56883939Y-31911120D01*
X56871326Y-31932164D01*
X56856712Y-31951869D01*
X56840236Y-31970048D01*
X56822057Y-31986524D01*
X56802352Y-32001138D01*
X56781308Y-32013751D01*
X56759130Y-32024241D01*
X56736030Y-32032506D01*
X56712232Y-32038467D01*
X56687963Y-32042067D01*
X56663459Y-32043271D01*
X55413459Y-32043271D01*
X55388955Y-32042067D01*
X55364686Y-32038467D01*
X55340888Y-32032506D01*
X55317788Y-32024241D01*
X55295610Y-32013751D01*
X55274566Y-32001138D01*
X55254861Y-31986524D01*
X55236682Y-31970048D01*
X55220206Y-31951869D01*
X55205592Y-31932164D01*
X55192979Y-31911120D01*
X55182489Y-31888942D01*
X55174224Y-31865842D01*
X55168263Y-31842044D01*
X55164663Y-31817775D01*
X55163459Y-31793271D01*
X55163459Y-30868271D01*
X55164663Y-30843767D01*
X55168263Y-30819498D01*
X55174224Y-30795700D01*
X55182489Y-30772600D01*
X55192979Y-30750422D01*
X55205592Y-30729378D01*
X55220206Y-30709673D01*
X55236682Y-30691494D01*
X55254861Y-30675018D01*
X55274566Y-30660404D01*
X55295610Y-30647791D01*
X55317788Y-30637301D01*
X55340888Y-30629036D01*
X55364686Y-30623075D01*
X55388955Y-30619475D01*
X55413459Y-30618271D01*
X56663459Y-30618271D01*
X56687963Y-30619475D01*
X56687963Y-30619475D01*
G37*
D13*
X56038459Y-31330771D03*
D10*
G36*
X56687963Y-33594475D02*
X56712232Y-33598075D01*
X56736030Y-33604036D01*
X56759130Y-33612301D01*
X56781308Y-33622791D01*
X56802352Y-33635404D01*
X56822057Y-33650018D01*
X56840236Y-33666494D01*
X56856712Y-33684673D01*
X56871326Y-33704378D01*
X56883939Y-33725422D01*
X56894429Y-33747600D01*
X56902694Y-33770700D01*
X56908655Y-33794498D01*
X56912255Y-33818767D01*
X56913459Y-33843271D01*
X56913459Y-34768271D01*
X56912255Y-34792775D01*
X56908655Y-34817044D01*
X56902694Y-34840842D01*
X56894429Y-34863942D01*
X56883939Y-34886120D01*
X56871326Y-34907164D01*
X56856712Y-34926869D01*
X56840236Y-34945048D01*
X56822057Y-34961524D01*
X56802352Y-34976138D01*
X56781308Y-34988751D01*
X56759130Y-34999241D01*
X56736030Y-35007506D01*
X56712232Y-35013467D01*
X56687963Y-35017067D01*
X56663459Y-35018271D01*
X55413459Y-35018271D01*
X55388955Y-35017067D01*
X55364686Y-35013467D01*
X55340888Y-35007506D01*
X55317788Y-34999241D01*
X55295610Y-34988751D01*
X55274566Y-34976138D01*
X55254861Y-34961524D01*
X55236682Y-34945048D01*
X55220206Y-34926869D01*
X55205592Y-34907164D01*
X55192979Y-34886120D01*
X55182489Y-34863942D01*
X55174224Y-34840842D01*
X55168263Y-34817044D01*
X55164663Y-34792775D01*
X55163459Y-34768271D01*
X55163459Y-33843271D01*
X55164663Y-33818767D01*
X55168263Y-33794498D01*
X55174224Y-33770700D01*
X55182489Y-33747600D01*
X55192979Y-33725422D01*
X55205592Y-33704378D01*
X55220206Y-33684673D01*
X55236682Y-33666494D01*
X55254861Y-33650018D01*
X55274566Y-33635404D01*
X55295610Y-33622791D01*
X55317788Y-33612301D01*
X55340888Y-33604036D01*
X55364686Y-33598075D01*
X55388955Y-33594475D01*
X55413459Y-33593271D01*
X56663459Y-33593271D01*
X56687963Y-33594475D01*
X56687963Y-33594475D01*
G37*
D13*
X56038459Y-34305771D03*
G04 #@! TD*
D10*
G04 #@! TO.C,C8*
G36*
X68741814Y-33594475D02*
X68766083Y-33598075D01*
X68789881Y-33604036D01*
X68812981Y-33612301D01*
X68835159Y-33622791D01*
X68856203Y-33635404D01*
X68875908Y-33650018D01*
X68894087Y-33666494D01*
X68910563Y-33684673D01*
X68925177Y-33704378D01*
X68937790Y-33725422D01*
X68948280Y-33747600D01*
X68956545Y-33770700D01*
X68962506Y-33794498D01*
X68966106Y-33818767D01*
X68967310Y-33843271D01*
X68967310Y-34768271D01*
X68966106Y-34792775D01*
X68962506Y-34817044D01*
X68956545Y-34840842D01*
X68948280Y-34863942D01*
X68937790Y-34886120D01*
X68925177Y-34907164D01*
X68910563Y-34926869D01*
X68894087Y-34945048D01*
X68875908Y-34961524D01*
X68856203Y-34976138D01*
X68835159Y-34988751D01*
X68812981Y-34999241D01*
X68789881Y-35007506D01*
X68766083Y-35013467D01*
X68741814Y-35017067D01*
X68717310Y-35018271D01*
X67467310Y-35018271D01*
X67442806Y-35017067D01*
X67418537Y-35013467D01*
X67394739Y-35007506D01*
X67371639Y-34999241D01*
X67349461Y-34988751D01*
X67328417Y-34976138D01*
X67308712Y-34961524D01*
X67290533Y-34945048D01*
X67274057Y-34926869D01*
X67259443Y-34907164D01*
X67246830Y-34886120D01*
X67236340Y-34863942D01*
X67228075Y-34840842D01*
X67222114Y-34817044D01*
X67218514Y-34792775D01*
X67217310Y-34768271D01*
X67217310Y-33843271D01*
X67218514Y-33818767D01*
X67222114Y-33794498D01*
X67228075Y-33770700D01*
X67236340Y-33747600D01*
X67246830Y-33725422D01*
X67259443Y-33704378D01*
X67274057Y-33684673D01*
X67290533Y-33666494D01*
X67308712Y-33650018D01*
X67328417Y-33635404D01*
X67349461Y-33622791D01*
X67371639Y-33612301D01*
X67394739Y-33604036D01*
X67418537Y-33598075D01*
X67442806Y-33594475D01*
X67467310Y-33593271D01*
X68717310Y-33593271D01*
X68741814Y-33594475D01*
X68741814Y-33594475D01*
G37*
D13*
X68092310Y-34305771D03*
D10*
G36*
X68741814Y-30619475D02*
X68766083Y-30623075D01*
X68789881Y-30629036D01*
X68812981Y-30637301D01*
X68835159Y-30647791D01*
X68856203Y-30660404D01*
X68875908Y-30675018D01*
X68894087Y-30691494D01*
X68910563Y-30709673D01*
X68925177Y-30729378D01*
X68937790Y-30750422D01*
X68948280Y-30772600D01*
X68956545Y-30795700D01*
X68962506Y-30819498D01*
X68966106Y-30843767D01*
X68967310Y-30868271D01*
X68967310Y-31793271D01*
X68966106Y-31817775D01*
X68962506Y-31842044D01*
X68956545Y-31865842D01*
X68948280Y-31888942D01*
X68937790Y-31911120D01*
X68925177Y-31932164D01*
X68910563Y-31951869D01*
X68894087Y-31970048D01*
X68875908Y-31986524D01*
X68856203Y-32001138D01*
X68835159Y-32013751D01*
X68812981Y-32024241D01*
X68789881Y-32032506D01*
X68766083Y-32038467D01*
X68741814Y-32042067D01*
X68717310Y-32043271D01*
X67467310Y-32043271D01*
X67442806Y-32042067D01*
X67418537Y-32038467D01*
X67394739Y-32032506D01*
X67371639Y-32024241D01*
X67349461Y-32013751D01*
X67328417Y-32001138D01*
X67308712Y-31986524D01*
X67290533Y-31970048D01*
X67274057Y-31951869D01*
X67259443Y-31932164D01*
X67246830Y-31911120D01*
X67236340Y-31888942D01*
X67228075Y-31865842D01*
X67222114Y-31842044D01*
X67218514Y-31817775D01*
X67217310Y-31793271D01*
X67217310Y-30868271D01*
X67218514Y-30843767D01*
X67222114Y-30819498D01*
X67228075Y-30795700D01*
X67236340Y-30772600D01*
X67246830Y-30750422D01*
X67259443Y-30729378D01*
X67274057Y-30709673D01*
X67290533Y-30691494D01*
X67308712Y-30675018D01*
X67328417Y-30660404D01*
X67349461Y-30647791D01*
X67371639Y-30637301D01*
X67394739Y-30629036D01*
X67418537Y-30623075D01*
X67442806Y-30619475D01*
X67467310Y-30618271D01*
X68717310Y-30618271D01*
X68741814Y-30619475D01*
X68741814Y-30619475D01*
G37*
D13*
X68092310Y-31330771D03*
G04 #@! TD*
D10*
G04 #@! TO.C,C43*
G36*
X53816814Y-41194475D02*
X53841083Y-41198075D01*
X53864881Y-41204036D01*
X53887981Y-41212301D01*
X53910159Y-41222791D01*
X53931203Y-41235404D01*
X53950908Y-41250018D01*
X53969087Y-41266494D01*
X53985563Y-41284673D01*
X54000177Y-41304378D01*
X54012790Y-41325422D01*
X54023280Y-41347600D01*
X54031545Y-41370700D01*
X54037506Y-41394498D01*
X54041106Y-41418767D01*
X54042310Y-41443271D01*
X54042310Y-42693271D01*
X54041106Y-42717775D01*
X54037506Y-42742044D01*
X54031545Y-42765842D01*
X54023280Y-42788942D01*
X54012790Y-42811120D01*
X54000177Y-42832164D01*
X53985563Y-42851869D01*
X53969087Y-42870048D01*
X53950908Y-42886524D01*
X53931203Y-42901138D01*
X53910159Y-42913751D01*
X53887981Y-42924241D01*
X53864881Y-42932506D01*
X53841083Y-42938467D01*
X53816814Y-42942067D01*
X53792310Y-42943271D01*
X52867310Y-42943271D01*
X52842806Y-42942067D01*
X52818537Y-42938467D01*
X52794739Y-42932506D01*
X52771639Y-42924241D01*
X52749461Y-42913751D01*
X52728417Y-42901138D01*
X52708712Y-42886524D01*
X52690533Y-42870048D01*
X52674057Y-42851869D01*
X52659443Y-42832164D01*
X52646830Y-42811120D01*
X52636340Y-42788942D01*
X52628075Y-42765842D01*
X52622114Y-42742044D01*
X52618514Y-42717775D01*
X52617310Y-42693271D01*
X52617310Y-41443271D01*
X52618514Y-41418767D01*
X52622114Y-41394498D01*
X52628075Y-41370700D01*
X52636340Y-41347600D01*
X52646830Y-41325422D01*
X52659443Y-41304378D01*
X52674057Y-41284673D01*
X52690533Y-41266494D01*
X52708712Y-41250018D01*
X52728417Y-41235404D01*
X52749461Y-41222791D01*
X52771639Y-41212301D01*
X52794739Y-41204036D01*
X52818537Y-41198075D01*
X52842806Y-41194475D01*
X52867310Y-41193271D01*
X53792310Y-41193271D01*
X53816814Y-41194475D01*
X53816814Y-41194475D01*
G37*
D13*
X53329810Y-42068271D03*
D10*
G36*
X50841814Y-41194475D02*
X50866083Y-41198075D01*
X50889881Y-41204036D01*
X50912981Y-41212301D01*
X50935159Y-41222791D01*
X50956203Y-41235404D01*
X50975908Y-41250018D01*
X50994087Y-41266494D01*
X51010563Y-41284673D01*
X51025177Y-41304378D01*
X51037790Y-41325422D01*
X51048280Y-41347600D01*
X51056545Y-41370700D01*
X51062506Y-41394498D01*
X51066106Y-41418767D01*
X51067310Y-41443271D01*
X51067310Y-42693271D01*
X51066106Y-42717775D01*
X51062506Y-42742044D01*
X51056545Y-42765842D01*
X51048280Y-42788942D01*
X51037790Y-42811120D01*
X51025177Y-42832164D01*
X51010563Y-42851869D01*
X50994087Y-42870048D01*
X50975908Y-42886524D01*
X50956203Y-42901138D01*
X50935159Y-42913751D01*
X50912981Y-42924241D01*
X50889881Y-42932506D01*
X50866083Y-42938467D01*
X50841814Y-42942067D01*
X50817310Y-42943271D01*
X49892310Y-42943271D01*
X49867806Y-42942067D01*
X49843537Y-42938467D01*
X49819739Y-42932506D01*
X49796639Y-42924241D01*
X49774461Y-42913751D01*
X49753417Y-42901138D01*
X49733712Y-42886524D01*
X49715533Y-42870048D01*
X49699057Y-42851869D01*
X49684443Y-42832164D01*
X49671830Y-42811120D01*
X49661340Y-42788942D01*
X49653075Y-42765842D01*
X49647114Y-42742044D01*
X49643514Y-42717775D01*
X49642310Y-42693271D01*
X49642310Y-41443271D01*
X49643514Y-41418767D01*
X49647114Y-41394498D01*
X49653075Y-41370700D01*
X49661340Y-41347600D01*
X49671830Y-41325422D01*
X49684443Y-41304378D01*
X49699057Y-41284673D01*
X49715533Y-41266494D01*
X49733712Y-41250018D01*
X49753417Y-41235404D01*
X49774461Y-41222791D01*
X49796639Y-41212301D01*
X49819739Y-41204036D01*
X49843537Y-41198075D01*
X49867806Y-41194475D01*
X49892310Y-41193271D01*
X50817310Y-41193271D01*
X50841814Y-41194475D01*
X50841814Y-41194475D01*
G37*
D13*
X50354810Y-42068271D03*
G04 #@! TD*
D10*
G04 #@! TO.C,C42*
G36*
X62741814Y-33594475D02*
X62766083Y-33598075D01*
X62789881Y-33604036D01*
X62812981Y-33612301D01*
X62835159Y-33622791D01*
X62856203Y-33635404D01*
X62875908Y-33650018D01*
X62894087Y-33666494D01*
X62910563Y-33684673D01*
X62925177Y-33704378D01*
X62937790Y-33725422D01*
X62948280Y-33747600D01*
X62956545Y-33770700D01*
X62962506Y-33794498D01*
X62966106Y-33818767D01*
X62967310Y-33843271D01*
X62967310Y-34768271D01*
X62966106Y-34792775D01*
X62962506Y-34817044D01*
X62956545Y-34840842D01*
X62948280Y-34863942D01*
X62937790Y-34886120D01*
X62925177Y-34907164D01*
X62910563Y-34926869D01*
X62894087Y-34945048D01*
X62875908Y-34961524D01*
X62856203Y-34976138D01*
X62835159Y-34988751D01*
X62812981Y-34999241D01*
X62789881Y-35007506D01*
X62766083Y-35013467D01*
X62741814Y-35017067D01*
X62717310Y-35018271D01*
X61467310Y-35018271D01*
X61442806Y-35017067D01*
X61418537Y-35013467D01*
X61394739Y-35007506D01*
X61371639Y-34999241D01*
X61349461Y-34988751D01*
X61328417Y-34976138D01*
X61308712Y-34961524D01*
X61290533Y-34945048D01*
X61274057Y-34926869D01*
X61259443Y-34907164D01*
X61246830Y-34886120D01*
X61236340Y-34863942D01*
X61228075Y-34840842D01*
X61222114Y-34817044D01*
X61218514Y-34792775D01*
X61217310Y-34768271D01*
X61217310Y-33843271D01*
X61218514Y-33818767D01*
X61222114Y-33794498D01*
X61228075Y-33770700D01*
X61236340Y-33747600D01*
X61246830Y-33725422D01*
X61259443Y-33704378D01*
X61274057Y-33684673D01*
X61290533Y-33666494D01*
X61308712Y-33650018D01*
X61328417Y-33635404D01*
X61349461Y-33622791D01*
X61371639Y-33612301D01*
X61394739Y-33604036D01*
X61418537Y-33598075D01*
X61442806Y-33594475D01*
X61467310Y-33593271D01*
X62717310Y-33593271D01*
X62741814Y-33594475D01*
X62741814Y-33594475D01*
G37*
D13*
X62092310Y-34305771D03*
D10*
G36*
X62741814Y-30619475D02*
X62766083Y-30623075D01*
X62789881Y-30629036D01*
X62812981Y-30637301D01*
X62835159Y-30647791D01*
X62856203Y-30660404D01*
X62875908Y-30675018D01*
X62894087Y-30691494D01*
X62910563Y-30709673D01*
X62925177Y-30729378D01*
X62937790Y-30750422D01*
X62948280Y-30772600D01*
X62956545Y-30795700D01*
X62962506Y-30819498D01*
X62966106Y-30843767D01*
X62967310Y-30868271D01*
X62967310Y-31793271D01*
X62966106Y-31817775D01*
X62962506Y-31842044D01*
X62956545Y-31865842D01*
X62948280Y-31888942D01*
X62937790Y-31911120D01*
X62925177Y-31932164D01*
X62910563Y-31951869D01*
X62894087Y-31970048D01*
X62875908Y-31986524D01*
X62856203Y-32001138D01*
X62835159Y-32013751D01*
X62812981Y-32024241D01*
X62789881Y-32032506D01*
X62766083Y-32038467D01*
X62741814Y-32042067D01*
X62717310Y-32043271D01*
X61467310Y-32043271D01*
X61442806Y-32042067D01*
X61418537Y-32038467D01*
X61394739Y-32032506D01*
X61371639Y-32024241D01*
X61349461Y-32013751D01*
X61328417Y-32001138D01*
X61308712Y-31986524D01*
X61290533Y-31970048D01*
X61274057Y-31951869D01*
X61259443Y-31932164D01*
X61246830Y-31911120D01*
X61236340Y-31888942D01*
X61228075Y-31865842D01*
X61222114Y-31842044D01*
X61218514Y-31817775D01*
X61217310Y-31793271D01*
X61217310Y-30868271D01*
X61218514Y-30843767D01*
X61222114Y-30819498D01*
X61228075Y-30795700D01*
X61236340Y-30772600D01*
X61246830Y-30750422D01*
X61259443Y-30729378D01*
X61274057Y-30709673D01*
X61290533Y-30691494D01*
X61308712Y-30675018D01*
X61328417Y-30660404D01*
X61349461Y-30647791D01*
X61371639Y-30637301D01*
X61394739Y-30629036D01*
X61418537Y-30623075D01*
X61442806Y-30619475D01*
X61467310Y-30618271D01*
X62717310Y-30618271D01*
X62741814Y-30619475D01*
X62741814Y-30619475D01*
G37*
D13*
X62092310Y-31330771D03*
G04 #@! TD*
D10*
G04 #@! TO.C,C41*
G36*
X65816814Y-41194475D02*
X65841083Y-41198075D01*
X65864881Y-41204036D01*
X65887981Y-41212301D01*
X65910159Y-41222791D01*
X65931203Y-41235404D01*
X65950908Y-41250018D01*
X65969087Y-41266494D01*
X65985563Y-41284673D01*
X66000177Y-41304378D01*
X66012790Y-41325422D01*
X66023280Y-41347600D01*
X66031545Y-41370700D01*
X66037506Y-41394498D01*
X66041106Y-41418767D01*
X66042310Y-41443271D01*
X66042310Y-42693271D01*
X66041106Y-42717775D01*
X66037506Y-42742044D01*
X66031545Y-42765842D01*
X66023280Y-42788942D01*
X66012790Y-42811120D01*
X66000177Y-42832164D01*
X65985563Y-42851869D01*
X65969087Y-42870048D01*
X65950908Y-42886524D01*
X65931203Y-42901138D01*
X65910159Y-42913751D01*
X65887981Y-42924241D01*
X65864881Y-42932506D01*
X65841083Y-42938467D01*
X65816814Y-42942067D01*
X65792310Y-42943271D01*
X64867310Y-42943271D01*
X64842806Y-42942067D01*
X64818537Y-42938467D01*
X64794739Y-42932506D01*
X64771639Y-42924241D01*
X64749461Y-42913751D01*
X64728417Y-42901138D01*
X64708712Y-42886524D01*
X64690533Y-42870048D01*
X64674057Y-42851869D01*
X64659443Y-42832164D01*
X64646830Y-42811120D01*
X64636340Y-42788942D01*
X64628075Y-42765842D01*
X64622114Y-42742044D01*
X64618514Y-42717775D01*
X64617310Y-42693271D01*
X64617310Y-41443271D01*
X64618514Y-41418767D01*
X64622114Y-41394498D01*
X64628075Y-41370700D01*
X64636340Y-41347600D01*
X64646830Y-41325422D01*
X64659443Y-41304378D01*
X64674057Y-41284673D01*
X64690533Y-41266494D01*
X64708712Y-41250018D01*
X64728417Y-41235404D01*
X64749461Y-41222791D01*
X64771639Y-41212301D01*
X64794739Y-41204036D01*
X64818537Y-41198075D01*
X64842806Y-41194475D01*
X64867310Y-41193271D01*
X65792310Y-41193271D01*
X65816814Y-41194475D01*
X65816814Y-41194475D01*
G37*
D13*
X65329810Y-42068271D03*
D10*
G36*
X62841814Y-41194475D02*
X62866083Y-41198075D01*
X62889881Y-41204036D01*
X62912981Y-41212301D01*
X62935159Y-41222791D01*
X62956203Y-41235404D01*
X62975908Y-41250018D01*
X62994087Y-41266494D01*
X63010563Y-41284673D01*
X63025177Y-41304378D01*
X63037790Y-41325422D01*
X63048280Y-41347600D01*
X63056545Y-41370700D01*
X63062506Y-41394498D01*
X63066106Y-41418767D01*
X63067310Y-41443271D01*
X63067310Y-42693271D01*
X63066106Y-42717775D01*
X63062506Y-42742044D01*
X63056545Y-42765842D01*
X63048280Y-42788942D01*
X63037790Y-42811120D01*
X63025177Y-42832164D01*
X63010563Y-42851869D01*
X62994087Y-42870048D01*
X62975908Y-42886524D01*
X62956203Y-42901138D01*
X62935159Y-42913751D01*
X62912981Y-42924241D01*
X62889881Y-42932506D01*
X62866083Y-42938467D01*
X62841814Y-42942067D01*
X62817310Y-42943271D01*
X61892310Y-42943271D01*
X61867806Y-42942067D01*
X61843537Y-42938467D01*
X61819739Y-42932506D01*
X61796639Y-42924241D01*
X61774461Y-42913751D01*
X61753417Y-42901138D01*
X61733712Y-42886524D01*
X61715533Y-42870048D01*
X61699057Y-42851869D01*
X61684443Y-42832164D01*
X61671830Y-42811120D01*
X61661340Y-42788942D01*
X61653075Y-42765842D01*
X61647114Y-42742044D01*
X61643514Y-42717775D01*
X61642310Y-42693271D01*
X61642310Y-41443271D01*
X61643514Y-41418767D01*
X61647114Y-41394498D01*
X61653075Y-41370700D01*
X61661340Y-41347600D01*
X61671830Y-41325422D01*
X61684443Y-41304378D01*
X61699057Y-41284673D01*
X61715533Y-41266494D01*
X61733712Y-41250018D01*
X61753417Y-41235404D01*
X61774461Y-41222791D01*
X61796639Y-41212301D01*
X61819739Y-41204036D01*
X61843537Y-41198075D01*
X61867806Y-41194475D01*
X61892310Y-41193271D01*
X62817310Y-41193271D01*
X62841814Y-41194475D01*
X62841814Y-41194475D01*
G37*
D13*
X62354810Y-42068271D03*
G04 #@! TD*
D10*
G04 #@! TO.C,C9*
G36*
X56841814Y-41194475D02*
X56866083Y-41198075D01*
X56889881Y-41204036D01*
X56912981Y-41212301D01*
X56935159Y-41222791D01*
X56956203Y-41235404D01*
X56975908Y-41250018D01*
X56994087Y-41266494D01*
X57010563Y-41284673D01*
X57025177Y-41304378D01*
X57037790Y-41325422D01*
X57048280Y-41347600D01*
X57056545Y-41370700D01*
X57062506Y-41394498D01*
X57066106Y-41418767D01*
X57067310Y-41443271D01*
X57067310Y-42693271D01*
X57066106Y-42717775D01*
X57062506Y-42742044D01*
X57056545Y-42765842D01*
X57048280Y-42788942D01*
X57037790Y-42811120D01*
X57025177Y-42832164D01*
X57010563Y-42851869D01*
X56994087Y-42870048D01*
X56975908Y-42886524D01*
X56956203Y-42901138D01*
X56935159Y-42913751D01*
X56912981Y-42924241D01*
X56889881Y-42932506D01*
X56866083Y-42938467D01*
X56841814Y-42942067D01*
X56817310Y-42943271D01*
X55892310Y-42943271D01*
X55867806Y-42942067D01*
X55843537Y-42938467D01*
X55819739Y-42932506D01*
X55796639Y-42924241D01*
X55774461Y-42913751D01*
X55753417Y-42901138D01*
X55733712Y-42886524D01*
X55715533Y-42870048D01*
X55699057Y-42851869D01*
X55684443Y-42832164D01*
X55671830Y-42811120D01*
X55661340Y-42788942D01*
X55653075Y-42765842D01*
X55647114Y-42742044D01*
X55643514Y-42717775D01*
X55642310Y-42693271D01*
X55642310Y-41443271D01*
X55643514Y-41418767D01*
X55647114Y-41394498D01*
X55653075Y-41370700D01*
X55661340Y-41347600D01*
X55671830Y-41325422D01*
X55684443Y-41304378D01*
X55699057Y-41284673D01*
X55715533Y-41266494D01*
X55733712Y-41250018D01*
X55753417Y-41235404D01*
X55774461Y-41222791D01*
X55796639Y-41212301D01*
X55819739Y-41204036D01*
X55843537Y-41198075D01*
X55867806Y-41194475D01*
X55892310Y-41193271D01*
X56817310Y-41193271D01*
X56841814Y-41194475D01*
X56841814Y-41194475D01*
G37*
D13*
X56354810Y-42068271D03*
D10*
G36*
X59816814Y-41194475D02*
X59841083Y-41198075D01*
X59864881Y-41204036D01*
X59887981Y-41212301D01*
X59910159Y-41222791D01*
X59931203Y-41235404D01*
X59950908Y-41250018D01*
X59969087Y-41266494D01*
X59985563Y-41284673D01*
X60000177Y-41304378D01*
X60012790Y-41325422D01*
X60023280Y-41347600D01*
X60031545Y-41370700D01*
X60037506Y-41394498D01*
X60041106Y-41418767D01*
X60042310Y-41443271D01*
X60042310Y-42693271D01*
X60041106Y-42717775D01*
X60037506Y-42742044D01*
X60031545Y-42765842D01*
X60023280Y-42788942D01*
X60012790Y-42811120D01*
X60000177Y-42832164D01*
X59985563Y-42851869D01*
X59969087Y-42870048D01*
X59950908Y-42886524D01*
X59931203Y-42901138D01*
X59910159Y-42913751D01*
X59887981Y-42924241D01*
X59864881Y-42932506D01*
X59841083Y-42938467D01*
X59816814Y-42942067D01*
X59792310Y-42943271D01*
X58867310Y-42943271D01*
X58842806Y-42942067D01*
X58818537Y-42938467D01*
X58794739Y-42932506D01*
X58771639Y-42924241D01*
X58749461Y-42913751D01*
X58728417Y-42901138D01*
X58708712Y-42886524D01*
X58690533Y-42870048D01*
X58674057Y-42851869D01*
X58659443Y-42832164D01*
X58646830Y-42811120D01*
X58636340Y-42788942D01*
X58628075Y-42765842D01*
X58622114Y-42742044D01*
X58618514Y-42717775D01*
X58617310Y-42693271D01*
X58617310Y-41443271D01*
X58618514Y-41418767D01*
X58622114Y-41394498D01*
X58628075Y-41370700D01*
X58636340Y-41347600D01*
X58646830Y-41325422D01*
X58659443Y-41304378D01*
X58674057Y-41284673D01*
X58690533Y-41266494D01*
X58708712Y-41250018D01*
X58728417Y-41235404D01*
X58749461Y-41222791D01*
X58771639Y-41212301D01*
X58794739Y-41204036D01*
X58818537Y-41198075D01*
X58842806Y-41194475D01*
X58867310Y-41193271D01*
X59792310Y-41193271D01*
X59816814Y-41194475D01*
X59816814Y-41194475D01*
G37*
D13*
X59329810Y-42068271D03*
G04 #@! TD*
M02*
