G04 #@! TF.GenerationSoftware,KiCad,Pcbnew,5.0.2-bee76a0~70~ubuntu18.04.1*
G04 #@! TF.CreationDate,2019-10-10T22:37:19-05:00*
G04 #@! TF.ProjectId,nvmeter,6e766d65-7465-4722-9e6b-696361645f70,rev?*
G04 #@! TF.SameCoordinates,Original*
G04 #@! TF.FileFunction,Soldermask,Top*
G04 #@! TF.FilePolarity,Negative*
%FSLAX46Y46*%
G04 Gerber Fmt 4.6, Leading zero omitted, Abs format (unit mm)*
G04 Created by KiCad (PCBNEW 5.0.2-bee76a0~70~ubuntu18.04.1) date Thu 10 Oct 2019 10:37:19 PM CDT*
%MOMM*%
%LPD*%
G01*
G04 APERTURE LIST*
%ADD10C,0.100000*%
G04 APERTURE END LIST*
D10*
G36*
X70989303Y-92541495D02*
X71095626Y-92562644D01*
X71396089Y-92687100D01*
X71662899Y-92865377D01*
X71666501Y-92867784D01*
X71896460Y-93097743D01*
X72077145Y-93368157D01*
X72201600Y-93668619D01*
X72265047Y-93987586D01*
X72265047Y-94312808D01*
X72201600Y-94631775D01*
X72077145Y-94932237D01*
X71896460Y-95202651D01*
X71666501Y-95432610D01*
X71666498Y-95432612D01*
X71396089Y-95613294D01*
X71095626Y-95737750D01*
X70989303Y-95758899D01*
X70776658Y-95801197D01*
X70451436Y-95801197D01*
X70238791Y-95758899D01*
X70132468Y-95737750D01*
X69832005Y-95613294D01*
X69561596Y-95432612D01*
X69561593Y-95432610D01*
X69331634Y-95202651D01*
X69150949Y-94932237D01*
X69026494Y-94631775D01*
X68963047Y-94312808D01*
X68963047Y-93987586D01*
X69026494Y-93668619D01*
X69150949Y-93368157D01*
X69331634Y-93097743D01*
X69561593Y-92867784D01*
X69565195Y-92865377D01*
X69832005Y-92687100D01*
X70132468Y-92562644D01*
X70238791Y-92541495D01*
X70451436Y-92499197D01*
X70776658Y-92499197D01*
X70989303Y-92541495D01*
X70989303Y-92541495D01*
G37*
G36*
X21989303Y-92541495D02*
X22095626Y-92562644D01*
X22396089Y-92687100D01*
X22662899Y-92865377D01*
X22666501Y-92867784D01*
X22896460Y-93097743D01*
X23077145Y-93368157D01*
X23201600Y-93668619D01*
X23265047Y-93987586D01*
X23265047Y-94312808D01*
X23201600Y-94631775D01*
X23077145Y-94932237D01*
X22896460Y-95202651D01*
X22666501Y-95432610D01*
X22666498Y-95432612D01*
X22396089Y-95613294D01*
X22095626Y-95737750D01*
X21989303Y-95758899D01*
X21776658Y-95801197D01*
X21451436Y-95801197D01*
X21238791Y-95758899D01*
X21132468Y-95737750D01*
X20832005Y-95613294D01*
X20561596Y-95432612D01*
X20561593Y-95432610D01*
X20331634Y-95202651D01*
X20150949Y-94932237D01*
X20026494Y-94631775D01*
X19963047Y-94312808D01*
X19963047Y-93987586D01*
X20026494Y-93668619D01*
X20150949Y-93368157D01*
X20331634Y-93097743D01*
X20561593Y-92867784D01*
X20565195Y-92865377D01*
X20832005Y-92687100D01*
X21132468Y-92562644D01*
X21238791Y-92541495D01*
X21451436Y-92499197D01*
X21776658Y-92499197D01*
X21989303Y-92541495D01*
X21989303Y-92541495D01*
G37*
G36*
X60810645Y-93292566D02*
X49908645Y-93292566D01*
X49908645Y-83790566D01*
X60810645Y-83790566D01*
X60810645Y-93292566D01*
X60810645Y-93292566D01*
G37*
G36*
X70763377Y-80286538D02*
X70763379Y-80286539D01*
X70763380Y-80286539D01*
X71136638Y-80441147D01*
X71136639Y-80441148D01*
X71472564Y-80665606D01*
X71758239Y-80951281D01*
X71758241Y-80951284D01*
X71982698Y-81287207D01*
X72127054Y-81635714D01*
X72137307Y-81660468D01*
X72166294Y-81806197D01*
X72216125Y-82056714D01*
X72216125Y-82460726D01*
X72137306Y-82856975D01*
X71982698Y-83230233D01*
X71982697Y-83230234D01*
X71758239Y-83566159D01*
X71472564Y-83851834D01*
X71472561Y-83851836D01*
X71136638Y-84076293D01*
X70763380Y-84230901D01*
X70763379Y-84230901D01*
X70763377Y-84230902D01*
X70367132Y-84309720D01*
X69963118Y-84309720D01*
X69566873Y-84230902D01*
X69566871Y-84230901D01*
X69566870Y-84230901D01*
X69193612Y-84076293D01*
X68857689Y-83851836D01*
X68857686Y-83851834D01*
X68572011Y-83566159D01*
X68347553Y-83230234D01*
X68347552Y-83230233D01*
X68192944Y-82856975D01*
X68114125Y-82460726D01*
X68114125Y-82056714D01*
X68163956Y-81806197D01*
X68192943Y-81660468D01*
X68203196Y-81635714D01*
X68347552Y-81287207D01*
X68572009Y-80951284D01*
X68572011Y-80951281D01*
X68857686Y-80665606D01*
X69193611Y-80441148D01*
X69193612Y-80441147D01*
X69566870Y-80286539D01*
X69566871Y-80286539D01*
X69566873Y-80286538D01*
X69963118Y-80207720D01*
X70367132Y-80207720D01*
X70763377Y-80286538D01*
X70763377Y-80286538D01*
G37*
G36*
X62935207Y-81594747D02*
X62970122Y-81605339D01*
X63002310Y-81622544D01*
X63030518Y-81645693D01*
X63053667Y-81673901D01*
X63070872Y-81706089D01*
X63081464Y-81741004D01*
X63085645Y-81783461D01*
X63085645Y-82924671D01*
X63081464Y-82967128D01*
X63070872Y-83002043D01*
X63053667Y-83034231D01*
X63030518Y-83062439D01*
X63002310Y-83085588D01*
X62970122Y-83102793D01*
X62935207Y-83113385D01*
X62892750Y-83117566D01*
X61426540Y-83117566D01*
X61384083Y-83113385D01*
X61349168Y-83102793D01*
X61316980Y-83085588D01*
X61288772Y-83062439D01*
X61265623Y-83034231D01*
X61248418Y-83002043D01*
X61237826Y-82967128D01*
X61233645Y-82924671D01*
X61233645Y-81783461D01*
X61237826Y-81741004D01*
X61248418Y-81706089D01*
X61265623Y-81673901D01*
X61288772Y-81645693D01*
X61316980Y-81622544D01*
X61349168Y-81605339D01*
X61384083Y-81594747D01*
X61426540Y-81590566D01*
X62892750Y-81590566D01*
X62935207Y-81594747D01*
X62935207Y-81594747D01*
G37*
G36*
X65335207Y-81594747D02*
X65370122Y-81605339D01*
X65402310Y-81622544D01*
X65430518Y-81645693D01*
X65453667Y-81673901D01*
X65470872Y-81706089D01*
X65481464Y-81741004D01*
X65485645Y-81783461D01*
X65485645Y-82924671D01*
X65481464Y-82967128D01*
X65470872Y-83002043D01*
X65453667Y-83034231D01*
X65430518Y-83062439D01*
X65402310Y-83085588D01*
X65370122Y-83102793D01*
X65335207Y-83113385D01*
X65292750Y-83117566D01*
X63826540Y-83117566D01*
X63784083Y-83113385D01*
X63749168Y-83102793D01*
X63716980Y-83085588D01*
X63688772Y-83062439D01*
X63665623Y-83034231D01*
X63648418Y-83002043D01*
X63637826Y-82967128D01*
X63633645Y-82924671D01*
X63633645Y-81783461D01*
X63637826Y-81741004D01*
X63648418Y-81706089D01*
X63665623Y-81673901D01*
X63688772Y-81645693D01*
X63716980Y-81622544D01*
X63749168Y-81605339D01*
X63784083Y-81594747D01*
X63826540Y-81590566D01*
X65292750Y-81590566D01*
X65335207Y-81594747D01*
X65335207Y-81594747D01*
G37*
G36*
X58500645Y-81742566D02*
X57298645Y-81742566D01*
X57298645Y-77040566D01*
X58500645Y-77040566D01*
X58500645Y-81742566D01*
X58500645Y-81742566D01*
G37*
G36*
X53420645Y-81742566D02*
X52218645Y-81742566D01*
X52218645Y-77040566D01*
X53420645Y-77040566D01*
X53420645Y-81742566D01*
X53420645Y-81742566D01*
G37*
G36*
X62935207Y-78619747D02*
X62970122Y-78630339D01*
X63002310Y-78647544D01*
X63030518Y-78670693D01*
X63053667Y-78698901D01*
X63070872Y-78731089D01*
X63081464Y-78766004D01*
X63085645Y-78808461D01*
X63085645Y-79949671D01*
X63081464Y-79992128D01*
X63070872Y-80027043D01*
X63053667Y-80059231D01*
X63030518Y-80087439D01*
X63002310Y-80110588D01*
X62970122Y-80127793D01*
X62935207Y-80138385D01*
X62892750Y-80142566D01*
X61426540Y-80142566D01*
X61384083Y-80138385D01*
X61349168Y-80127793D01*
X61316980Y-80110588D01*
X61288772Y-80087439D01*
X61265623Y-80059231D01*
X61248418Y-80027043D01*
X61237826Y-79992128D01*
X61233645Y-79949671D01*
X61233645Y-78808461D01*
X61237826Y-78766004D01*
X61248418Y-78731089D01*
X61265623Y-78698901D01*
X61288772Y-78670693D01*
X61316980Y-78647544D01*
X61349168Y-78630339D01*
X61384083Y-78619747D01*
X61426540Y-78615566D01*
X62892750Y-78615566D01*
X62935207Y-78619747D01*
X62935207Y-78619747D01*
G37*
G36*
X65335207Y-78619747D02*
X65370122Y-78630339D01*
X65402310Y-78647544D01*
X65430518Y-78670693D01*
X65453667Y-78698901D01*
X65470872Y-78731089D01*
X65481464Y-78766004D01*
X65485645Y-78808461D01*
X65485645Y-79949671D01*
X65481464Y-79992128D01*
X65470872Y-80027043D01*
X65453667Y-80059231D01*
X65430518Y-80087439D01*
X65402310Y-80110588D01*
X65370122Y-80127793D01*
X65335207Y-80138385D01*
X65292750Y-80142566D01*
X63826540Y-80142566D01*
X63784083Y-80138385D01*
X63749168Y-80127793D01*
X63716980Y-80110588D01*
X63688772Y-80087439D01*
X63665623Y-80059231D01*
X63648418Y-80027043D01*
X63637826Y-79992128D01*
X63633645Y-79949671D01*
X63633645Y-78808461D01*
X63637826Y-78766004D01*
X63648418Y-78731089D01*
X63665623Y-78698901D01*
X63688772Y-78670693D01*
X63716980Y-78647544D01*
X63749168Y-78630339D01*
X63784083Y-78619747D01*
X63826540Y-78615566D01*
X65292750Y-78615566D01*
X65335207Y-78619747D01*
X65335207Y-78619747D01*
G37*
G36*
X70763377Y-72666538D02*
X70763379Y-72666539D01*
X70763380Y-72666539D01*
X71136638Y-72821147D01*
X71136639Y-72821148D01*
X71472564Y-73045606D01*
X71758239Y-73331281D01*
X71758241Y-73331284D01*
X71982698Y-73667207D01*
X72079224Y-73900243D01*
X72137307Y-74040468D01*
X72216125Y-74436713D01*
X72216125Y-74840727D01*
X72176453Y-75040173D01*
X72137306Y-75236975D01*
X71982698Y-75610233D01*
X71961129Y-75642513D01*
X71758239Y-75946159D01*
X71472564Y-76231834D01*
X71472561Y-76231836D01*
X71136638Y-76456293D01*
X70763380Y-76610901D01*
X70763379Y-76610901D01*
X70763377Y-76610902D01*
X70367132Y-76689720D01*
X69963118Y-76689720D01*
X69566873Y-76610902D01*
X69566871Y-76610901D01*
X69566870Y-76610901D01*
X69193612Y-76456293D01*
X68857689Y-76231836D01*
X68857686Y-76231834D01*
X68572011Y-75946159D01*
X68369121Y-75642513D01*
X68347552Y-75610233D01*
X68192944Y-75236975D01*
X68153798Y-75040173D01*
X68114125Y-74840727D01*
X68114125Y-74436713D01*
X68192943Y-74040468D01*
X68251026Y-73900243D01*
X68347552Y-73667207D01*
X68572009Y-73331284D01*
X68572011Y-73331281D01*
X68857686Y-73045606D01*
X69193611Y-72821148D01*
X69193612Y-72821147D01*
X69566870Y-72666539D01*
X69566871Y-72666539D01*
X69566873Y-72666538D01*
X69963118Y-72587720D01*
X70367132Y-72587720D01*
X70763377Y-72666538D01*
X70763377Y-72666538D01*
G37*
G36*
X53275765Y-75557515D02*
X53313259Y-75568889D01*
X53347823Y-75587364D01*
X53378113Y-75612223D01*
X53402972Y-75642513D01*
X53421447Y-75677077D01*
X53432821Y-75714571D01*
X53437266Y-75759708D01*
X53437266Y-76398432D01*
X53432821Y-76443569D01*
X53421447Y-76481063D01*
X53402972Y-76515627D01*
X53378113Y-76545917D01*
X53347823Y-76570776D01*
X53313259Y-76589251D01*
X53275765Y-76600625D01*
X53230628Y-76605070D01*
X52491904Y-76605070D01*
X52446767Y-76600625D01*
X52409273Y-76589251D01*
X52374709Y-76570776D01*
X52344419Y-76545917D01*
X52319560Y-76515627D01*
X52301085Y-76481063D01*
X52289711Y-76443569D01*
X52285266Y-76398432D01*
X52285266Y-75759708D01*
X52289711Y-75714571D01*
X52301085Y-75677077D01*
X52319560Y-75642513D01*
X52344419Y-75612223D01*
X52374709Y-75587364D01*
X52409273Y-75568889D01*
X52446767Y-75557515D01*
X52491904Y-75553070D01*
X53230628Y-75553070D01*
X53275765Y-75557515D01*
X53275765Y-75557515D01*
G37*
G36*
X55025765Y-75557515D02*
X55063259Y-75568889D01*
X55097823Y-75587364D01*
X55128113Y-75612223D01*
X55152972Y-75642513D01*
X55171447Y-75677077D01*
X55182821Y-75714571D01*
X55187266Y-75759708D01*
X55187266Y-76398432D01*
X55182821Y-76443569D01*
X55171447Y-76481063D01*
X55152972Y-76515627D01*
X55128113Y-76545917D01*
X55097823Y-76570776D01*
X55063259Y-76589251D01*
X55025765Y-76600625D01*
X54980628Y-76605070D01*
X54241904Y-76605070D01*
X54196767Y-76600625D01*
X54159273Y-76589251D01*
X54124709Y-76570776D01*
X54094419Y-76545917D01*
X54069560Y-76515627D01*
X54051085Y-76481063D01*
X54039711Y-76443569D01*
X54035266Y-76398432D01*
X54035266Y-75759708D01*
X54039711Y-75714571D01*
X54051085Y-75677077D01*
X54069560Y-75642513D01*
X54094419Y-75612223D01*
X54124709Y-75587364D01*
X54159273Y-75568889D01*
X54196767Y-75557515D01*
X54241904Y-75553070D01*
X54980628Y-75553070D01*
X55025765Y-75557515D01*
X55025765Y-75557515D01*
G37*
G36*
X53374943Y-73632535D02*
X53412630Y-73643968D01*
X53447369Y-73662536D01*
X53477814Y-73687522D01*
X53502800Y-73717967D01*
X53521368Y-73752706D01*
X53532801Y-73790393D01*
X53537266Y-73835731D01*
X53537266Y-74922409D01*
X53532801Y-74967747D01*
X53521368Y-75005434D01*
X53502800Y-75040173D01*
X53477814Y-75070618D01*
X53447369Y-75095604D01*
X53412630Y-75114172D01*
X53374943Y-75125605D01*
X53329605Y-75130070D01*
X52492927Y-75130070D01*
X52447589Y-75125605D01*
X52409902Y-75114172D01*
X52375163Y-75095604D01*
X52344718Y-75070618D01*
X52319732Y-75040173D01*
X52301164Y-75005434D01*
X52289731Y-74967747D01*
X52285266Y-74922409D01*
X52285266Y-73835731D01*
X52289731Y-73790393D01*
X52301164Y-73752706D01*
X52319732Y-73717967D01*
X52344718Y-73687522D01*
X52375163Y-73662536D01*
X52409902Y-73643968D01*
X52447589Y-73632535D01*
X52492927Y-73628070D01*
X53329605Y-73628070D01*
X53374943Y-73632535D01*
X53374943Y-73632535D01*
G37*
G36*
X55424943Y-73632535D02*
X55462630Y-73643968D01*
X55497369Y-73662536D01*
X55527814Y-73687522D01*
X55552800Y-73717967D01*
X55571368Y-73752706D01*
X55582801Y-73790393D01*
X55587266Y-73835731D01*
X55587266Y-74922409D01*
X55582801Y-74967747D01*
X55571368Y-75005434D01*
X55552800Y-75040173D01*
X55527814Y-75070618D01*
X55497369Y-75095604D01*
X55462630Y-75114172D01*
X55424943Y-75125605D01*
X55379605Y-75130070D01*
X54542927Y-75130070D01*
X54497589Y-75125605D01*
X54459902Y-75114172D01*
X54425163Y-75095604D01*
X54394718Y-75070618D01*
X54369732Y-75040173D01*
X54351164Y-75005434D01*
X54339731Y-74967747D01*
X54335266Y-74922409D01*
X54335266Y-73835731D01*
X54339731Y-73790393D01*
X54351164Y-73752706D01*
X54369732Y-73717967D01*
X54394718Y-73687522D01*
X54425163Y-73662536D01*
X54459902Y-73643968D01*
X54497589Y-73632535D01*
X54542927Y-73628070D01*
X55379605Y-73628070D01*
X55424943Y-73632535D01*
X55424943Y-73632535D01*
G37*
G36*
X53479542Y-73036894D02*
X52577542Y-73036894D01*
X52577542Y-72334894D01*
X53479542Y-72334894D01*
X53479542Y-73036894D01*
X53479542Y-73036894D01*
G37*
G36*
X53479542Y-71336894D02*
X52577542Y-71336894D01*
X52577542Y-70634894D01*
X53479542Y-70634894D01*
X53479542Y-71336894D01*
X53479542Y-71336894D01*
G37*
G36*
X60871613Y-69705506D02*
X49969613Y-69705506D01*
X49969613Y-60203506D01*
X60871613Y-60203506D01*
X60871613Y-69705506D01*
X60871613Y-69705506D01*
G37*
G36*
X29064489Y-66455715D02*
X29130674Y-66462234D01*
X29243900Y-66496581D01*
X29300514Y-66513754D01*
X29439134Y-66587849D01*
X29457038Y-66597419D01*
X29492776Y-66626749D01*
X29594233Y-66710011D01*
X29677495Y-66811468D01*
X29706825Y-66847206D01*
X29706826Y-66847208D01*
X29790490Y-67003730D01*
X29790490Y-67003731D01*
X29842010Y-67173570D01*
X29859406Y-67350197D01*
X29842010Y-67526824D01*
X29807663Y-67640050D01*
X29790490Y-67696664D01*
X29716395Y-67835284D01*
X29706825Y-67853188D01*
X29677495Y-67888926D01*
X29594233Y-67990383D01*
X29492776Y-68073645D01*
X29457038Y-68102975D01*
X29457036Y-68102976D01*
X29300514Y-68186640D01*
X29243900Y-68203813D01*
X29130674Y-68238160D01*
X29064489Y-68244679D01*
X28998307Y-68251197D01*
X28909787Y-68251197D01*
X28843605Y-68244679D01*
X28777420Y-68238160D01*
X28664194Y-68203813D01*
X28607580Y-68186640D01*
X28451058Y-68102976D01*
X28451056Y-68102975D01*
X28415318Y-68073645D01*
X28313861Y-67990383D01*
X28230599Y-67888926D01*
X28201269Y-67853188D01*
X28191699Y-67835284D01*
X28117604Y-67696664D01*
X28100431Y-67640050D01*
X28066084Y-67526824D01*
X28048688Y-67350197D01*
X28066084Y-67173570D01*
X28117604Y-67003731D01*
X28117604Y-67003730D01*
X28201268Y-66847208D01*
X28201269Y-66847206D01*
X28230599Y-66811468D01*
X28313861Y-66710011D01*
X28415318Y-66626749D01*
X28451056Y-66597419D01*
X28468960Y-66587849D01*
X28607580Y-66513754D01*
X28664194Y-66496581D01*
X28777420Y-66462234D01*
X28843605Y-66455715D01*
X28909787Y-66449197D01*
X28998307Y-66449197D01*
X29064489Y-66455715D01*
X29064489Y-66455715D01*
G37*
G36*
X23984489Y-66455715D02*
X24050674Y-66462234D01*
X24163900Y-66496581D01*
X24220514Y-66513754D01*
X24359134Y-66587849D01*
X24377038Y-66597419D01*
X24412776Y-66626749D01*
X24514233Y-66710011D01*
X24597495Y-66811468D01*
X24626825Y-66847206D01*
X24626826Y-66847208D01*
X24710490Y-67003730D01*
X24710490Y-67003731D01*
X24762010Y-67173570D01*
X24779406Y-67350197D01*
X24762010Y-67526824D01*
X24727663Y-67640050D01*
X24710490Y-67696664D01*
X24636395Y-67835284D01*
X24626825Y-67853188D01*
X24597495Y-67888926D01*
X24514233Y-67990383D01*
X24412776Y-68073645D01*
X24377038Y-68102975D01*
X24377036Y-68102976D01*
X24220514Y-68186640D01*
X24163900Y-68203813D01*
X24050674Y-68238160D01*
X23984489Y-68244679D01*
X23918307Y-68251197D01*
X23829787Y-68251197D01*
X23763605Y-68244679D01*
X23697420Y-68238160D01*
X23584194Y-68203813D01*
X23527580Y-68186640D01*
X23371058Y-68102976D01*
X23371056Y-68102975D01*
X23335318Y-68073645D01*
X23233861Y-67990383D01*
X23150599Y-67888926D01*
X23121269Y-67853188D01*
X23111699Y-67835284D01*
X23037604Y-67696664D01*
X23020431Y-67640050D01*
X22986084Y-67526824D01*
X22968688Y-67350197D01*
X22986084Y-67173570D01*
X23037604Y-67003731D01*
X23037604Y-67003730D01*
X23121268Y-66847208D01*
X23121269Y-66847206D01*
X23150599Y-66811468D01*
X23233861Y-66710011D01*
X23335318Y-66626749D01*
X23371056Y-66597419D01*
X23388960Y-66587849D01*
X23527580Y-66513754D01*
X23584194Y-66496581D01*
X23697420Y-66462234D01*
X23763605Y-66455715D01*
X23829787Y-66449197D01*
X23918307Y-66449197D01*
X23984489Y-66455715D01*
X23984489Y-66455715D01*
G37*
G36*
X26524489Y-66455715D02*
X26590674Y-66462234D01*
X26703900Y-66496581D01*
X26760514Y-66513754D01*
X26899134Y-66587849D01*
X26917038Y-66597419D01*
X26952776Y-66626749D01*
X27054233Y-66710011D01*
X27137495Y-66811468D01*
X27166825Y-66847206D01*
X27166826Y-66847208D01*
X27250490Y-67003730D01*
X27250490Y-67003731D01*
X27302010Y-67173570D01*
X27319406Y-67350197D01*
X27302010Y-67526824D01*
X27267663Y-67640050D01*
X27250490Y-67696664D01*
X27176395Y-67835284D01*
X27166825Y-67853188D01*
X27137495Y-67888926D01*
X27054233Y-67990383D01*
X26952776Y-68073645D01*
X26917038Y-68102975D01*
X26917036Y-68102976D01*
X26760514Y-68186640D01*
X26703900Y-68203813D01*
X26590674Y-68238160D01*
X26524489Y-68244679D01*
X26458307Y-68251197D01*
X26369787Y-68251197D01*
X26303605Y-68244679D01*
X26237420Y-68238160D01*
X26124194Y-68203813D01*
X26067580Y-68186640D01*
X25911058Y-68102976D01*
X25911056Y-68102975D01*
X25875318Y-68073645D01*
X25773861Y-67990383D01*
X25690599Y-67888926D01*
X25661269Y-67853188D01*
X25651699Y-67835284D01*
X25577604Y-67696664D01*
X25560431Y-67640050D01*
X25526084Y-67526824D01*
X25508688Y-67350197D01*
X25526084Y-67173570D01*
X25577604Y-67003731D01*
X25577604Y-67003730D01*
X25661268Y-66847208D01*
X25661269Y-66847206D01*
X25690599Y-66811468D01*
X25773861Y-66710011D01*
X25875318Y-66626749D01*
X25911056Y-66597419D01*
X25928960Y-66587849D01*
X26067580Y-66513754D01*
X26124194Y-66496581D01*
X26237420Y-66462234D01*
X26303605Y-66455715D01*
X26369787Y-66449197D01*
X26458307Y-66449197D01*
X26524489Y-66455715D01*
X26524489Y-66455715D01*
G37*
G36*
X31604489Y-66455715D02*
X31670674Y-66462234D01*
X31783900Y-66496581D01*
X31840514Y-66513754D01*
X31979134Y-66587849D01*
X31997038Y-66597419D01*
X32032776Y-66626749D01*
X32134233Y-66710011D01*
X32217495Y-66811468D01*
X32246825Y-66847206D01*
X32246826Y-66847208D01*
X32330490Y-67003730D01*
X32330490Y-67003731D01*
X32382010Y-67173570D01*
X32399406Y-67350197D01*
X32382010Y-67526824D01*
X32347663Y-67640050D01*
X32330490Y-67696664D01*
X32256395Y-67835284D01*
X32246825Y-67853188D01*
X32217495Y-67888926D01*
X32134233Y-67990383D01*
X32032776Y-68073645D01*
X31997038Y-68102975D01*
X31997036Y-68102976D01*
X31840514Y-68186640D01*
X31783900Y-68203813D01*
X31670674Y-68238160D01*
X31604489Y-68244679D01*
X31538307Y-68251197D01*
X31449787Y-68251197D01*
X31383605Y-68244679D01*
X31317420Y-68238160D01*
X31204194Y-68203813D01*
X31147580Y-68186640D01*
X30991058Y-68102976D01*
X30991056Y-68102975D01*
X30955318Y-68073645D01*
X30853861Y-67990383D01*
X30770599Y-67888926D01*
X30741269Y-67853188D01*
X30731699Y-67835284D01*
X30657604Y-67696664D01*
X30640431Y-67640050D01*
X30606084Y-67526824D01*
X30588688Y-67350197D01*
X30606084Y-67173570D01*
X30657604Y-67003731D01*
X30657604Y-67003730D01*
X30741268Y-66847208D01*
X30741269Y-66847206D01*
X30770599Y-66811468D01*
X30853861Y-66710011D01*
X30955318Y-66626749D01*
X30991056Y-66597419D01*
X31008960Y-66587849D01*
X31147580Y-66513754D01*
X31204194Y-66496581D01*
X31317420Y-66462234D01*
X31383605Y-66455715D01*
X31449787Y-66449197D01*
X31538307Y-66449197D01*
X31604489Y-66455715D01*
X31604489Y-66455715D01*
G37*
G36*
X34144489Y-66455715D02*
X34210674Y-66462234D01*
X34323900Y-66496581D01*
X34380514Y-66513754D01*
X34519134Y-66587849D01*
X34537038Y-66597419D01*
X34572776Y-66626749D01*
X34674233Y-66710011D01*
X34757495Y-66811468D01*
X34786825Y-66847206D01*
X34786826Y-66847208D01*
X34870490Y-67003730D01*
X34870490Y-67003731D01*
X34922010Y-67173570D01*
X34939406Y-67350197D01*
X34922010Y-67526824D01*
X34887663Y-67640050D01*
X34870490Y-67696664D01*
X34796395Y-67835284D01*
X34786825Y-67853188D01*
X34757495Y-67888926D01*
X34674233Y-67990383D01*
X34572776Y-68073645D01*
X34537038Y-68102975D01*
X34537036Y-68102976D01*
X34380514Y-68186640D01*
X34323900Y-68203813D01*
X34210674Y-68238160D01*
X34144489Y-68244679D01*
X34078307Y-68251197D01*
X33989787Y-68251197D01*
X33923605Y-68244679D01*
X33857420Y-68238160D01*
X33744194Y-68203813D01*
X33687580Y-68186640D01*
X33531058Y-68102976D01*
X33531056Y-68102975D01*
X33495318Y-68073645D01*
X33393861Y-67990383D01*
X33310599Y-67888926D01*
X33281269Y-67853188D01*
X33271699Y-67835284D01*
X33197604Y-67696664D01*
X33180431Y-67640050D01*
X33146084Y-67526824D01*
X33128688Y-67350197D01*
X33146084Y-67173570D01*
X33197604Y-67003731D01*
X33197604Y-67003730D01*
X33281268Y-66847208D01*
X33281269Y-66847206D01*
X33310599Y-66811468D01*
X33393861Y-66710011D01*
X33495318Y-66626749D01*
X33531056Y-66597419D01*
X33548960Y-66587849D01*
X33687580Y-66513754D01*
X33744194Y-66496581D01*
X33857420Y-66462234D01*
X33923605Y-66455715D01*
X33989787Y-66449197D01*
X34078307Y-66449197D01*
X34144489Y-66455715D01*
X34144489Y-66455715D01*
G37*
G36*
X36684489Y-66455715D02*
X36750674Y-66462234D01*
X36863900Y-66496581D01*
X36920514Y-66513754D01*
X37059134Y-66587849D01*
X37077038Y-66597419D01*
X37112776Y-66626749D01*
X37214233Y-66710011D01*
X37297495Y-66811468D01*
X37326825Y-66847206D01*
X37326826Y-66847208D01*
X37410490Y-67003730D01*
X37410490Y-67003731D01*
X37462010Y-67173570D01*
X37479406Y-67350197D01*
X37462010Y-67526824D01*
X37427663Y-67640050D01*
X37410490Y-67696664D01*
X37336395Y-67835284D01*
X37326825Y-67853188D01*
X37297495Y-67888926D01*
X37214233Y-67990383D01*
X37112776Y-68073645D01*
X37077038Y-68102975D01*
X37077036Y-68102976D01*
X36920514Y-68186640D01*
X36863900Y-68203813D01*
X36750674Y-68238160D01*
X36684489Y-68244679D01*
X36618307Y-68251197D01*
X36529787Y-68251197D01*
X36463605Y-68244679D01*
X36397420Y-68238160D01*
X36284194Y-68203813D01*
X36227580Y-68186640D01*
X36071058Y-68102976D01*
X36071056Y-68102975D01*
X36035318Y-68073645D01*
X35933861Y-67990383D01*
X35850599Y-67888926D01*
X35821269Y-67853188D01*
X35811699Y-67835284D01*
X35737604Y-67696664D01*
X35720431Y-67640050D01*
X35686084Y-67526824D01*
X35668688Y-67350197D01*
X35686084Y-67173570D01*
X35737604Y-67003731D01*
X35737604Y-67003730D01*
X35821268Y-66847208D01*
X35821269Y-66847206D01*
X35850599Y-66811468D01*
X35933861Y-66710011D01*
X36035318Y-66626749D01*
X36071056Y-66597419D01*
X36088960Y-66587849D01*
X36227580Y-66513754D01*
X36284194Y-66496581D01*
X36397420Y-66462234D01*
X36463605Y-66455715D01*
X36529787Y-66449197D01*
X36618307Y-66449197D01*
X36684489Y-66455715D01*
X36684489Y-66455715D01*
G37*
G36*
X39224489Y-66455715D02*
X39290674Y-66462234D01*
X39403900Y-66496581D01*
X39460514Y-66513754D01*
X39599134Y-66587849D01*
X39617038Y-66597419D01*
X39652776Y-66626749D01*
X39754233Y-66710011D01*
X39837495Y-66811468D01*
X39866825Y-66847206D01*
X39866826Y-66847208D01*
X39950490Y-67003730D01*
X39950490Y-67003731D01*
X40002010Y-67173570D01*
X40019406Y-67350197D01*
X40002010Y-67526824D01*
X39967663Y-67640050D01*
X39950490Y-67696664D01*
X39876395Y-67835284D01*
X39866825Y-67853188D01*
X39837495Y-67888926D01*
X39754233Y-67990383D01*
X39652776Y-68073645D01*
X39617038Y-68102975D01*
X39617036Y-68102976D01*
X39460514Y-68186640D01*
X39403900Y-68203813D01*
X39290674Y-68238160D01*
X39224489Y-68244679D01*
X39158307Y-68251197D01*
X39069787Y-68251197D01*
X39003605Y-68244679D01*
X38937420Y-68238160D01*
X38824194Y-68203813D01*
X38767580Y-68186640D01*
X38611058Y-68102976D01*
X38611056Y-68102975D01*
X38575318Y-68073645D01*
X38473861Y-67990383D01*
X38390599Y-67888926D01*
X38361269Y-67853188D01*
X38351699Y-67835284D01*
X38277604Y-67696664D01*
X38260431Y-67640050D01*
X38226084Y-67526824D01*
X38208688Y-67350197D01*
X38226084Y-67173570D01*
X38277604Y-67003731D01*
X38277604Y-67003730D01*
X38361268Y-66847208D01*
X38361269Y-66847206D01*
X38390599Y-66811468D01*
X38473861Y-66710011D01*
X38575318Y-66626749D01*
X38611056Y-66597419D01*
X38628960Y-66587849D01*
X38767580Y-66513754D01*
X38824194Y-66496581D01*
X38937420Y-66462234D01*
X39003605Y-66455715D01*
X39069787Y-66449197D01*
X39158307Y-66449197D01*
X39224489Y-66455715D01*
X39224489Y-66455715D01*
G37*
G36*
X41764489Y-66455715D02*
X41830674Y-66462234D01*
X41943900Y-66496581D01*
X42000514Y-66513754D01*
X42139134Y-66587849D01*
X42157038Y-66597419D01*
X42192776Y-66626749D01*
X42294233Y-66710011D01*
X42377495Y-66811468D01*
X42406825Y-66847206D01*
X42406826Y-66847208D01*
X42490490Y-67003730D01*
X42490490Y-67003731D01*
X42542010Y-67173570D01*
X42559406Y-67350197D01*
X42542010Y-67526824D01*
X42507663Y-67640050D01*
X42490490Y-67696664D01*
X42416395Y-67835284D01*
X42406825Y-67853188D01*
X42377495Y-67888926D01*
X42294233Y-67990383D01*
X42192776Y-68073645D01*
X42157038Y-68102975D01*
X42157036Y-68102976D01*
X42000514Y-68186640D01*
X41943900Y-68203813D01*
X41830674Y-68238160D01*
X41764489Y-68244679D01*
X41698307Y-68251197D01*
X41609787Y-68251197D01*
X41543605Y-68244679D01*
X41477420Y-68238160D01*
X41364194Y-68203813D01*
X41307580Y-68186640D01*
X41151058Y-68102976D01*
X41151056Y-68102975D01*
X41115318Y-68073645D01*
X41013861Y-67990383D01*
X40930599Y-67888926D01*
X40901269Y-67853188D01*
X40891699Y-67835284D01*
X40817604Y-67696664D01*
X40800431Y-67640050D01*
X40766084Y-67526824D01*
X40748688Y-67350197D01*
X40766084Y-67173570D01*
X40817604Y-67003731D01*
X40817604Y-67003730D01*
X40901268Y-66847208D01*
X40901269Y-66847206D01*
X40930599Y-66811468D01*
X41013861Y-66710011D01*
X41115318Y-66626749D01*
X41151056Y-66597419D01*
X41168960Y-66587849D01*
X41307580Y-66513754D01*
X41364194Y-66496581D01*
X41477420Y-66462234D01*
X41543605Y-66455715D01*
X41609787Y-66449197D01*
X41698307Y-66449197D01*
X41764489Y-66455715D01*
X41764489Y-66455715D01*
G37*
G36*
X45095047Y-68251197D02*
X43293047Y-68251197D01*
X43293047Y-66449197D01*
X45095047Y-66449197D01*
X45095047Y-68251197D01*
X45095047Y-68251197D01*
G37*
G36*
X70763377Y-61386538D02*
X70763379Y-61386539D01*
X70763380Y-61386539D01*
X71136638Y-61541147D01*
X71136639Y-61541148D01*
X71472564Y-61765606D01*
X71758239Y-62051281D01*
X71758241Y-62051284D01*
X71982698Y-62387207D01*
X72137306Y-62760465D01*
X72216125Y-63156714D01*
X72216125Y-63560726D01*
X72137306Y-63956975D01*
X71982698Y-64330233D01*
X71982697Y-64330234D01*
X71758239Y-64666159D01*
X71472564Y-64951834D01*
X71472561Y-64951836D01*
X71136638Y-65176293D01*
X70763380Y-65330901D01*
X70763379Y-65330901D01*
X70763377Y-65330902D01*
X70367132Y-65409720D01*
X69963118Y-65409720D01*
X69566873Y-65330902D01*
X69566871Y-65330901D01*
X69566870Y-65330901D01*
X69193612Y-65176293D01*
X68857689Y-64951836D01*
X68857686Y-64951834D01*
X68572011Y-64666159D01*
X68347553Y-64330234D01*
X68347552Y-64330233D01*
X68192944Y-63956975D01*
X68114125Y-63560726D01*
X68114125Y-63156714D01*
X68192944Y-62760465D01*
X68347552Y-62387207D01*
X68572009Y-62051284D01*
X68572011Y-62051281D01*
X68857686Y-61765606D01*
X69193611Y-61541148D01*
X69193612Y-61541147D01*
X69566870Y-61386539D01*
X69566871Y-61386539D01*
X69566873Y-61386538D01*
X69963118Y-61307720D01*
X70367132Y-61307720D01*
X70763377Y-61386538D01*
X70763377Y-61386538D01*
G37*
G36*
X35679426Y-61230762D02*
X35716920Y-61242136D01*
X35751484Y-61260611D01*
X35781774Y-61285470D01*
X35806633Y-61315760D01*
X35825108Y-61350324D01*
X35836482Y-61387818D01*
X35840927Y-61432955D01*
X35840927Y-62071679D01*
X35836482Y-62116816D01*
X35825108Y-62154310D01*
X35806633Y-62188874D01*
X35781774Y-62219164D01*
X35751484Y-62244023D01*
X35716920Y-62262498D01*
X35679426Y-62273872D01*
X35634289Y-62278317D01*
X34895565Y-62278317D01*
X34850428Y-62273872D01*
X34812934Y-62262498D01*
X34778370Y-62244023D01*
X34748080Y-62219164D01*
X34723221Y-62188874D01*
X34704746Y-62154310D01*
X34693372Y-62116816D01*
X34688927Y-62071679D01*
X34688927Y-61432955D01*
X34693372Y-61387818D01*
X34704746Y-61350324D01*
X34723221Y-61315760D01*
X34748080Y-61285470D01*
X34778370Y-61260611D01*
X34812934Y-61242136D01*
X34850428Y-61230762D01*
X34895565Y-61226317D01*
X35634289Y-61226317D01*
X35679426Y-61230762D01*
X35679426Y-61230762D01*
G37*
G36*
X37429426Y-61230762D02*
X37466920Y-61242136D01*
X37501484Y-61260611D01*
X37531774Y-61285470D01*
X37556633Y-61315760D01*
X37575108Y-61350324D01*
X37586482Y-61387818D01*
X37590927Y-61432955D01*
X37590927Y-62071679D01*
X37586482Y-62116816D01*
X37575108Y-62154310D01*
X37556633Y-62188874D01*
X37531774Y-62219164D01*
X37501484Y-62244023D01*
X37466920Y-62262498D01*
X37429426Y-62273872D01*
X37384289Y-62278317D01*
X36645565Y-62278317D01*
X36600428Y-62273872D01*
X36562934Y-62262498D01*
X36528370Y-62244023D01*
X36498080Y-62219164D01*
X36473221Y-62188874D01*
X36454746Y-62154310D01*
X36443372Y-62116816D01*
X36438927Y-62071679D01*
X36438927Y-61432955D01*
X36443372Y-61387818D01*
X36454746Y-61350324D01*
X36473221Y-61315760D01*
X36498080Y-61285470D01*
X36528370Y-61260611D01*
X36562934Y-61242136D01*
X36600428Y-61230762D01*
X36645565Y-61226317D01*
X37384289Y-61226317D01*
X37429426Y-61230762D01*
X37429426Y-61230762D01*
G37*
G36*
X47809290Y-58682971D02*
X47846977Y-58694404D01*
X47881716Y-58712972D01*
X47912161Y-58737958D01*
X47937147Y-58768403D01*
X47955715Y-58803142D01*
X47967148Y-58840829D01*
X47971613Y-58886167D01*
X47971613Y-59722845D01*
X47967148Y-59768183D01*
X47955715Y-59805870D01*
X47937147Y-59840609D01*
X47912161Y-59871054D01*
X47881716Y-59896040D01*
X47846977Y-59914608D01*
X47809290Y-59926041D01*
X47763952Y-59930506D01*
X46677274Y-59930506D01*
X46631936Y-59926041D01*
X46594249Y-59914608D01*
X46559510Y-59896040D01*
X46529065Y-59871054D01*
X46504079Y-59840609D01*
X46485511Y-59805870D01*
X46474078Y-59768183D01*
X46469613Y-59722845D01*
X46469613Y-58886167D01*
X46474078Y-58840829D01*
X46485511Y-58803142D01*
X46504079Y-58768403D01*
X46529065Y-58737958D01*
X46559510Y-58712972D01*
X46594249Y-58694404D01*
X46631936Y-58682971D01*
X46677274Y-58678506D01*
X47763952Y-58678506D01*
X47809290Y-58682971D01*
X47809290Y-58682971D01*
G37*
G36*
X39916917Y-59925097D02*
X32217777Y-59925097D01*
X32217777Y-58375297D01*
X39916917Y-58375297D01*
X39916917Y-59925097D01*
X39916917Y-59925097D01*
G37*
G36*
X45579542Y-59686894D02*
X44677542Y-59686894D01*
X44677542Y-58984894D01*
X45579542Y-58984894D01*
X45579542Y-59686894D01*
X45579542Y-59686894D01*
G37*
G36*
X49385112Y-58407951D02*
X49422606Y-58419325D01*
X49457170Y-58437800D01*
X49487460Y-58462659D01*
X49512319Y-58492949D01*
X49530794Y-58527513D01*
X49542168Y-58565007D01*
X49546613Y-58610144D01*
X49546613Y-59348868D01*
X49542168Y-59394005D01*
X49530794Y-59431499D01*
X49512319Y-59466063D01*
X49487460Y-59496353D01*
X49457170Y-59521212D01*
X49422606Y-59539687D01*
X49385112Y-59551061D01*
X49339975Y-59555506D01*
X48701251Y-59555506D01*
X48656114Y-59551061D01*
X48618620Y-59539687D01*
X48584056Y-59521212D01*
X48553766Y-59496353D01*
X48528907Y-59466063D01*
X48510432Y-59431499D01*
X48499058Y-59394005D01*
X48494613Y-59348868D01*
X48494613Y-58610144D01*
X48499058Y-58565007D01*
X48510432Y-58527513D01*
X48528907Y-58492949D01*
X48553766Y-58462659D01*
X48584056Y-58437800D01*
X48618620Y-58419325D01*
X48656114Y-58407951D01*
X48701251Y-58403506D01*
X49339975Y-58403506D01*
X49385112Y-58407951D01*
X49385112Y-58407951D01*
G37*
G36*
X63096175Y-58007687D02*
X63131090Y-58018279D01*
X63163278Y-58035484D01*
X63191486Y-58058633D01*
X63214635Y-58086841D01*
X63231840Y-58119029D01*
X63242432Y-58153944D01*
X63246613Y-58196401D01*
X63246613Y-59337611D01*
X63242432Y-59380068D01*
X63231840Y-59414983D01*
X63214635Y-59447171D01*
X63191486Y-59475379D01*
X63163278Y-59498528D01*
X63131090Y-59515733D01*
X63096175Y-59526325D01*
X63053718Y-59530506D01*
X61587508Y-59530506D01*
X61545051Y-59526325D01*
X61510136Y-59515733D01*
X61477948Y-59498528D01*
X61449740Y-59475379D01*
X61426591Y-59447171D01*
X61409386Y-59414983D01*
X61398794Y-59380068D01*
X61394613Y-59337611D01*
X61394613Y-58196401D01*
X61398794Y-58153944D01*
X61409386Y-58119029D01*
X61426591Y-58086841D01*
X61449740Y-58058633D01*
X61477948Y-58035484D01*
X61510136Y-58018279D01*
X61545051Y-58007687D01*
X61587508Y-58003506D01*
X63053718Y-58003506D01*
X63096175Y-58007687D01*
X63096175Y-58007687D01*
G37*
G36*
X65396175Y-58007687D02*
X65431090Y-58018279D01*
X65463278Y-58035484D01*
X65491486Y-58058633D01*
X65514635Y-58086841D01*
X65531840Y-58119029D01*
X65542432Y-58153944D01*
X65546613Y-58196401D01*
X65546613Y-59337611D01*
X65542432Y-59380068D01*
X65531840Y-59414983D01*
X65514635Y-59447171D01*
X65491486Y-59475379D01*
X65463278Y-59498528D01*
X65431090Y-59515733D01*
X65396175Y-59526325D01*
X65353718Y-59530506D01*
X63887508Y-59530506D01*
X63845051Y-59526325D01*
X63810136Y-59515733D01*
X63777948Y-59498528D01*
X63749740Y-59475379D01*
X63726591Y-59447171D01*
X63709386Y-59414983D01*
X63698794Y-59380068D01*
X63694613Y-59337611D01*
X63694613Y-58196401D01*
X63698794Y-58153944D01*
X63709386Y-58119029D01*
X63726591Y-58086841D01*
X63749740Y-58058633D01*
X63777948Y-58035484D01*
X63810136Y-58018279D01*
X63845051Y-58007687D01*
X63887508Y-58003506D01*
X65353718Y-58003506D01*
X65396175Y-58007687D01*
X65396175Y-58007687D01*
G37*
G36*
X24300191Y-58996059D02*
X22498191Y-58996059D01*
X22498191Y-57194059D01*
X24300191Y-57194059D01*
X24300191Y-58996059D01*
X24300191Y-58996059D01*
G37*
G36*
X20969634Y-57200578D02*
X21035818Y-57207096D01*
X21149044Y-57241443D01*
X21205658Y-57258616D01*
X21342637Y-57331834D01*
X21362182Y-57342281D01*
X21370721Y-57349289D01*
X21499377Y-57454873D01*
X21571294Y-57542506D01*
X21611969Y-57592068D01*
X21611970Y-57592070D01*
X21695634Y-57748592D01*
X21706825Y-57785486D01*
X21747154Y-57918432D01*
X21764550Y-58095059D01*
X21747154Y-58271686D01*
X21715724Y-58375297D01*
X21695634Y-58441526D01*
X21668147Y-58492949D01*
X21611969Y-58598050D01*
X21588223Y-58626984D01*
X21499377Y-58735245D01*
X21420240Y-58800190D01*
X21362182Y-58847837D01*
X21362180Y-58847838D01*
X21205658Y-58931502D01*
X21149044Y-58948675D01*
X21035818Y-58983022D01*
X20969634Y-58989540D01*
X20903451Y-58996059D01*
X20814931Y-58996059D01*
X20748748Y-58989540D01*
X20682564Y-58983022D01*
X20569338Y-58948675D01*
X20512724Y-58931502D01*
X20356202Y-58847838D01*
X20356200Y-58847837D01*
X20298142Y-58800190D01*
X20219005Y-58735245D01*
X20130159Y-58626984D01*
X20106413Y-58598050D01*
X20050235Y-58492949D01*
X20022748Y-58441526D01*
X20002658Y-58375297D01*
X19971228Y-58271686D01*
X19953832Y-58095059D01*
X19971228Y-57918432D01*
X20011557Y-57785486D01*
X20022748Y-57748592D01*
X20106412Y-57592070D01*
X20106413Y-57592068D01*
X20147088Y-57542506D01*
X20219005Y-57454873D01*
X20347661Y-57349289D01*
X20356200Y-57342281D01*
X20375745Y-57331834D01*
X20512724Y-57258616D01*
X20569338Y-57241443D01*
X20682564Y-57207096D01*
X20748748Y-57200578D01*
X20814931Y-57194059D01*
X20903451Y-57194059D01*
X20969634Y-57200578D01*
X20969634Y-57200578D01*
G37*
G36*
X29137868Y-57348524D02*
X29175555Y-57359957D01*
X29210294Y-57378525D01*
X29240739Y-57403511D01*
X29265725Y-57433956D01*
X29284293Y-57468695D01*
X29295726Y-57506382D01*
X29300191Y-57551720D01*
X29300191Y-58638398D01*
X29295726Y-58683736D01*
X29284293Y-58721423D01*
X29265725Y-58756162D01*
X29240739Y-58786607D01*
X29210294Y-58811593D01*
X29175555Y-58830161D01*
X29137868Y-58841594D01*
X29092530Y-58846059D01*
X28255852Y-58846059D01*
X28210514Y-58841594D01*
X28172827Y-58830161D01*
X28138088Y-58811593D01*
X28107643Y-58786607D01*
X28082657Y-58756162D01*
X28064089Y-58721423D01*
X28052656Y-58683736D01*
X28048191Y-58638398D01*
X28048191Y-57551720D01*
X28052656Y-57506382D01*
X28064089Y-57468695D01*
X28082657Y-57433956D01*
X28107643Y-57403511D01*
X28138088Y-57378525D01*
X28172827Y-57359957D01*
X28210514Y-57348524D01*
X28255852Y-57344059D01*
X29092530Y-57344059D01*
X29137868Y-57348524D01*
X29137868Y-57348524D01*
G37*
G36*
X27087868Y-57348524D02*
X27125555Y-57359957D01*
X27160294Y-57378525D01*
X27190739Y-57403511D01*
X27215725Y-57433956D01*
X27234293Y-57468695D01*
X27245726Y-57506382D01*
X27250191Y-57551720D01*
X27250191Y-58638398D01*
X27245726Y-58683736D01*
X27234293Y-58721423D01*
X27215725Y-58756162D01*
X27190739Y-58786607D01*
X27160294Y-58811593D01*
X27125555Y-58830161D01*
X27087868Y-58841594D01*
X27042530Y-58846059D01*
X26205852Y-58846059D01*
X26160514Y-58841594D01*
X26122827Y-58830161D01*
X26088088Y-58811593D01*
X26057643Y-58786607D01*
X26032657Y-58756162D01*
X26014089Y-58721423D01*
X26002656Y-58683736D01*
X25998191Y-58638398D01*
X25998191Y-57551720D01*
X26002656Y-57506382D01*
X26014089Y-57468695D01*
X26032657Y-57433956D01*
X26057643Y-57403511D01*
X26088088Y-57378525D01*
X26122827Y-57359957D01*
X26160514Y-57348524D01*
X26205852Y-57344059D01*
X27042530Y-57344059D01*
X27087868Y-57348524D01*
X27087868Y-57348524D01*
G37*
G36*
X53481613Y-58155506D02*
X52279613Y-58155506D01*
X52279613Y-53453506D01*
X53481613Y-53453506D01*
X53481613Y-58155506D01*
X53481613Y-58155506D01*
G37*
G36*
X58561613Y-58155506D02*
X57359613Y-58155506D01*
X57359613Y-53453506D01*
X58561613Y-53453506D01*
X58561613Y-58155506D01*
X58561613Y-58155506D01*
G37*
G36*
X45579542Y-57986894D02*
X44677542Y-57986894D01*
X44677542Y-57284894D01*
X45579542Y-57284894D01*
X45579542Y-57986894D01*
X45579542Y-57986894D01*
G37*
G36*
X47809290Y-56632971D02*
X47846977Y-56644404D01*
X47881716Y-56662972D01*
X47912161Y-56687958D01*
X47937147Y-56718403D01*
X47955715Y-56753142D01*
X47967148Y-56790829D01*
X47971613Y-56836167D01*
X47971613Y-57672845D01*
X47967148Y-57718183D01*
X47955715Y-57755870D01*
X47937147Y-57790609D01*
X47912161Y-57821054D01*
X47881716Y-57846040D01*
X47846977Y-57864608D01*
X47809290Y-57876041D01*
X47763952Y-57880506D01*
X46677274Y-57880506D01*
X46631936Y-57876041D01*
X46594249Y-57864608D01*
X46559510Y-57846040D01*
X46529065Y-57821054D01*
X46504079Y-57790609D01*
X46485511Y-57755870D01*
X46474078Y-57718183D01*
X46469613Y-57672845D01*
X46469613Y-56836167D01*
X46474078Y-56790829D01*
X46485511Y-56753142D01*
X46504079Y-56718403D01*
X46529065Y-56687958D01*
X46559510Y-56662972D01*
X46594249Y-56644404D01*
X46631936Y-56632971D01*
X46677274Y-56628506D01*
X47763952Y-56628506D01*
X47809290Y-56632971D01*
X47809290Y-56632971D01*
G37*
G36*
X49385112Y-56657951D02*
X49422606Y-56669325D01*
X49457170Y-56687800D01*
X49487460Y-56712659D01*
X49512319Y-56742949D01*
X49530794Y-56777513D01*
X49542168Y-56815007D01*
X49546613Y-56860144D01*
X49546613Y-57598868D01*
X49542168Y-57644005D01*
X49530794Y-57681499D01*
X49512319Y-57716063D01*
X49487460Y-57746353D01*
X49457170Y-57771212D01*
X49422606Y-57789687D01*
X49385112Y-57801061D01*
X49339975Y-57805506D01*
X48701251Y-57805506D01*
X48656114Y-57801061D01*
X48618620Y-57789687D01*
X48584056Y-57771212D01*
X48553766Y-57746353D01*
X48528907Y-57716063D01*
X48510432Y-57681499D01*
X48499058Y-57644005D01*
X48494613Y-57598868D01*
X48494613Y-56860144D01*
X48499058Y-56815007D01*
X48510432Y-56777513D01*
X48528907Y-56742949D01*
X48553766Y-56712659D01*
X48584056Y-56687800D01*
X48618620Y-56669325D01*
X48656114Y-56657951D01*
X48701251Y-56653506D01*
X49339975Y-56653506D01*
X49385112Y-56657951D01*
X49385112Y-56657951D01*
G37*
G36*
X70763377Y-53766538D02*
X70763379Y-53766539D01*
X70763380Y-53766539D01*
X71136638Y-53921147D01*
X71396915Y-54095059D01*
X71472564Y-54145606D01*
X71758239Y-54431281D01*
X71758241Y-54431284D01*
X71982698Y-54767207D01*
X72137306Y-55140465D01*
X72137307Y-55140468D01*
X72216125Y-55536713D01*
X72216125Y-55940727D01*
X72147126Y-56287611D01*
X72137306Y-56336975D01*
X71982698Y-56710233D01*
X71830377Y-56938197D01*
X71758239Y-57046159D01*
X71472564Y-57331834D01*
X71472561Y-57331836D01*
X71136638Y-57556293D01*
X70763380Y-57710901D01*
X70763379Y-57710901D01*
X70763377Y-57710902D01*
X70367132Y-57789720D01*
X69963118Y-57789720D01*
X69566873Y-57710902D01*
X69566871Y-57710901D01*
X69566870Y-57710901D01*
X69193612Y-57556293D01*
X68857689Y-57331836D01*
X68857686Y-57331834D01*
X68572011Y-57046159D01*
X68499873Y-56938197D01*
X68347552Y-56710233D01*
X68192944Y-56336975D01*
X68183125Y-56287611D01*
X68114125Y-55940727D01*
X68114125Y-55536713D01*
X68192943Y-55140468D01*
X68192944Y-55140465D01*
X68347552Y-54767207D01*
X68572009Y-54431284D01*
X68572011Y-54431281D01*
X68857686Y-54145606D01*
X68933335Y-54095059D01*
X69193612Y-53921147D01*
X69566870Y-53766539D01*
X69566871Y-53766539D01*
X69566873Y-53766538D01*
X69963118Y-53687720D01*
X70367132Y-53687720D01*
X70763377Y-53766538D01*
X70763377Y-53766538D01*
G37*
G36*
X30958546Y-56053642D02*
X30996040Y-56065016D01*
X31030604Y-56083491D01*
X31060894Y-56108350D01*
X31085753Y-56138640D01*
X31104228Y-56173204D01*
X31115602Y-56210698D01*
X31120047Y-56255835D01*
X31120047Y-56994559D01*
X31115602Y-57039696D01*
X31104228Y-57077190D01*
X31085753Y-57111754D01*
X31060894Y-57142044D01*
X31030604Y-57166903D01*
X30996040Y-57185378D01*
X30958546Y-57196752D01*
X30913409Y-57201197D01*
X30274685Y-57201197D01*
X30229548Y-57196752D01*
X30192054Y-57185378D01*
X30157490Y-57166903D01*
X30127200Y-57142044D01*
X30102341Y-57111754D01*
X30083866Y-57077190D01*
X30072492Y-57039696D01*
X30068047Y-56994559D01*
X30068047Y-56255835D01*
X30072492Y-56210698D01*
X30083866Y-56173204D01*
X30102341Y-56138640D01*
X30127200Y-56108350D01*
X30157490Y-56083491D01*
X30192054Y-56065016D01*
X30229548Y-56053642D01*
X30274685Y-56049197D01*
X30913409Y-56049197D01*
X30958546Y-56053642D01*
X30958546Y-56053642D01*
G37*
G36*
X63096175Y-55032687D02*
X63131090Y-55043279D01*
X63163278Y-55060484D01*
X63191486Y-55083633D01*
X63214635Y-55111841D01*
X63231840Y-55144029D01*
X63242432Y-55178944D01*
X63246613Y-55221401D01*
X63246613Y-56362611D01*
X63242432Y-56405068D01*
X63231840Y-56439983D01*
X63214635Y-56472171D01*
X63191486Y-56500379D01*
X63163278Y-56523528D01*
X63131090Y-56540733D01*
X63096175Y-56551325D01*
X63053718Y-56555506D01*
X61587508Y-56555506D01*
X61545051Y-56551325D01*
X61510136Y-56540733D01*
X61477948Y-56523528D01*
X61449740Y-56500379D01*
X61426591Y-56472171D01*
X61409386Y-56439983D01*
X61398794Y-56405068D01*
X61394613Y-56362611D01*
X61394613Y-55221401D01*
X61398794Y-55178944D01*
X61409386Y-55144029D01*
X61426591Y-55111841D01*
X61449740Y-55083633D01*
X61477948Y-55060484D01*
X61510136Y-55043279D01*
X61545051Y-55032687D01*
X61587508Y-55028506D01*
X63053718Y-55028506D01*
X63096175Y-55032687D01*
X63096175Y-55032687D01*
G37*
G36*
X65396175Y-55032687D02*
X65431090Y-55043279D01*
X65463278Y-55060484D01*
X65491486Y-55083633D01*
X65514635Y-55111841D01*
X65531840Y-55144029D01*
X65542432Y-55178944D01*
X65546613Y-55221401D01*
X65546613Y-56362611D01*
X65542432Y-56405068D01*
X65531840Y-56439983D01*
X65514635Y-56472171D01*
X65491486Y-56500379D01*
X65463278Y-56523528D01*
X65431090Y-56540733D01*
X65396175Y-56551325D01*
X65353718Y-56555506D01*
X63887508Y-56555506D01*
X63845051Y-56551325D01*
X63810136Y-56540733D01*
X63777948Y-56523528D01*
X63749740Y-56500379D01*
X63726591Y-56472171D01*
X63709386Y-56439983D01*
X63698794Y-56405068D01*
X63694613Y-56362611D01*
X63694613Y-55221401D01*
X63698794Y-55178944D01*
X63709386Y-55144029D01*
X63726591Y-55111841D01*
X63749740Y-55083633D01*
X63777948Y-55060484D01*
X63810136Y-55043279D01*
X63845051Y-55032687D01*
X63887508Y-55028506D01*
X65353718Y-55028506D01*
X65396175Y-55032687D01*
X65396175Y-55032687D01*
G37*
G36*
X30958546Y-54303642D02*
X30996040Y-54315016D01*
X31030604Y-54333491D01*
X31060894Y-54358350D01*
X31085753Y-54388640D01*
X31104228Y-54423204D01*
X31115602Y-54460698D01*
X31120047Y-54505835D01*
X31120047Y-55244559D01*
X31115602Y-55289696D01*
X31104228Y-55327190D01*
X31085753Y-55361754D01*
X31060894Y-55392044D01*
X31030604Y-55416903D01*
X30996040Y-55435378D01*
X30958546Y-55446752D01*
X30913409Y-55451197D01*
X30274685Y-55451197D01*
X30229548Y-55446752D01*
X30192054Y-55435378D01*
X30157490Y-55416903D01*
X30127200Y-55392044D01*
X30102341Y-55361754D01*
X30083866Y-55327190D01*
X30072492Y-55289696D01*
X30068047Y-55244559D01*
X30068047Y-54505835D01*
X30072492Y-54460698D01*
X30083866Y-54423204D01*
X30102341Y-54388640D01*
X30127200Y-54358350D01*
X30157490Y-54333491D01*
X30192054Y-54315016D01*
X30229548Y-54303642D01*
X30274685Y-54299197D01*
X30913409Y-54299197D01*
X30958546Y-54303642D01*
X30958546Y-54303642D01*
G37*
G36*
X20969634Y-53200578D02*
X21035818Y-53207096D01*
X21149044Y-53241443D01*
X21205658Y-53258616D01*
X21344278Y-53332711D01*
X21362182Y-53342281D01*
X21370721Y-53349289D01*
X21499377Y-53454873D01*
X21578856Y-53551720D01*
X21611969Y-53592068D01*
X21611970Y-53592070D01*
X21695634Y-53748592D01*
X21695634Y-53748593D01*
X21747154Y-53918432D01*
X21764550Y-54095059D01*
X21747154Y-54271686D01*
X21725363Y-54343520D01*
X21695634Y-54441526D01*
X21631133Y-54562197D01*
X21611969Y-54598050D01*
X21588223Y-54626984D01*
X21499377Y-54735245D01*
X21420240Y-54800190D01*
X21362182Y-54847837D01*
X21362180Y-54847838D01*
X21205658Y-54931502D01*
X21149044Y-54948675D01*
X21035818Y-54983022D01*
X20969634Y-54989540D01*
X20903451Y-54996059D01*
X20814931Y-54996059D01*
X20748748Y-54989540D01*
X20682564Y-54983022D01*
X20569338Y-54948675D01*
X20512724Y-54931502D01*
X20356202Y-54847838D01*
X20356200Y-54847837D01*
X20298142Y-54800190D01*
X20219005Y-54735245D01*
X20130159Y-54626984D01*
X20106413Y-54598050D01*
X20087249Y-54562197D01*
X20022748Y-54441526D01*
X19993019Y-54343520D01*
X19971228Y-54271686D01*
X19953832Y-54095059D01*
X19971228Y-53918432D01*
X20022748Y-53748593D01*
X20022748Y-53748592D01*
X20106412Y-53592070D01*
X20106413Y-53592068D01*
X20139526Y-53551720D01*
X20219005Y-53454873D01*
X20347661Y-53349289D01*
X20356200Y-53342281D01*
X20374104Y-53332711D01*
X20512724Y-53258616D01*
X20569338Y-53241443D01*
X20682564Y-53207096D01*
X20748748Y-53200578D01*
X20814931Y-53194059D01*
X20903451Y-53194059D01*
X20969634Y-53200578D01*
X20969634Y-53200578D01*
G37*
G36*
X24300191Y-54996059D02*
X22498191Y-54996059D01*
X22498191Y-53194059D01*
X24300191Y-53194059D01*
X24300191Y-54996059D01*
X24300191Y-54996059D01*
G37*
G36*
X27087868Y-53348524D02*
X27125555Y-53359957D01*
X27160294Y-53378525D01*
X27190739Y-53403511D01*
X27215725Y-53433956D01*
X27234293Y-53468695D01*
X27245726Y-53506382D01*
X27250191Y-53551720D01*
X27250191Y-54638398D01*
X27245726Y-54683736D01*
X27234293Y-54721423D01*
X27215725Y-54756162D01*
X27190739Y-54786607D01*
X27160294Y-54811593D01*
X27125555Y-54830161D01*
X27087868Y-54841594D01*
X27042530Y-54846059D01*
X26205852Y-54846059D01*
X26160514Y-54841594D01*
X26122827Y-54830161D01*
X26088088Y-54811593D01*
X26057643Y-54786607D01*
X26032657Y-54756162D01*
X26014089Y-54721423D01*
X26002656Y-54683736D01*
X25998191Y-54638398D01*
X25998191Y-53551720D01*
X26002656Y-53506382D01*
X26014089Y-53468695D01*
X26032657Y-53433956D01*
X26057643Y-53403511D01*
X26088088Y-53378525D01*
X26122827Y-53359957D01*
X26160514Y-53348524D01*
X26205852Y-53344059D01*
X27042530Y-53344059D01*
X27087868Y-53348524D01*
X27087868Y-53348524D01*
G37*
G36*
X29137868Y-53348524D02*
X29175555Y-53359957D01*
X29210294Y-53378525D01*
X29240739Y-53403511D01*
X29265725Y-53433956D01*
X29284293Y-53468695D01*
X29295726Y-53506382D01*
X29300191Y-53551720D01*
X29300191Y-54638398D01*
X29295726Y-54683736D01*
X29284293Y-54721423D01*
X29265725Y-54756162D01*
X29240739Y-54786607D01*
X29210294Y-54811593D01*
X29175555Y-54830161D01*
X29137868Y-54841594D01*
X29092530Y-54846059D01*
X28255852Y-54846059D01*
X28210514Y-54841594D01*
X28172827Y-54830161D01*
X28138088Y-54811593D01*
X28107643Y-54786607D01*
X28082657Y-54756162D01*
X28064089Y-54721423D01*
X28052656Y-54683736D01*
X28048191Y-54638398D01*
X28048191Y-53551720D01*
X28052656Y-53506382D01*
X28064089Y-53468695D01*
X28082657Y-53433956D01*
X28107643Y-53403511D01*
X28138088Y-53378525D01*
X28172827Y-53359957D01*
X28210514Y-53348524D01*
X28255852Y-53344059D01*
X29092530Y-53344059D01*
X29137868Y-53348524D01*
X29137868Y-53348524D01*
G37*
G36*
X39916917Y-54027217D02*
X32217777Y-54027217D01*
X32217777Y-52477417D01*
X39916917Y-52477417D01*
X39916917Y-54027217D01*
X39916917Y-54027217D01*
G37*
G36*
X61043041Y-51564339D02*
X61080535Y-51575713D01*
X61115099Y-51594188D01*
X61145389Y-51619047D01*
X61170248Y-51649337D01*
X61188723Y-51683901D01*
X61200097Y-51721395D01*
X61204542Y-51766532D01*
X61204542Y-52405256D01*
X61200097Y-52450393D01*
X61188723Y-52487887D01*
X61170248Y-52522451D01*
X61145389Y-52552741D01*
X61115099Y-52577600D01*
X61080535Y-52596075D01*
X61043041Y-52607449D01*
X60997904Y-52611894D01*
X60259180Y-52611894D01*
X60214043Y-52607449D01*
X60176549Y-52596075D01*
X60141985Y-52577600D01*
X60111695Y-52552741D01*
X60086836Y-52522451D01*
X60068361Y-52487887D01*
X60056987Y-52450393D01*
X60052542Y-52405256D01*
X60052542Y-51766532D01*
X60056987Y-51721395D01*
X60068361Y-51683901D01*
X60086836Y-51649337D01*
X60111695Y-51619047D01*
X60141985Y-51594188D01*
X60176549Y-51575713D01*
X60214043Y-51564339D01*
X60259180Y-51559894D01*
X60997904Y-51559894D01*
X61043041Y-51564339D01*
X61043041Y-51564339D01*
G37*
G36*
X62793041Y-51564339D02*
X62830535Y-51575713D01*
X62865099Y-51594188D01*
X62895389Y-51619047D01*
X62920248Y-51649337D01*
X62938723Y-51683901D01*
X62950097Y-51721395D01*
X62954542Y-51766532D01*
X62954542Y-52405256D01*
X62950097Y-52450393D01*
X62938723Y-52487887D01*
X62920248Y-52522451D01*
X62895389Y-52552741D01*
X62865099Y-52577600D01*
X62830535Y-52596075D01*
X62793041Y-52607449D01*
X62747904Y-52611894D01*
X62009180Y-52611894D01*
X61964043Y-52607449D01*
X61926549Y-52596075D01*
X61891985Y-52577600D01*
X61861695Y-52552741D01*
X61836836Y-52522451D01*
X61818361Y-52487887D01*
X61806987Y-52450393D01*
X61802542Y-52405256D01*
X61802542Y-51766532D01*
X61806987Y-51721395D01*
X61818361Y-51683901D01*
X61836836Y-51649337D01*
X61861695Y-51619047D01*
X61891985Y-51594188D01*
X61926549Y-51575713D01*
X61964043Y-51564339D01*
X62009180Y-51559894D01*
X62747904Y-51559894D01*
X62793041Y-51564339D01*
X62793041Y-51564339D01*
G37*
G36*
X68322618Y-51563231D02*
X68360112Y-51574605D01*
X68394676Y-51593080D01*
X68424966Y-51617939D01*
X68449825Y-51648229D01*
X68468300Y-51682793D01*
X68479674Y-51720287D01*
X68484119Y-51765424D01*
X68484119Y-52404148D01*
X68479674Y-52449285D01*
X68468300Y-52486779D01*
X68449825Y-52521343D01*
X68424966Y-52551633D01*
X68394676Y-52576492D01*
X68360112Y-52594967D01*
X68322618Y-52606341D01*
X68277481Y-52610786D01*
X67538757Y-52610786D01*
X67493620Y-52606341D01*
X67456126Y-52594967D01*
X67421562Y-52576492D01*
X67391272Y-52551633D01*
X67366413Y-52521343D01*
X67347938Y-52486779D01*
X67336564Y-52449285D01*
X67332119Y-52404148D01*
X67332119Y-51765424D01*
X67336564Y-51720287D01*
X67347938Y-51682793D01*
X67366413Y-51648229D01*
X67391272Y-51617939D01*
X67421562Y-51593080D01*
X67456126Y-51574605D01*
X67493620Y-51563231D01*
X67538757Y-51558786D01*
X68277481Y-51558786D01*
X68322618Y-51563231D01*
X68322618Y-51563231D01*
G37*
G36*
X70072618Y-51563231D02*
X70110112Y-51574605D01*
X70144676Y-51593080D01*
X70174966Y-51617939D01*
X70199825Y-51648229D01*
X70218300Y-51682793D01*
X70229674Y-51720287D01*
X70234119Y-51765424D01*
X70234119Y-52404148D01*
X70229674Y-52449285D01*
X70218300Y-52486779D01*
X70199825Y-52521343D01*
X70174966Y-52551633D01*
X70144676Y-52576492D01*
X70110112Y-52594967D01*
X70072618Y-52606341D01*
X70027481Y-52610786D01*
X69288757Y-52610786D01*
X69243620Y-52606341D01*
X69206126Y-52594967D01*
X69171562Y-52576492D01*
X69141272Y-52551633D01*
X69116413Y-52521343D01*
X69097938Y-52486779D01*
X69086564Y-52449285D01*
X69082119Y-52404148D01*
X69082119Y-51765424D01*
X69086564Y-51720287D01*
X69097938Y-51682793D01*
X69116413Y-51648229D01*
X69141272Y-51617939D01*
X69171562Y-51593080D01*
X69206126Y-51574605D01*
X69243620Y-51563231D01*
X69288757Y-51558786D01*
X70027481Y-51558786D01*
X70072618Y-51563231D01*
X70072618Y-51563231D01*
G37*
G36*
X38254426Y-50805762D02*
X38291920Y-50817136D01*
X38326484Y-50835611D01*
X38356774Y-50860470D01*
X38381633Y-50890760D01*
X38400108Y-50925324D01*
X38411482Y-50962818D01*
X38415927Y-51007955D01*
X38415927Y-51746679D01*
X38411482Y-51791816D01*
X38400108Y-51829310D01*
X38381633Y-51863874D01*
X38356774Y-51894164D01*
X38326484Y-51919023D01*
X38291920Y-51937498D01*
X38254426Y-51948872D01*
X38209289Y-51953317D01*
X37570565Y-51953317D01*
X37525428Y-51948872D01*
X37487934Y-51937498D01*
X37453370Y-51919023D01*
X37423080Y-51894164D01*
X37398221Y-51863874D01*
X37379746Y-51829310D01*
X37368372Y-51791816D01*
X37363927Y-51746679D01*
X37363927Y-51007955D01*
X37368372Y-50962818D01*
X37379746Y-50925324D01*
X37398221Y-50890760D01*
X37423080Y-50860470D01*
X37453370Y-50835611D01*
X37487934Y-50817136D01*
X37525428Y-50805762D01*
X37570565Y-50801317D01*
X38209289Y-50801317D01*
X38254426Y-50805762D01*
X38254426Y-50805762D01*
G37*
G36*
X61504542Y-50811894D02*
X59002542Y-50811894D01*
X59002542Y-49259894D01*
X61504542Y-49259894D01*
X61504542Y-50811894D01*
X61504542Y-50811894D01*
G37*
G36*
X68784119Y-50810786D02*
X66282119Y-50810786D01*
X66282119Y-49258786D01*
X68784119Y-49258786D01*
X68784119Y-50810786D01*
X68784119Y-50810786D01*
G37*
G36*
X38254426Y-49055762D02*
X38291920Y-49067136D01*
X38326484Y-49085611D01*
X38356774Y-49110470D01*
X38381633Y-49140760D01*
X38400108Y-49175324D01*
X38411482Y-49212818D01*
X38415927Y-49257955D01*
X38415927Y-49996679D01*
X38411482Y-50041816D01*
X38400108Y-50079310D01*
X38381633Y-50113874D01*
X38356774Y-50144164D01*
X38326484Y-50169023D01*
X38291920Y-50187498D01*
X38254426Y-50198872D01*
X38209289Y-50203317D01*
X37570565Y-50203317D01*
X37525428Y-50198872D01*
X37487934Y-50187498D01*
X37453370Y-50169023D01*
X37423080Y-50144164D01*
X37398221Y-50113874D01*
X37379746Y-50079310D01*
X37368372Y-50041816D01*
X37363927Y-49996679D01*
X37363927Y-49257955D01*
X37368372Y-49212818D01*
X37379746Y-49175324D01*
X37398221Y-49140760D01*
X37423080Y-49110470D01*
X37453370Y-49085611D01*
X37487934Y-49067136D01*
X37525428Y-49055762D01*
X37570565Y-49051317D01*
X38209289Y-49051317D01*
X38254426Y-49055762D01*
X38254426Y-49055762D01*
G37*
G36*
X35356846Y-48929702D02*
X35394340Y-48941076D01*
X35428904Y-48959551D01*
X35459194Y-48984410D01*
X35484053Y-49014700D01*
X35502528Y-49049264D01*
X35513902Y-49086758D01*
X35518347Y-49131895D01*
X35518347Y-49770619D01*
X35513902Y-49815756D01*
X35502528Y-49853250D01*
X35484053Y-49887814D01*
X35459194Y-49918104D01*
X35428904Y-49942963D01*
X35394340Y-49961438D01*
X35356846Y-49972812D01*
X35311709Y-49977257D01*
X34572985Y-49977257D01*
X34527848Y-49972812D01*
X34490354Y-49961438D01*
X34455790Y-49942963D01*
X34425500Y-49918104D01*
X34400641Y-49887814D01*
X34382166Y-49853250D01*
X34370792Y-49815756D01*
X34366347Y-49770619D01*
X34366347Y-49131895D01*
X34370792Y-49086758D01*
X34382166Y-49049264D01*
X34400641Y-49014700D01*
X34425500Y-48984410D01*
X34455790Y-48959551D01*
X34490354Y-48941076D01*
X34527848Y-48929702D01*
X34572985Y-48925257D01*
X35311709Y-48925257D01*
X35356846Y-48929702D01*
X35356846Y-48929702D01*
G37*
G36*
X33606846Y-48929702D02*
X33644340Y-48941076D01*
X33678904Y-48959551D01*
X33709194Y-48984410D01*
X33734053Y-49014700D01*
X33752528Y-49049264D01*
X33763902Y-49086758D01*
X33768347Y-49131895D01*
X33768347Y-49770619D01*
X33763902Y-49815756D01*
X33752528Y-49853250D01*
X33734053Y-49887814D01*
X33709194Y-49918104D01*
X33678904Y-49942963D01*
X33644340Y-49961438D01*
X33606846Y-49972812D01*
X33561709Y-49977257D01*
X32822985Y-49977257D01*
X32777848Y-49972812D01*
X32740354Y-49961438D01*
X32705790Y-49942963D01*
X32675500Y-49918104D01*
X32650641Y-49887814D01*
X32632166Y-49853250D01*
X32620792Y-49815756D01*
X32616347Y-49770619D01*
X32616347Y-49131895D01*
X32620792Y-49086758D01*
X32632166Y-49049264D01*
X32650641Y-49014700D01*
X32675500Y-48984410D01*
X32705790Y-48959551D01*
X32740354Y-48941076D01*
X32777848Y-48929702D01*
X32822985Y-48925257D01*
X33561709Y-48925257D01*
X33606846Y-48929702D01*
X33606846Y-48929702D01*
G37*
G36*
X48878347Y-49852257D02*
X43931347Y-49852257D01*
X43931347Y-48550257D01*
X48878347Y-48550257D01*
X48878347Y-49852257D01*
X48878347Y-49852257D01*
G37*
G36*
X37106846Y-47429702D02*
X37144340Y-47441076D01*
X37178904Y-47459551D01*
X37209194Y-47484410D01*
X37234053Y-47514700D01*
X37252528Y-47549264D01*
X37263902Y-47586758D01*
X37268347Y-47631895D01*
X37268347Y-48270619D01*
X37263902Y-48315756D01*
X37252528Y-48353250D01*
X37234053Y-48387814D01*
X37209194Y-48418104D01*
X37178904Y-48442963D01*
X37144340Y-48461438D01*
X37106846Y-48472812D01*
X37061709Y-48477257D01*
X36322985Y-48477257D01*
X36277848Y-48472812D01*
X36240354Y-48461438D01*
X36205790Y-48442963D01*
X36175500Y-48418104D01*
X36150641Y-48387814D01*
X36132166Y-48353250D01*
X36120792Y-48315756D01*
X36116347Y-48270619D01*
X36116347Y-47631895D01*
X36120792Y-47586758D01*
X36132166Y-47549264D01*
X36150641Y-47514700D01*
X36175500Y-47484410D01*
X36205790Y-47459551D01*
X36240354Y-47441076D01*
X36277848Y-47429702D01*
X36322985Y-47425257D01*
X37061709Y-47425257D01*
X37106846Y-47429702D01*
X37106846Y-47429702D01*
G37*
G36*
X35356846Y-47429702D02*
X35394340Y-47441076D01*
X35428904Y-47459551D01*
X35459194Y-47484410D01*
X35484053Y-47514700D01*
X35502528Y-47549264D01*
X35513902Y-47586758D01*
X35518347Y-47631895D01*
X35518347Y-48270619D01*
X35513902Y-48315756D01*
X35502528Y-48353250D01*
X35484053Y-48387814D01*
X35459194Y-48418104D01*
X35428904Y-48442963D01*
X35394340Y-48461438D01*
X35356846Y-48472812D01*
X35311709Y-48477257D01*
X34572985Y-48477257D01*
X34527848Y-48472812D01*
X34490354Y-48461438D01*
X34455790Y-48442963D01*
X34425500Y-48418104D01*
X34400641Y-48387814D01*
X34382166Y-48353250D01*
X34370792Y-48315756D01*
X34366347Y-48270619D01*
X34366347Y-47631895D01*
X34370792Y-47586758D01*
X34382166Y-47549264D01*
X34400641Y-47514700D01*
X34425500Y-47484410D01*
X34455790Y-47459551D01*
X34490354Y-47441076D01*
X34527848Y-47429702D01*
X34572985Y-47425257D01*
X35311709Y-47425257D01*
X35356846Y-47429702D01*
X35356846Y-47429702D01*
G37*
G36*
X31856846Y-47429702D02*
X31894340Y-47441076D01*
X31928904Y-47459551D01*
X31959194Y-47484410D01*
X31984053Y-47514700D01*
X32002528Y-47549264D01*
X32013902Y-47586758D01*
X32018347Y-47631895D01*
X32018347Y-48270619D01*
X32013902Y-48315756D01*
X32002528Y-48353250D01*
X31984053Y-48387814D01*
X31959194Y-48418104D01*
X31928904Y-48442963D01*
X31894340Y-48461438D01*
X31856846Y-48472812D01*
X31811709Y-48477257D01*
X31072985Y-48477257D01*
X31027848Y-48472812D01*
X30990354Y-48461438D01*
X30955790Y-48442963D01*
X30925500Y-48418104D01*
X30900641Y-48387814D01*
X30882166Y-48353250D01*
X30870792Y-48315756D01*
X30866347Y-48270619D01*
X30866347Y-47631895D01*
X30870792Y-47586758D01*
X30882166Y-47549264D01*
X30900641Y-47514700D01*
X30925500Y-47484410D01*
X30955790Y-47459551D01*
X30990354Y-47441076D01*
X31027848Y-47429702D01*
X31072985Y-47425257D01*
X31811709Y-47425257D01*
X31856846Y-47429702D01*
X31856846Y-47429702D01*
G37*
G36*
X33606846Y-47429702D02*
X33644340Y-47441076D01*
X33678904Y-47459551D01*
X33709194Y-47484410D01*
X33734053Y-47514700D01*
X33752528Y-47549264D01*
X33763902Y-47586758D01*
X33768347Y-47631895D01*
X33768347Y-48270619D01*
X33763902Y-48315756D01*
X33752528Y-48353250D01*
X33734053Y-48387814D01*
X33709194Y-48418104D01*
X33678904Y-48442963D01*
X33644340Y-48461438D01*
X33606846Y-48472812D01*
X33561709Y-48477257D01*
X32822985Y-48477257D01*
X32777848Y-48472812D01*
X32740354Y-48461438D01*
X32705790Y-48442963D01*
X32675500Y-48418104D01*
X32650641Y-48387814D01*
X32632166Y-48353250D01*
X32620792Y-48315756D01*
X32616347Y-48270619D01*
X32616347Y-47631895D01*
X32620792Y-47586758D01*
X32632166Y-47549264D01*
X32650641Y-47514700D01*
X32675500Y-47484410D01*
X32705790Y-47459551D01*
X32740354Y-47441076D01*
X32777848Y-47429702D01*
X32822985Y-47425257D01*
X33561709Y-47425257D01*
X33606846Y-47429702D01*
X33606846Y-47429702D01*
G37*
G36*
X61504542Y-46411894D02*
X59002542Y-46411894D01*
X59002542Y-44859894D01*
X61504542Y-44859894D01*
X61504542Y-46411894D01*
X61504542Y-46411894D01*
G37*
G36*
X68784119Y-46410786D02*
X66282119Y-46410786D01*
X66282119Y-44858786D01*
X68784119Y-44858786D01*
X68784119Y-46410786D01*
X68784119Y-46410786D01*
G37*
G36*
X48878347Y-44652257D02*
X43931347Y-44652257D01*
X43931347Y-43350257D01*
X48878347Y-43350257D01*
X48878347Y-44652257D01*
X48878347Y-44652257D01*
G37*
G36*
X59881809Y-37796716D02*
X59919303Y-37808090D01*
X59953867Y-37826565D01*
X59984157Y-37851424D01*
X60009016Y-37881714D01*
X60027491Y-37916278D01*
X60038865Y-37953772D01*
X60043310Y-37998909D01*
X60043310Y-38637633D01*
X60038865Y-38682770D01*
X60027491Y-38720264D01*
X60009016Y-38754828D01*
X59984157Y-38785118D01*
X59953867Y-38809977D01*
X59919303Y-38828452D01*
X59881809Y-38839826D01*
X59836672Y-38844271D01*
X59097948Y-38844271D01*
X59052811Y-38839826D01*
X59015317Y-38828452D01*
X58980753Y-38809977D01*
X58950463Y-38785118D01*
X58925604Y-38754828D01*
X58907129Y-38720264D01*
X58895755Y-38682770D01*
X58891310Y-38637633D01*
X58891310Y-37998909D01*
X58895755Y-37953772D01*
X58907129Y-37916278D01*
X58925604Y-37881714D01*
X58950463Y-37851424D01*
X58980753Y-37826565D01*
X59015317Y-37808090D01*
X59052811Y-37796716D01*
X59097948Y-37792271D01*
X59836672Y-37792271D01*
X59881809Y-37796716D01*
X59881809Y-37796716D01*
G37*
G36*
X46131809Y-37796716D02*
X46169303Y-37808090D01*
X46203867Y-37826565D01*
X46234157Y-37851424D01*
X46259016Y-37881714D01*
X46277491Y-37916278D01*
X46288865Y-37953772D01*
X46293310Y-37998909D01*
X46293310Y-38637633D01*
X46288865Y-38682770D01*
X46277491Y-38720264D01*
X46259016Y-38754828D01*
X46234157Y-38785118D01*
X46203867Y-38809977D01*
X46169303Y-38828452D01*
X46131809Y-38839826D01*
X46086672Y-38844271D01*
X45347948Y-38844271D01*
X45302811Y-38839826D01*
X45265317Y-38828452D01*
X45230753Y-38809977D01*
X45200463Y-38785118D01*
X45175604Y-38754828D01*
X45157129Y-38720264D01*
X45145755Y-38682770D01*
X45141310Y-38637633D01*
X45141310Y-37998909D01*
X45145755Y-37953772D01*
X45157129Y-37916278D01*
X45175604Y-37881714D01*
X45200463Y-37851424D01*
X45230753Y-37826565D01*
X45265317Y-37808090D01*
X45302811Y-37796716D01*
X45347948Y-37792271D01*
X46086672Y-37792271D01*
X46131809Y-37796716D01*
X46131809Y-37796716D01*
G37*
G36*
X47881809Y-37796716D02*
X47919303Y-37808090D01*
X47953867Y-37826565D01*
X47984157Y-37851424D01*
X48009016Y-37881714D01*
X48027491Y-37916278D01*
X48038865Y-37953772D01*
X48043310Y-37998909D01*
X48043310Y-38637633D01*
X48038865Y-38682770D01*
X48027491Y-38720264D01*
X48009016Y-38754828D01*
X47984157Y-38785118D01*
X47953867Y-38809977D01*
X47919303Y-38828452D01*
X47881809Y-38839826D01*
X47836672Y-38844271D01*
X47097948Y-38844271D01*
X47052811Y-38839826D01*
X47015317Y-38828452D01*
X46980753Y-38809977D01*
X46950463Y-38785118D01*
X46925604Y-38754828D01*
X46907129Y-38720264D01*
X46895755Y-38682770D01*
X46891310Y-38637633D01*
X46891310Y-37998909D01*
X46895755Y-37953772D01*
X46907129Y-37916278D01*
X46925604Y-37881714D01*
X46950463Y-37851424D01*
X46980753Y-37826565D01*
X47015317Y-37808090D01*
X47052811Y-37796716D01*
X47097948Y-37792271D01*
X47836672Y-37792271D01*
X47881809Y-37796716D01*
X47881809Y-37796716D01*
G37*
G36*
X53881809Y-37796716D02*
X53919303Y-37808090D01*
X53953867Y-37826565D01*
X53984157Y-37851424D01*
X54009016Y-37881714D01*
X54027491Y-37916278D01*
X54038865Y-37953772D01*
X54043310Y-37998909D01*
X54043310Y-38637633D01*
X54038865Y-38682770D01*
X54027491Y-38720264D01*
X54009016Y-38754828D01*
X53984157Y-38785118D01*
X53953867Y-38809977D01*
X53919303Y-38828452D01*
X53881809Y-38839826D01*
X53836672Y-38844271D01*
X53097948Y-38844271D01*
X53052811Y-38839826D01*
X53015317Y-38828452D01*
X52980753Y-38809977D01*
X52950463Y-38785118D01*
X52925604Y-38754828D01*
X52907129Y-38720264D01*
X52895755Y-38682770D01*
X52891310Y-38637633D01*
X52891310Y-37998909D01*
X52895755Y-37953772D01*
X52907129Y-37916278D01*
X52925604Y-37881714D01*
X52950463Y-37851424D01*
X52980753Y-37826565D01*
X53015317Y-37808090D01*
X53052811Y-37796716D01*
X53097948Y-37792271D01*
X53836672Y-37792271D01*
X53881809Y-37796716D01*
X53881809Y-37796716D01*
G37*
G36*
X52131809Y-37796716D02*
X52169303Y-37808090D01*
X52203867Y-37826565D01*
X52234157Y-37851424D01*
X52259016Y-37881714D01*
X52277491Y-37916278D01*
X52288865Y-37953772D01*
X52293310Y-37998909D01*
X52293310Y-38637633D01*
X52288865Y-38682770D01*
X52277491Y-38720264D01*
X52259016Y-38754828D01*
X52234157Y-38785118D01*
X52203867Y-38809977D01*
X52169303Y-38828452D01*
X52131809Y-38839826D01*
X52086672Y-38844271D01*
X51347948Y-38844271D01*
X51302811Y-38839826D01*
X51265317Y-38828452D01*
X51230753Y-38809977D01*
X51200463Y-38785118D01*
X51175604Y-38754828D01*
X51157129Y-38720264D01*
X51145755Y-38682770D01*
X51141310Y-38637633D01*
X51141310Y-37998909D01*
X51145755Y-37953772D01*
X51157129Y-37916278D01*
X51175604Y-37881714D01*
X51200463Y-37851424D01*
X51230753Y-37826565D01*
X51265317Y-37808090D01*
X51302811Y-37796716D01*
X51347948Y-37792271D01*
X52086672Y-37792271D01*
X52131809Y-37796716D01*
X52131809Y-37796716D01*
G37*
G36*
X58131809Y-37796716D02*
X58169303Y-37808090D01*
X58203867Y-37826565D01*
X58234157Y-37851424D01*
X58259016Y-37881714D01*
X58277491Y-37916278D01*
X58288865Y-37953772D01*
X58293310Y-37998909D01*
X58293310Y-38637633D01*
X58288865Y-38682770D01*
X58277491Y-38720264D01*
X58259016Y-38754828D01*
X58234157Y-38785118D01*
X58203867Y-38809977D01*
X58169303Y-38828452D01*
X58131809Y-38839826D01*
X58086672Y-38844271D01*
X57347948Y-38844271D01*
X57302811Y-38839826D01*
X57265317Y-38828452D01*
X57230753Y-38809977D01*
X57200463Y-38785118D01*
X57175604Y-38754828D01*
X57157129Y-38720264D01*
X57145755Y-38682770D01*
X57141310Y-38637633D01*
X57141310Y-37998909D01*
X57145755Y-37953772D01*
X57157129Y-37916278D01*
X57175604Y-37881714D01*
X57200463Y-37851424D01*
X57230753Y-37826565D01*
X57265317Y-37808090D01*
X57302811Y-37796716D01*
X57347948Y-37792271D01*
X58086672Y-37792271D01*
X58131809Y-37796716D01*
X58131809Y-37796716D01*
G37*
G36*
X64131809Y-37796716D02*
X64169303Y-37808090D01*
X64203867Y-37826565D01*
X64234157Y-37851424D01*
X64259016Y-37881714D01*
X64277491Y-37916278D01*
X64288865Y-37953772D01*
X64293310Y-37998909D01*
X64293310Y-38637633D01*
X64288865Y-38682770D01*
X64277491Y-38720264D01*
X64259016Y-38754828D01*
X64234157Y-38785118D01*
X64203867Y-38809977D01*
X64169303Y-38828452D01*
X64131809Y-38839826D01*
X64086672Y-38844271D01*
X63347948Y-38844271D01*
X63302811Y-38839826D01*
X63265317Y-38828452D01*
X63230753Y-38809977D01*
X63200463Y-38785118D01*
X63175604Y-38754828D01*
X63157129Y-38720264D01*
X63145755Y-38682770D01*
X63141310Y-38637633D01*
X63141310Y-37998909D01*
X63145755Y-37953772D01*
X63157129Y-37916278D01*
X63175604Y-37881714D01*
X63200463Y-37851424D01*
X63230753Y-37826565D01*
X63265317Y-37808090D01*
X63302811Y-37796716D01*
X63347948Y-37792271D01*
X64086672Y-37792271D01*
X64131809Y-37796716D01*
X64131809Y-37796716D01*
G37*
G36*
X65881809Y-37796716D02*
X65919303Y-37808090D01*
X65953867Y-37826565D01*
X65984157Y-37851424D01*
X66009016Y-37881714D01*
X66027491Y-37916278D01*
X66038865Y-37953772D01*
X66043310Y-37998909D01*
X66043310Y-38637633D01*
X66038865Y-38682770D01*
X66027491Y-38720264D01*
X66009016Y-38754828D01*
X65984157Y-38785118D01*
X65953867Y-38809977D01*
X65919303Y-38828452D01*
X65881809Y-38839826D01*
X65836672Y-38844271D01*
X65097948Y-38844271D01*
X65052811Y-38839826D01*
X65015317Y-38828452D01*
X64980753Y-38809977D01*
X64950463Y-38785118D01*
X64925604Y-38754828D01*
X64907129Y-38720264D01*
X64895755Y-38682770D01*
X64891310Y-38637633D01*
X64891310Y-37998909D01*
X64895755Y-37953772D01*
X64907129Y-37916278D01*
X64925604Y-37881714D01*
X64950463Y-37851424D01*
X64980753Y-37826565D01*
X65015317Y-37808090D01*
X65052811Y-37796716D01*
X65097948Y-37792271D01*
X65836672Y-37792271D01*
X65881809Y-37796716D01*
X65881809Y-37796716D01*
G37*
G36*
X59963310Y-36894271D02*
X59261310Y-36894271D01*
X59261310Y-35242271D01*
X59963310Y-35242271D01*
X59963310Y-36894271D01*
X59963310Y-36894271D01*
G37*
G36*
X61233310Y-36894271D02*
X60531310Y-36894271D01*
X60531310Y-35242271D01*
X61233310Y-35242271D01*
X61233310Y-36894271D01*
X61233310Y-36894271D01*
G37*
G36*
X62503310Y-36894271D02*
X61801310Y-36894271D01*
X61801310Y-35242271D01*
X62503310Y-35242271D01*
X62503310Y-36894271D01*
X62503310Y-36894271D01*
G37*
G36*
X68503310Y-36894271D02*
X67801310Y-36894271D01*
X67801310Y-35242271D01*
X68503310Y-35242271D01*
X68503310Y-36894271D01*
X68503310Y-36894271D01*
G37*
G36*
X67233310Y-36894271D02*
X66531310Y-36894271D01*
X66531310Y-35242271D01*
X67233310Y-35242271D01*
X67233310Y-36894271D01*
X67233310Y-36894271D01*
G37*
G36*
X65963310Y-36894271D02*
X65261310Y-36894271D01*
X65261310Y-35242271D01*
X65963310Y-35242271D01*
X65963310Y-36894271D01*
X65963310Y-36894271D01*
G37*
G36*
X64693310Y-36894271D02*
X63991310Y-36894271D01*
X63991310Y-35242271D01*
X64693310Y-35242271D01*
X64693310Y-36894271D01*
X64693310Y-36894271D01*
G37*
G36*
X47963310Y-36894271D02*
X47261310Y-36894271D01*
X47261310Y-35242271D01*
X47963310Y-35242271D01*
X47963310Y-36894271D01*
X47963310Y-36894271D01*
G37*
G36*
X53963310Y-36894271D02*
X53261310Y-36894271D01*
X53261310Y-35242271D01*
X53963310Y-35242271D01*
X53963310Y-36894271D01*
X53963310Y-36894271D01*
G37*
G36*
X55233310Y-36894271D02*
X54531310Y-36894271D01*
X54531310Y-35242271D01*
X55233310Y-35242271D01*
X55233310Y-36894271D01*
X55233310Y-36894271D01*
G37*
G36*
X56503310Y-36894271D02*
X55801310Y-36894271D01*
X55801310Y-35242271D01*
X56503310Y-35242271D01*
X56503310Y-36894271D01*
X56503310Y-36894271D01*
G37*
G36*
X58693310Y-36894271D02*
X57991310Y-36894271D01*
X57991310Y-35242271D01*
X58693310Y-35242271D01*
X58693310Y-36894271D01*
X58693310Y-36894271D01*
G37*
G36*
X50503310Y-36894271D02*
X49801310Y-36894271D01*
X49801310Y-35242271D01*
X50503310Y-35242271D01*
X50503310Y-36894271D01*
X50503310Y-36894271D01*
G37*
G36*
X46693310Y-36894271D02*
X45991310Y-36894271D01*
X45991310Y-35242271D01*
X46693310Y-35242271D01*
X46693310Y-36894271D01*
X46693310Y-36894271D01*
G37*
G36*
X49233310Y-36894271D02*
X48531310Y-36894271D01*
X48531310Y-35242271D01*
X49233310Y-35242271D01*
X49233310Y-36894271D01*
X49233310Y-36894271D01*
G37*
G36*
X52693310Y-36894271D02*
X51991310Y-36894271D01*
X51991310Y-35242271D01*
X52693310Y-35242271D01*
X52693310Y-36894271D01*
X52693310Y-36894271D01*
G37*
G36*
X61233310Y-31494271D02*
X60531310Y-31494271D01*
X60531310Y-29842271D01*
X61233310Y-29842271D01*
X61233310Y-31494271D01*
X61233310Y-31494271D01*
G37*
G36*
X52693310Y-31494271D02*
X51991310Y-31494271D01*
X51991310Y-29842271D01*
X52693310Y-29842271D01*
X52693310Y-31494271D01*
X52693310Y-31494271D01*
G37*
G36*
X46693310Y-31494271D02*
X45991310Y-31494271D01*
X45991310Y-29842271D01*
X46693310Y-29842271D01*
X46693310Y-31494271D01*
X46693310Y-31494271D01*
G37*
G36*
X47963310Y-31494271D02*
X47261310Y-31494271D01*
X47261310Y-29842271D01*
X47963310Y-29842271D01*
X47963310Y-31494271D01*
X47963310Y-31494271D01*
G37*
G36*
X49233310Y-31494271D02*
X48531310Y-31494271D01*
X48531310Y-29842271D01*
X49233310Y-29842271D01*
X49233310Y-31494271D01*
X49233310Y-31494271D01*
G37*
G36*
X50503310Y-31494271D02*
X49801310Y-31494271D01*
X49801310Y-29842271D01*
X50503310Y-29842271D01*
X50503310Y-31494271D01*
X50503310Y-31494271D01*
G37*
G36*
X68503310Y-31494271D02*
X67801310Y-31494271D01*
X67801310Y-29842271D01*
X68503310Y-29842271D01*
X68503310Y-31494271D01*
X68503310Y-31494271D01*
G37*
G36*
X65963310Y-31494271D02*
X65261310Y-31494271D01*
X65261310Y-29842271D01*
X65963310Y-29842271D01*
X65963310Y-31494271D01*
X65963310Y-31494271D01*
G37*
G36*
X64693310Y-31494271D02*
X63991310Y-31494271D01*
X63991310Y-29842271D01*
X64693310Y-29842271D01*
X64693310Y-31494271D01*
X64693310Y-31494271D01*
G37*
G36*
X62503310Y-31494271D02*
X61801310Y-31494271D01*
X61801310Y-29842271D01*
X62503310Y-29842271D01*
X62503310Y-31494271D01*
X62503310Y-31494271D01*
G37*
G36*
X59963310Y-31494271D02*
X59261310Y-31494271D01*
X59261310Y-29842271D01*
X59963310Y-29842271D01*
X59963310Y-31494271D01*
X59963310Y-31494271D01*
G37*
G36*
X58693310Y-31494271D02*
X57991310Y-31494271D01*
X57991310Y-29842271D01*
X58693310Y-29842271D01*
X58693310Y-31494271D01*
X58693310Y-31494271D01*
G37*
G36*
X56503310Y-31494271D02*
X55801310Y-31494271D01*
X55801310Y-29842271D01*
X56503310Y-29842271D01*
X56503310Y-31494271D01*
X56503310Y-31494271D01*
G37*
G36*
X55233310Y-31494271D02*
X54531310Y-31494271D01*
X54531310Y-29842271D01*
X55233310Y-29842271D01*
X55233310Y-31494271D01*
X55233310Y-31494271D01*
G37*
G36*
X67233310Y-31494271D02*
X66531310Y-31494271D01*
X66531310Y-29842271D01*
X67233310Y-29842271D01*
X67233310Y-31494271D01*
X67233310Y-31494271D01*
G37*
G36*
X53963310Y-31494271D02*
X53261310Y-31494271D01*
X53261310Y-29842271D01*
X53963310Y-29842271D01*
X53963310Y-31494271D01*
X53963310Y-31494271D01*
G37*
G36*
X21989303Y-21541495D02*
X22095626Y-21562644D01*
X22396089Y-21687100D01*
X22507560Y-21761583D01*
X22666501Y-21867784D01*
X22896460Y-22097743D01*
X23077145Y-22368157D01*
X23201600Y-22668619D01*
X23265047Y-22987586D01*
X23265047Y-23312808D01*
X23201600Y-23631775D01*
X23077145Y-23932237D01*
X22896460Y-24202651D01*
X22666501Y-24432610D01*
X22666498Y-24432612D01*
X22396089Y-24613294D01*
X22095626Y-24737750D01*
X21989303Y-24758899D01*
X21776658Y-24801197D01*
X21451436Y-24801197D01*
X21238791Y-24758899D01*
X21132468Y-24737750D01*
X20832005Y-24613294D01*
X20561596Y-24432612D01*
X20561593Y-24432610D01*
X20331634Y-24202651D01*
X20150949Y-23932237D01*
X20026494Y-23631775D01*
X19963047Y-23312808D01*
X19963047Y-22987586D01*
X20026494Y-22668619D01*
X20150949Y-22368157D01*
X20331634Y-22097743D01*
X20561593Y-21867784D01*
X20720534Y-21761583D01*
X20832005Y-21687100D01*
X21132468Y-21562644D01*
X21238791Y-21541495D01*
X21451436Y-21499197D01*
X21776658Y-21499197D01*
X21989303Y-21541495D01*
X21989303Y-21541495D01*
G37*
G36*
X70989303Y-21541495D02*
X71095626Y-21562644D01*
X71396089Y-21687100D01*
X71507560Y-21761583D01*
X71666501Y-21867784D01*
X71896460Y-22097743D01*
X72077145Y-22368157D01*
X72201600Y-22668619D01*
X72265047Y-22987586D01*
X72265047Y-23312808D01*
X72201600Y-23631775D01*
X72077145Y-23932237D01*
X71896460Y-24202651D01*
X71666501Y-24432610D01*
X71666498Y-24432612D01*
X71396089Y-24613294D01*
X71095626Y-24737750D01*
X70989303Y-24758899D01*
X70776658Y-24801197D01*
X70451436Y-24801197D01*
X70238791Y-24758899D01*
X70132468Y-24737750D01*
X69832005Y-24613294D01*
X69561596Y-24432612D01*
X69561593Y-24432610D01*
X69331634Y-24202651D01*
X69150949Y-23932237D01*
X69026494Y-23631775D01*
X68963047Y-23312808D01*
X68963047Y-22987586D01*
X69026494Y-22668619D01*
X69150949Y-22368157D01*
X69331634Y-22097743D01*
X69561593Y-21867784D01*
X69720534Y-21761583D01*
X69832005Y-21687100D01*
X70132468Y-21562644D01*
X70238791Y-21541495D01*
X70451436Y-21499197D01*
X70776658Y-21499197D01*
X70989303Y-21541495D01*
X70989303Y-21541495D01*
G37*
G36*
X63830987Y-21921736D02*
X63868674Y-21933169D01*
X63903413Y-21951737D01*
X63933858Y-21976723D01*
X63958844Y-22007168D01*
X63977412Y-22041907D01*
X63988845Y-22079594D01*
X63993310Y-22124932D01*
X63993310Y-23211610D01*
X63988845Y-23256948D01*
X63977412Y-23294635D01*
X63958844Y-23329374D01*
X63933858Y-23359819D01*
X63903413Y-23384805D01*
X63868674Y-23403373D01*
X63830987Y-23414806D01*
X63785649Y-23419271D01*
X62948971Y-23419271D01*
X62903633Y-23414806D01*
X62865946Y-23403373D01*
X62831207Y-23384805D01*
X62800762Y-23359819D01*
X62775776Y-23329374D01*
X62757208Y-23294635D01*
X62745775Y-23256948D01*
X62741310Y-23211610D01*
X62741310Y-22124932D01*
X62745775Y-22079594D01*
X62757208Y-22041907D01*
X62775776Y-22007168D01*
X62800762Y-21976723D01*
X62831207Y-21951737D01*
X62865946Y-21933169D01*
X62903633Y-21921736D01*
X62948971Y-21917271D01*
X63785649Y-21917271D01*
X63830987Y-21921736D01*
X63830987Y-21921736D01*
G37*
G36*
X61780987Y-21921736D02*
X61818674Y-21933169D01*
X61853413Y-21951737D01*
X61883858Y-21976723D01*
X61908844Y-22007168D01*
X61927412Y-22041907D01*
X61938845Y-22079594D01*
X61943310Y-22124932D01*
X61943310Y-23211610D01*
X61938845Y-23256948D01*
X61927412Y-23294635D01*
X61908844Y-23329374D01*
X61883858Y-23359819D01*
X61853413Y-23384805D01*
X61818674Y-23403373D01*
X61780987Y-23414806D01*
X61735649Y-23419271D01*
X60898971Y-23419271D01*
X60853633Y-23414806D01*
X60815946Y-23403373D01*
X60781207Y-23384805D01*
X60750762Y-23359819D01*
X60725776Y-23329374D01*
X60707208Y-23294635D01*
X60695775Y-23256948D01*
X60691310Y-23211610D01*
X60691310Y-22124932D01*
X60695775Y-22079594D01*
X60707208Y-22041907D01*
X60725776Y-22007168D01*
X60750762Y-21976723D01*
X60781207Y-21951737D01*
X60815946Y-21933169D01*
X60853633Y-21921736D01*
X60898971Y-21917271D01*
X61735649Y-21917271D01*
X61780987Y-21921736D01*
X61780987Y-21921736D01*
G37*
G36*
X55818310Y-21144271D02*
X55792338Y-21144271D01*
X55767952Y-21146673D01*
X55744503Y-21153786D01*
X55722892Y-21165337D01*
X55703950Y-21180883D01*
X55688404Y-21199825D01*
X55676853Y-21221436D01*
X55669740Y-21244885D01*
X55667338Y-21269271D01*
X55669740Y-21293657D01*
X55676853Y-21317106D01*
X55695709Y-21348566D01*
X55740004Y-21402540D01*
X55784204Y-21485232D01*
X55811423Y-21574959D01*
X55820613Y-21668271D01*
X55811423Y-21761583D01*
X55784204Y-21851310D01*
X55740004Y-21934002D01*
X55680521Y-22006482D01*
X55608041Y-22065965D01*
X55525349Y-22110165D01*
X55435622Y-22137384D01*
X55365694Y-22144271D01*
X55318926Y-22144271D01*
X55248998Y-22137384D01*
X55159271Y-22110165D01*
X55076579Y-22065965D01*
X55004099Y-22006482D01*
X54944616Y-21934002D01*
X54900416Y-21851310D01*
X54873197Y-21761583D01*
X54864007Y-21668271D01*
X54873197Y-21574959D01*
X54900416Y-21485232D01*
X54944616Y-21402540D01*
X54988913Y-21348565D01*
X55002522Y-21328195D01*
X55011900Y-21305556D01*
X55016680Y-21281523D01*
X55016680Y-21257018D01*
X55011899Y-21232985D01*
X55002522Y-21210346D01*
X54988908Y-21189971D01*
X54971581Y-21172644D01*
X54951206Y-21159031D01*
X54928567Y-21149653D01*
X54892282Y-21144271D01*
X54866310Y-21144271D01*
X54866310Y-20192271D01*
X55818310Y-20192271D01*
X55818310Y-21144271D01*
X55818310Y-21144271D01*
G37*
M02*
